{
.appVersion = "926";
copyright = "Copyright 2011 The Sigmar One Project Authors (contact@sansoxygen.com)";
customParameters = (
{
name = licenseURL;
value = "http://scripts.sil.org/OFL";
},
{
name = vendorID;
value = NeWT;
},
{
name = fsType;
value = (
);
},
{
name = "Use Typo Metrics";
value = 1;
},
{
name = license;
value = "This Font Software is licensed under the SIL Open Font License, Version 1.1. This license is available with a FAQ at: http://scripts.sil.org/OFL";
}
);
date = "2011-05-02 20:36:33 +0000";
designer = "Vernon Adams";
designerURL = "http://www.sansoxygen.com";
familyName = "Sigmar One";
featurePrefixes = (
{
automatic = 1;
code = "languagesystem DFLT dflt;\012languagesystem latn dflt;\012languagesystem latn CAT;\012languagesystem latn ROM;\012languagesystem latn MOL;\012languagesystem latn KAZ;\012languagesystem latn TAT;\012languagesystem latn TRK;\012languagesystem latn CRT;\012languagesystem latn AZE;\012";
name = Languagesystems;
}
);
features = (
{
automatic = 1;
code = "feature ccmp;\012feature locl;\012feature sups;\012feature frac;\012feature ordn;\012feature salt;\012feature ss01;\012";
name = aalt;
},
{
automatic = 1;

glyphs = (
{
glyphname = A;
lastChange = "2016-07-08 08:24:15 +0000";
layers = (
{
anchors = (
{
name = bottom;
position = "{367, 0}";
},
{
name = ogonek;
position = "{661, 8}";
},
{
name = top;
position = "{367, 541}";
}
);
background = {
paths = (
{
closed = 1;
nodes = (
"279 533 LINE",
"280 533 LINE",
"292 534 LINE",
"310 534 LINE",
"330 534 LINE",
"347 536 LINE",
"358 536 LINE",
"358 537 LINE",
"360 537 LINE",
"382 537 LINE",
"414 537 LINE",
"450 537 LINE",
"480 536 LINE",
"502 534 LINE",
"503 533 LINE",
"514 533 LINE",
"535 537 LINE",
"546 537 LINE",
"551 537 LINE",
"561 532 LINE",
"566 532 LINE",
"568 532 LINE",
"570 533 LINE",
"573 533 LINE",
"575 532 LINE",
"581 526 LINE",
"581 524 LINE",
"637 271 LINE",
"650 222 LINE",
"673 121 LINE",
"683 73 LINE",
"684 69 LINE",
"687 55 LINE",
"690 39 LINE",
"691 22 LINE",
"690 8 LINE",
"683 -1 LINE",
"677 -1 LINE",
"674 -1 LINE",
"658 -1 LINE",
"638 0 LINE",
"617 0 LINE",
"598 0 LINE",
"585 0 LINE",
"585 1 LINE",
"534 1 LINE",
"534 2 LINE",
"533 4 LINE",
"526 4 LINE",
"526 4 LINE",
"524 1 LINE",
"523 1 LINE",
"521 1 LINE",
"520 1 LINE",
"507 2 LINE",
"489 2 LINE",
"468 4 LINE",
"461 4 LINE",
"454 14 LINE",
"443 64 LINE",
"437 98 LINE",
"427 96 LINE",
"405 95 LINE",
"381 95 LINE",
"355 95 LINE",
"345 95 LINE",
"338 62 LINE",
"327 14 LINE",
"322 4 LINE",
"318 4 LINE",
"310 1 LINE",
"310 1 LINE",
"307 1 LINE",
"302 1 LINE",
"298 4 LINE",
"296 4 LINE",
"275 3 LINE",
"260 2 LINE",
"253 2 LINE",
"240 2 LINE",
"230 1 LINE",
"224 1 LINE",
"150 1 LINE",
"149 1 LINE",
"137 0 LINE",
"118 0 LINE",
"96 0 LINE",
"76 -1 LINE",
"61 -1 LINE",
"58 -1 LINE",
"51 -1 LINE",
"45 8 LINE",
"43 22 LINE",
"45 39 LINE",
"48 55 LINE",
"50 69 LINE",
"51 73 LINE",
"62 121 LINE",
"85 222 LINE",
"98 271 LINE",
"154 524 LINE",
"154 526 LINE",
"159 532 LINE",
"162 533 LINE",
"164 533 LINE",
"166 532 LINE",
"169 532 LINE",
"179 532 LINE",
"201 537 LINE",
"212 537 LINE",
"229 537 LINE",
"261 533 LINE"
);
},
{
closed = 1;
nodes = (
"389 397 LINE",
"385 376 LINE",
"379 342 LINE",
"372 300 LINE",
"365 257 LINE",
"357 214 LINE",
"354 198 LINE",
"395 198 LINE",
"396 198 LINE",
"400 200 LINE",
"401 200 LINE",
"402 200 LINE",
"410 200 LINE",
"422 197 LINE",
"428 195 LINE",
"425 212 LINE",
"418 254 LINE",
"410 299 LINE",
"402 342 LINE",
"397 375 LINE",
"394 397 LINE",
"393 398 LINE",
"393 400 LINE",
"392 402 LINE",
"392 406 LINE",
"391 409 LINE",
"390 406 LINE",
"390 402 LINE",
"389 400 LINE",
"389 398 LINE"
);
}
);
};
layerId = UUID0;
paths = (
{
closed = 1;
nodes = (
"59 -1 OFFCURVE",
"63 -1 OFFCURVE",
"68 -1 CURVE SMOOTH",
"74 -1 OFFCURVE",
"80 -1 OFFCURVE",
"86 0 CURVE",
"93 0 OFFCURVE",
"100 0 OFFCURVE",
"107 0 CURVE",
"122 0 OFFCURVE",
"134 0 OFFCURVE",
"143 1 CURVE",
"147 1 OFFCURVE",
"150 1 OFFCURVE",
"150 1 CURVE SMOOTH",
"224 1 LINE",
"224 1 OFFCURVE",
"225 1 OFFCURVE",
"227 1 CURVE",
"229 1 OFFCURVE",
"232 1 OFFCURVE",
"235 2 CURVE SMOOTH",
"238 2 OFFCURVE",
"242 2 OFFCURVE",
"247 2 CURVE",
"251 2 OFFCURVE",
"255 2 OFFCURVE",
"260 2 CURVE",
"270 3 OFFCURVE",
"282 3 OFFCURVE",
"296 4 CURVE SMOOTH",
"298 4 OFFCURVE",
"299 3 OFFCURVE",
"300 2 CURVE SMOOTH",
"302 1 OFFCURVE",
"304 1 OFFCURVE",
"307 1 CURVE SMOOTH",
"310 1 LINE SMOOTH",
"310 1 OFFCURVE",
"312 1 OFFCURVE",
"314 2 CURVE SMOOTH",
"317 3 OFFCURVE",
"319 4 OFFCURVE",
"322 4 CURVE",
"329 17 OFFCURVE",
"335 51 OFFCURVE",
"345 95 CURVE",
"352 95 OFFCURVE",
"360 95 OFFCURVE",
"368 95 CURVE",
"376 95 OFFCURVE",
"384 95 OFFCURVE",
"393 95 CURVE SMOOTH",
"409 95 OFFCURVE",
"424 96 OFFCURVE",
"437 98 CURVE",
"446 52 OFFCURVE",
"453 17 OFFCURVE",
"461 4 CURVE",
"471 4 OFFCURVE",
"486 3 OFFCURVE",
"498 2 CURVE SMOOTH",
"504 2 OFFCURVE",
"510 2 OFFCURVE",
"514 1 CURVE SMOOTH",
"518 1 OFFCURVE",
"520 1 OFFCURVE",
"521 1 CURVE SMOOTH",
"523 1 LINE SMOOTH",
"524 1 OFFCURVE",
"525 1 OFFCURVE",
"525 2 CURVE SMOOTH",
"526 3 OFFCURVE",
"526 4 OFFCURVE",
"526 4 CURVE SMOOTH",
"530 4 OFFCURVE",
"533 3 OFFCURVE",
"534 2 CURVE",
"534 2 OFFCURVE",
"534 1 OFFCURVE",
"534 1 CURVE",
"585 1 LINE",
"585 0 OFFCURVE",
"587 0 OFFCURVE",
"591 0 CURVE SMOOTH",
"596 0 OFFCURVE",
"601 0 OFFCURVE",
"607 0 CURVE",
"614 0 OFFCURVE",
"620 0 OFFCURVE",
"627 0 CURVE",
"634 0 OFFCURVE",
"642 0 OFFCURVE",
"648 0 CURVE",
"654 -1 OFFCURVE",
"661 -1 OFFCURVE",
"666 -1 CURVE SMOOTH",
"671 -1 OFFCURVE",
"674 -1 OFFCURVE",
"677 -1 CURVE SMOOTH",
"681 -1 OFFCURVE",
"684 1 OFFCURVE",
"686 4 CURVE SMOOTH",
"690 10 OFFCURVE",
"692 19 OFFCURVE",
"690 31 CURVE SMOOTH",
"690 42 OFFCURVE",
"687 53 OFFCURVE",
"686 62 CURVE",
"684 66 OFFCURVE",
"683 70 OFFCURVE",
"683 73 CURVE",
"670 137 OFFCURVE",
"654 206 OFFCURVE",
"637 271 CURVE",
"581 524 LINE",
"581 526 OFFCURVE",
"576 531 OFFCURVE",
"573 533 CURVE",
"571 533 OFFCURVE",
"570 533 OFFCURVE",
"570 533 CURVE",
"568 532 OFFCURVE",
"567 532 OFFCURVE",
"566 532 CURVE SMOOTH",
"562 532 OFFCURVE",
"559 533 OFFCURVE",
"556 534 CURVE SMOOTH",
"553 536 OFFCURVE",
"550 537 OFFCURVE",
"546 537 CURVE SMOOTH",
"539 537 OFFCURVE",
"532 536 OFFCURVE",
"525 534 CURVE SMOOTH",
"518 534 OFFCURVE",
"510 533 OFFCURVE",
"503 533 CURVE",
"502 534 OFFCURVE",
"498 534 OFFCURVE",
"491 535 CURVE SMOOTH",
"477 537 OFFCURVE",
"455 537 OFFCURVE",
"432 537 CURVE SMOOTH",
"419 537 OFFCURVE",
"409 537 OFFCURVE",
"398 537 CURVE SMOOTH",
"387 537 OFFCURVE",
"378 537 OFFCURVE",
"371 537 CURVE",
"364 537 OFFCURVE",
"359 537 OFFCURVE",
"358 537 CURVE",
"358 536 OFFCURVE",
"356 536 OFFCURVE",
"352 536 CURVE",
"349 536 OFFCURVE",
"344 536 OFFCURVE",
"338 535 CURVE SMOOTH",
"333 535 OFFCURVE",
"326 534 OFFCURVE",
"319 534 CURVE SMOOTH",
"313 534 OFFCURVE",
"306 534 OFFCURVE",
"301 534 CURVE SMOOTH",
"295 534 OFFCURVE",
"290 534 OFFCURVE",
"286 534 CURVE",
"282 533 OFFCURVE",
"280 533 OFFCURVE",
"279 533 CURVE SMOOTH",
"266 533 OFFCURVE",
"255 534 OFFCURVE",
"245 534 CURVE SMOOTH",
"234 536 OFFCURVE",
"223 537 OFFCURVE",
"212 537 CURVE SMOOTH",
"205 537 OFFCURVE",
"198 536 OFFCURVE",
"190 534 CURVE SMOOTH",
"182 533 OFFCURVE",
"175 532 OFFCURVE",
"169 532 CURVE SMOOTH",
"167 532 OFFCURVE",
"166 532 OFFCURVE",
"166 533 CURVE",
"164 533 OFFCURVE",
"163 533 OFFCURVE",
"162 533 CURVE",
"158 531 OFFCURVE",
"154 526 OFFCURVE",
"154 524 CURVE",
"98 271 LINE",
"81 206 OFFCURVE",
"65 137 OFFCURVE",
"51 73 CURVE",
"50 68 OFFCURVE",
"48 58 OFFCURVE",
"46 47 CURVE SMOOTH",
"44 36 OFFCURVE",
"42 25 OFFCURVE",
"44 15 CURVE",
"46 6 OFFCURVE",
"50 -1 OFFCURVE",
"58 -1 CURVE SMOOTH"
);
},
{
closed = 1;
nodes = (
"424 196 OFFCURVE",
"420 198 OFFCURVE",
"417 198 CURVE SMOOTH",
"412 200 OFFCURVE",
"407 200 OFFCURVE",
"402 200 CURVE SMOOTH",
"401 200 LINE SMOOTH",
"400 200 OFFCURVE",
"397 199 OFFCURVE",
"395 198 CURVE",
"354 198 LINE",
"356 209 OFFCURVE",
"358 221 OFFCURVE",
"361 235 CURVE SMOOTH",
"363 250 OFFCURVE",
"366 264 OFFCURVE",
"368 278 CURVE SMOOTH",
"373 308 OFFCURVE",
"378 337 OFFCURVE",
"382 359 CURVE SMOOTH",
"384 370 OFFCURVE",
"386 379 OFFCURVE",
"387 386 CURVE SMOOTH",
"388 393 OFFCURVE",
"389 397 OFFCURVE",
"389 397 CURVE SMOOTH",
"389 398 OFFCURVE",
"389 399 OFFCURVE",
"389 400 CURVE SMOOTH",
"390 401 OFFCURVE",
"390 402 OFFCURVE",
"390 404 CURVE",
"390 405 OFFCURVE",
"390 407 OFFCURVE",
"391 409 CURVE",
"391 407 OFFCURVE",
"392 405 OFFCURVE",
"392 404 CURVE",
"392 401 OFFCURVE",
"393 399 OFFCURVE",
"394 397 CURVE",
"394 397 OFFCURVE",
"394 393 OFFCURVE",
"395 386 CURVE SMOOTH",
"397 379 OFFCURVE",
"398 370 OFFCURVE",
"400 358 CURVE SMOOTH",
"402 347 OFFCURVE",
"404 334 OFFCURVE",
"406 320 CURVE SMOOTH",
"409 306 OFFCURVE",
"411 291 OFFCURVE",
"414 277 CURVE SMOOTH",
"417 262 OFFCURVE",
"419 247 OFFCURVE",
"422 234 CURVE SMOOTH",
"424 218 OFFCURVE",
"426 206 OFFCURVE",
"428 195 CURVE"
);
}
);
width = 734;
}
);
leftKerningGroup = A;
rightKerningGroup = A;
unicode = 0041;
},
{
color = 9;
glyphname = Aringacute;
lastChange = "2016-07-08 08:24:15 +0000";
layers = (
{
background = {
components = (
{
name = ringcomb;
transform = "{1, 0, 0, 1, 59, 98}";
}
);
};
components = (
{
name = A;
}
);
guideLines = (
{
angle = 90;
position = "{734, 430}";
}
);
layerId = UUID0;
paths = (
{
closed = 1;
nodes = (
"561 722 OFFCURVE",
"566 722 OFFCURVE",
"570 723 CURVE SMOOTH",
"574 724 OFFCURVE",
"579 723 OFFCURVE",
"584 723 CURVE SMOOTH",
"598 723 LINE",
"600 724 LINE",
"603 722 LINE",
"606 723 OFFCURVE",
"609 723 OFFCURVE",
"613 723 CURVE SMOOTH",
"616 723 OFFCURVE",
"619 723 OFFCURVE",
"622 723 CURVE SMOOTH",
"625 723 OFFCURVE",
"627 726 OFFCURVE",
"630 730 CURVE SMOOTH",
"634 740 OFFCURVE",
"641 755 OFFCURVE",
"646 770 CURVE SMOOTH",
"648 778 OFFCURVE",
"651 784 OFFCURVE",
"653 789 CURVE",
"658 800 OFFCURVE",
"662 810 OFFCURVE",
"666 820 CURVE SMOOTH",
"670 830 OFFCURVE",
"672 841 OFFCURVE",
"679 850 CURVE SMOOTH",
"682 854 OFFCURVE",
"683 858 OFFCURVE",
"686 862 CURVE SMOOTH",
"688 867 OFFCURVE",
"690 870 OFFCURVE",
"692 875 CURVE SMOOTH",
"694 880 OFFCURVE",
"697 884 OFFCURVE",
"698 889 CURVE SMOOTH",
"702 898 OFFCURVE",
"706 906 OFFCURVE",
"709 910 CURVE SMOOTH",
"711 915 OFFCURVE",
"711 918 OFFCURVE",
"706 920 CURVE SMOOTH",
"703 922 OFFCURVE",
"698 922 OFFCURVE",
"692 924 CURVE",
"691 924 OFFCURVE",
"690 924 OFFCURVE",
"690 924 CURVE",
"690 923 OFFCURVE",
"689 923 OFFCURVE",
"688 923 CURVE",
"685 925 LINE",
"663 926 LINE",
"662 926 OFFCURVE",
"662 926 OFFCURVE",
"660 926 CURVE",
"659 926 OFFCURVE",
"658 927 OFFCURVE",
"658 927 CURVE",
"656 927 OFFCURVE",
"654 927 OFFCURVE",
"652 927 CURVE",
"650 927 OFFCURVE",
"648 927 OFFCURVE",
"647 926 CURVE",
"644 928 LINE",
"635 928 OFFCURVE",
"626 927 OFFCURVE",
"617 927 CURVE SMOOTH",
"607 927 OFFCURVE",
"597 926 OFFCURVE",
"585 926 CURVE",
"563 923 LINE",
"560 919 LINE",
"554 893 OFFCURVE",
"551 869 OFFCURVE",
"548 842 CURVE",
"548 834 OFFCURVE",
"548 825 OFFCURVE",
"548 816 CURVE SMOOTH",
"548 807 OFFCURVE",
"546 798 OFFCURVE",
"546 790 CURVE SMOOTH",
"546 772 OFFCURVE",
"544 755 OFFCURVE",
"546 738 CURVE SMOOTH",
"547 730 OFFCURVE",
"548 722 OFFCURVE",
"557 722 CURVE SMOOTH"
);
},
{
closed = 1;
nodes = (
"384 571 OFFCURVE",
"410 570 OFFCURVE",
"436 577 CURVE SMOOTH",
"461 583 OFFCURVE",
"482 594 OFFCURVE",
"498 618 CURVE",
"502 619 LINE",
"522 647 OFFCURVE",
"531 683 OFFCURVE",
"531 716 CURVE SMOOTH",
"531 747 OFFCURVE",
"526 773 OFFCURVE",
"514 794 CURVE SMOOTH",
"503 816 OFFCURVE",
"484 833 OFFCURVE",
"459 850 CURVE",
"446 857 OFFCURVE",
"434 861 OFFCURVE",
"418 863 CURVE SMOOTH",
"402 865 OFFCURVE",
"384 866 OFFCURVE",
"358 866 CURVE SMOOTH",
"358 866 OFFCURVE",
"358 866 OFFCURVE",
"358 866 CURVE SMOOTH",
"356 866 OFFCURVE",
"355 866 OFFCURVE",
"355 865 CURVE",
"350 866 OFFCURVE",
"344 866 OFFCURVE",
"338 866 CURVE SMOOTH",
"299 866 OFFCURVE",
"269 846 OFFCURVE",
"247 816 CURVE SMOOTH",
"226 786 OFFCURVE",
"214 749 OFFCURVE",
"214 712 CURVE SMOOTH",
"214 693 OFFCURVE",
"217 669 OFFCURVE",
"226 646 CURVE SMOOTH",
"236 624 OFFCURVE",
"248 603 OFFCURVE",
"269 592 CURVE SMOOTH",
"299 576 OFFCURVE",
"330 569 OFFCURVE",
"360 570 CURVE SMOOTH"
);
},
{
closed = 1;
nodes = (
"354 662 OFFCURVE",
"346 664 OFFCURVE",
"339 668 CURVE SMOOTH",
"326 676 OFFCURVE",
"318 686 OFFCURVE",
"318 694 CURVE SMOOTH",
"318 698 OFFCURVE",
"316 700 OFFCURVE",
"316 700 CURVE",
"316 702 OFFCURVE",
"316 703 OFFCURVE",
"316 705 CURVE SMOOTH",
"316 706 OFFCURVE",
"316 708 OFFCURVE",
"316 709 CURVE SMOOTH",
"316 739 OFFCURVE",
"324 758 OFFCURVE",
"334 768 CURVE SMOOTH",
"344 779 OFFCURVE",
"356 782 OFFCURVE",
"365 782 CURVE SMOOTH",
"378 782 OFFCURVE",
"387 781 OFFCURVE",
"396 778 CURVE SMOOTH",
"412 774 OFFCURVE",
"422 765 OFFCURVE",
"428 757 CURVE SMOOTH",
"433 749 OFFCURVE",
"436 741 OFFCURVE",
"436 735 CURVE",
"436 734 OFFCURVE",
"436 732 OFFCURVE",
"436 732 CURVE",
"436 729 OFFCURVE",
"435 720 OFFCURVE",
"432 710 CURVE SMOOTH",
"429 698 OFFCURVE",
"422 688 OFFCURVE",
"411 678 CURVE SMOOTH",
"402 669 OFFCURVE",
"386 662 OFFCURVE",
"365 662 CURVE SMOOTH"
);
}
);
width = 734;
}
);
leftKerningGroup = A;
rightKerningGroup = A;
unicode = 01FA;
},
{
glyphname = AE;
lastChange = "2016-07-08 08:24:15 +0000";
layers = (
{
anchors = (
{
name = bottom;
position = "{484, 0}";
},
{
name = top;
position = "{594, 541}";
}
);
background = {
paths = (
{
closed = 1;
nodes = (
"400 533 LINE",
"401 533 LINE",
"410 534 LINE",
"425 534 LINE",
"442 534 LINE",
"455 536 LINE",
"464 536 LINE",
"464 537 LINE",
"466 537 LINE",
"493 537 LINE",
"528 537 LINE",
"566 537 LINE",
"582 536 LINE",
"622 537 LINE",
"696 539 LINE",
"772 540 LINE",
"852 538 LINE",
"898 535 LINE",
"904 535 LINE",
"910 516 LINE",
"914 486 LINE",
"918 450 LINE",
"921 434 LINE",
"921 425 LINE",
"920 416 LINE",
"918 412 LINE",
"914 413 LINE",
"910 413 LINE",
"873 413 LINE",
"795 412 LINE",
"756 412 LINE",
"752 412 LINE",
"746 393 LINE",
"742 366 LINE",
"741 341 LINE",
"741 334 LINE",
"741 323 LINE",
"746 318 LINE",
"753 318 LINE",
"790 318 LINE",
"860 318 LINE",
"895 314 LINE",
"901 314 LINE",
"910 313 LINE",
"916 310 LINE",
"920 303 LINE",
"922 296 LINE",
"926 225 LINE",
"926 222 LINE",
"926 215 LINE",
"910 207 LINE",
"883 203 LINE",
"850 202 LINE",
"833 202 LINE",
"798 202 LINE",
"760 204 LINE",
"742 200 LINE",
"738 186 LINE",
"738 170 LINE",
"738 156 LINE",
"734 129 LINE",
"735 114 LINE",
"774 114 LINE",
"851 114 LINE",
"890 114 LINE",
"890 114 LINE",
"894 102 LINE",
"897 84 LINE",
"900 62 LINE",
"902 41 LINE",
"904 24 LINE",
"904 21 LINE",
"904 14 LINE",
"897 4 LINE",
"888 4 LINE",
"862 4 LINE",
"816 1 LINE",
"790 1 LINE",
"760 1 LINE",
"698 0 LINE",
"667 0 LINE",
"665 -1 LINE",
"662 -1 LINE",
"658 -1 LINE",
"642 -1 LINE",
"622 0 LINE",
"600 0 LINE",
"590 0 LINE",
"537 0 LINE",
"535 0 LINE",
"530 0 LINE",
"526 1 LINE",
"520 1 LINE",
"520 2 LINE",
"511 2 LINE",
"510 1 LINE",
"509 1 LINE",
"506 1 LINE",
"506 1 LINE",
"493 2 LINE",
"475 2 LINE",
"454 4 LINE",
"446 4 LINE",
"443 14 LINE",
"443 64 LINE",
"444 98 LINE",
"426 94 LINE",
"380 95 LINE",
"359 95 LINE",
"346 62 LINE",
"323 14 LINE",
"315 4 LINE",
"312 4 LINE",
"303 1 LINE",
"302 1 LINE",
"300 1 LINE",
"296 1 LINE",
"292 4 LINE",
"290 4 LINE",
"269 3 LINE",
"254 2 LINE",
"246 2 LINE",
"234 2 LINE",
"223 1 LINE",
"217 1 LINE",
"143 1 LINE",
"142 1 LINE",
"130 0 LINE",
"111 0 LINE",
"90 0 LINE",
"69 -1 LINE",
"54 -1 LINE",
"50 -1 LINE",
"45 -1 LINE",
"40 8 LINE",
"42 22 LINE",
"47 39 LINE",
"53 55 LINE",
"59 69 LINE",
"61 73 LINE",
"82 121 LINE",
"129 222 LINE",
"152 271 LINE",
"273 524 LINE",
"273 526 LINE",
"280 532 LINE",
"283 533 LINE",
"285 533 LINE",
"287 532 LINE",
"290 532 LINE",
"300 532 LINE",
"322 537 LINE",
"334 537 LINE",
"350 537 LINE",
"382 533 LINE"
);
},
{
closed = 1;
nodes = (
"463 397 LINE",
"463 397 LINE",
"456 376 LINE",
"444 342 LINE",
"429 300 LINE",
"414 257 LINE",
"398 214 LINE",
"392 198 LINE",
"425 198 LINE",
"433 198 LINE",
"450 198 LINE",
"457 195 LINE",
"458 212 LINE",
"460 254 LINE",
"463 299 LINE",
"465 342 LINE",
"466 375 LINE",
"468 397 LINE",
"468 397 LINE",
"468 400 LINE",
"468 402 LINE",
"468 406 LINE",
"468 409 LINE",
"467 406 LINE",
"466 402 LINE",
"465 400 LINE",
"464 398 LINE"
);
}
);
};
layerId = UUID0;
paths = (
{
closed = 1;
nodes = (
"53 -1 OFFCURVE",
"56 -1 OFFCURVE",
"62 -1 CURVE SMOOTH",
"66 -1 OFFCURVE",
"73 -1 OFFCURVE",
"79 0 CURVE",
"86 0 OFFCURVE",
"93 0 OFFCURVE",
"100 0 CURVE",
"115 0 OFFCURVE",
"128 0 OFFCURVE",
"136 1 CURVE",
"140 1 OFFCURVE",
"142 1 OFFCURVE",
"143 1 CURVE SMOOTH",
"217 1 LINE",
"217 1 OFFCURVE",
"218 1 OFFCURVE",
"220 1 CURVE",
"222 1 OFFCURVE",
"225 1 OFFCURVE",
"229 2 CURVE SMOOTH",
"232 2 OFFCURVE",
"236 2 OFFCURVE",
"240 2 CURVE",
"245 2 OFFCURVE",
"249 2 OFFCURVE",
"254 2 CURVE",
"264 3 OFFCURVE",
"276 3 OFFCURVE",
"290 4 CURVE SMOOTH",
"291 4 OFFCURVE",
"293 3 OFFCURVE",
"294 2 CURVE",
"295 1 OFFCURVE",
"298 1 OFFCURVE",
"300 1 CURVE SMOOTH",
"302 1 LINE SMOOTH",
"303 1 OFFCURVE",
"305 1 OFFCURVE",
"308 2 CURVE",
"310 3 OFFCURVE",
"314 4 OFFCURVE",
"315 4 CURVE",
"326 17 OFFCURVE",
"341 51 OFFCURVE",
"359 95 CURVE",
"373 95 OFFCURVE",
"387 95 OFFCURVE",
"403 95 CURVE SMOOTH",
"418 94 OFFCURVE",
"432 96 OFFCURVE",
"444 98 CURVE",
"443 75 OFFCURVE",
"443 55 OFFCURVE",
"443 38 CURVE SMOOTH",
"443 22 OFFCURVE",
"444 10 OFFCURVE",
"446 4 CURVE",
"457 4 OFFCURVE",
"472 3 OFFCURVE",
"484 2 CURVE SMOOTH",
"490 2 OFFCURVE",
"495 2 OFFCURVE",
"500 1 CURVE SMOOTH",
"504 1 OFFCURVE",
"506 1 OFFCURVE",
"506 1 CURVE SMOOTH",
"509 1 LINE SMOOTH",
"510 1 OFFCURVE",
"510 2 OFFCURVE",
"511 2 CURVE",
"520 2 LINE",
"520 1 LINE",
"526 1 LINE",
"531 0 OFFCURVE",
"535 0 OFFCURVE",
"537 0 CURVE SMOOTH",
"590 0 LINE SMOOTH",
"603 0 OFFCURVE",
"618 0 OFFCURVE",
"633 0 CURVE",
"639 -1 OFFCURVE",
"646 -1 OFFCURVE",
"650 -1 CURVE SMOOTH",
"656 -1 OFFCURVE",
"660 -1 OFFCURVE",
"662 -1 CURVE SMOOTH",
"664 -1 OFFCURVE",
"666 0 OFFCURVE",
"667 0 CURVE",
"688 0 OFFCURVE",
"709 0 OFFCURVE",
"730 1 CURVE SMOOTH",
"750 1 OFFCURVE",
"770 1 OFFCURVE",
"790 1 CURVE SMOOTH",
"807 1 OFFCURVE",
"824 1 OFFCURVE",
"839 2 CURVE SMOOTH",
"854 3 OFFCURVE",
"871 4 OFFCURVE",
"888 4 CURVE SMOOTH",
"899 4 OFFCURVE",
"904 11 OFFCURVE",
"904 21 CURVE SMOOTH",
"904 23 OFFCURVE",
"903 27 OFFCURVE",
"903 33 CURVE",
"902 44 OFFCURVE",
"900 58 OFFCURVE",
"898 73 CURVE SMOOTH",
"897 88 OFFCURVE",
"894 101 OFFCURVE",
"892 109 CURVE",
"891 113 OFFCURVE",
"890 114 OFFCURVE",
"890 114 CURVE SMOOTH",
"864 114 OFFCURVE",
"838 114 OFFCURVE",
"813 114 CURVE SMOOTH",
"787 114 OFFCURVE",
"762 114 OFFCURVE",
"735 114 CURVE",
"735 123 OFFCURVE",
"735 134 OFFCURVE",
"736 142 CURVE SMOOTH",
"738 151 OFFCURVE",
"738 161 OFFCURVE",
"738 170 CURVE SMOOTH",
"738 190 OFFCURVE",
"738 199 OFFCURVE",
"750 202 CURVE",
"757 203 OFFCURVE",
"766 203 OFFCURVE",
"779 203 CURVE SMOOTH",
"792 202 OFFCURVE",
"810 202 OFFCURVE",
"833 202 CURVE SMOOTH",
"856 202 OFFCURVE",
"879 202 OFFCURVE",
"897 206 CURVE SMOOTH",
"914 208 OFFCURVE",
"926 213 OFFCURVE",
"926 222 CURVE SMOOTH",
"926 225 LINE",
"922 296 LINE",
"921 301 OFFCURVE",
"919 304 OFFCURVE",
"918 306 CURVE",
"915 311 OFFCURVE",
"911 313 OFFCURVE",
"906 314 CURVE",
"902 314 OFFCURVE",
"899 314 OFFCURVE",
"895 314 CURVE SMOOTH",
"871 317 OFFCURVE",
"848 318 OFFCURVE",
"825 318 CURVE SMOOTH",
"801 318 OFFCURVE",
"778 318 OFFCURVE",
"753 318 CURVE SMOOTH",
"744 318 OFFCURVE",
"741 320 OFFCURVE",
"741 334 CURVE SMOOTH",
"741 338 OFFCURVE",
"741 345 OFFCURVE",
"742 354 CURVE SMOOTH",
"743 370 OFFCURVE",
"746 390 OFFCURVE",
"750 402 CURVE SMOOTH",
"751 409 OFFCURVE",
"754 412 OFFCURVE",
"756 412 CURVE SMOOTH",
"782 412 OFFCURVE",
"808 412 OFFCURVE",
"834 413 CURVE SMOOTH",
"860 413 OFFCURVE",
"886 413 OFFCURVE",
"910 413 CURVE SMOOTH",
"913 413 OFFCURVE",
"914 413 OFFCURVE",
"916 413 CURVE",
"918 412 OFFCURVE",
"920 414 OFFCURVE",
"921 420 CURVE",
"921 423 OFFCURVE",
"921 428 OFFCURVE",
"921 434 CURVE",
"919 446 OFFCURVE",
"917 456 OFFCURVE",
"916 468 CURVE SMOOTH",
"914 492 OFFCURVE",
"911 513 OFFCURVE",
"907 526 CURVE",
"905 532 OFFCURVE",
"902 535 OFFCURVE",
"898 535 CURVE",
"867 538 OFFCURVE",
"839 539 OFFCURVE",
"812 539 CURVE SMOOTH",
"758 541 OFFCURVE",
"709 539 OFFCURVE",
"659 538 CURVE SMOOTH",
"634 537 OFFCURVE",
"608 537 OFFCURVE",
"582 536 CURVE SMOOTH",
"562 537 OFFCURVE",
"534 537 OFFCURVE",
"510 537 CURVE SMOOTH",
"498 537 OFFCURVE",
"488 537 OFFCURVE",
"480 537 CURVE",
"470 537 OFFCURVE",
"466 537 OFFCURVE",
"464 537 CURVE",
"464 536 OFFCURVE",
"462 536 OFFCURVE",
"460 536 CURVE",
"457 536 OFFCURVE",
"453 536 OFFCURVE",
"449 535 CURVE SMOOTH",
"444 535 OFFCURVE",
"438 534 OFFCURVE",
"434 534 CURVE SMOOTH",
"428 534 OFFCURVE",
"422 534 OFFCURVE",
"418 534 CURVE SMOOTH",
"413 534 OFFCURVE",
"409 534 OFFCURVE",
"406 534 CURVE",
"402 533 OFFCURVE",
"401 533 OFFCURVE",
"400 533 CURVE SMOOTH",
"388 533 OFFCURVE",
"377 534 OFFCURVE",
"366 534 CURVE SMOOTH",
"356 536 OFFCURVE",
"346 537 OFFCURVE",
"334 537 CURVE SMOOTH",
"326 537 OFFCURVE",
"318 536 OFFCURVE",
"311 534 CURVE SMOOTH",
"303 533 OFFCURVE",
"296 532 OFFCURVE",
"290 532 CURVE SMOOTH",
"288 532 OFFCURVE",
"286 532 OFFCURVE",
"286 533 CURVE SMOOTH",
"285 533 OFFCURVE",
"284 533 OFFCURVE",
"283 533 CURVE",
"278 531 OFFCURVE",
"273 526 OFFCURVE",
"273 524 CURVE",
"152 271 LINE SMOOTH",
"121 206 OFFCURVE",
"89 137 OFFCURVE",
"61 73 CURVE",
"60 70 OFFCURVE",
"58 66 OFFCURVE",
"56 62 CURVE SMOOTH",
"54 58 OFFCURVE",
"52 53 OFFCURVE",
"50 47 CURVE SMOOTH",
"46 36 OFFCURVE",
"42 25 OFFCURVE",
"41 15 CURVE SMOOTH",
"40 6 OFFCURVE",
"42 -1 OFFCURVE",
"50 -1 CURVE SMOOTH"
);
},
{
closed = 1;
nodes = (
"449 198 OFFCURVE",
"434 198 OFFCURVE",
"425 198 CURVE SMOOTH",
"392 198 LINE",
"396 209 OFFCURVE",
"400 221 OFFCURVE",
"406 235 CURVE SMOOTH",
"410 250 OFFCURVE",
"416 264 OFFCURVE",
"421 278 CURVE SMOOTH",
"426 293 OFFCURVE",
"432 307 OFFCURVE",
"437 322 CURVE SMOOTH",
"442 335 OFFCURVE",
"446 348 OFFCURVE",
"450 359 CURVE SMOOTH",
"454 370 OFFCURVE",
"457 379 OFFCURVE",
"460 386 CURVE SMOOTH",
"462 393 OFFCURVE",
"463 397 OFFCURVE",
"463 397 CURVE",
"464 398 OFFCURVE",
"464 399 OFFCURVE",
"465 400 CURVE",
"466 402 OFFCURVE",
"466 405 OFFCURVE",
"468 409 CURVE",
"468 407 OFFCURVE",
"468 405 OFFCURVE",
"468 404 CURVE",
"468 402 OFFCURVE",
"468 401 OFFCURVE",
"468 400 CURVE SMOOTH",
"468 397 LINE SMOOTH",
"468 397 OFFCURVE",
"468 393 OFFCURVE",
"467 386 CURVE SMOOTH",
"467 379 OFFCURVE",
"466 370 OFFCURVE",
"466 358 CURVE SMOOTH",
"466 347 OFFCURVE",
"465 334 OFFCURVE",
"464 320 CURVE SMOOTH",
"463 306 OFFCURVE",
"462 291 OFFCURVE",
"462 277 CURVE SMOOTH",
"460 247 OFFCURVE",
"458 217 OFFCURVE",
"457 195 CURVE"
);
}
);
width = 968;
}
);
leftKerningGroup = A;
rightKerningGroup = E;
unicode = 00C6;
},
{
glyphname = B;
lastChange = "2016-07-08 08:24:15 +0000";
layers = (
{
anchors = (
{
name = bottom;
position = "{328, 0}";
},
{
name = top;
position = "{328, 541}";
}
);
background = {
paths = (
{
closed = 1;
nodes = (
"46 420 LINE",
"46 434 LINE",
"46 460 LINE",
"46 472 LINE",
"46 483 LINE",
"47 503 LINE",
"49 513 LINE",
"50 518 LINE",
"52 531 LINE",
"58 542 LINE",
"69 549 LINE",
"81 549 LINE",
"95 549 LINE",
"134 551 LINE",
"174 554 LINE",
"214 556 LINE",
"230 556 LINE",
"267 556 LINE",
"346 548 LINE",
"384 543 LINE",
"405 541 LINE",
"454 534 LINE",
"505 522 LINE",
"550 504 LINE",
"586 475 LINE",
"608 434 LINE",
"608 405 LINE",
"608 370 LINE",
"581 321 LINE",
"553 303 LINE",
"546 300 LINE",
"532 294 LINE",
"519 289 LINE",
"509 282 LINE",
"506 278 LINE",
"507 278 LINE",
"508 276 LINE",
"509 275 LINE",
"539 262 LINE",
"583 234 LINE",
"611 205 LINE",
"624 175 LINE",
"624 160 LINE",
"624 137 LINE",
"595 91 LINE",
"546 51 LINE",
"478 18 LINE",
"440 8 LINE",
"410 -1 LINE",
"353 -11 LINE",
"300 -17 LINE",
"254 -19 LINE",
"235 -19 LINE",
"182 -19 LINE",
"111 -14 LINE",
"68 2 LINE",
"50 33 LINE",
"50 58 LINE",
"50 66 LINE",
"51 90 LINE",
"52 115 LINE",
"53 138 LINE",
"53 143 LINE",
"53 212 LINE",
"46 350 LINE"
);
},
{
closed = 1;
nodes = (
"319 204 LINE",
"314 204 LINE",
"310 198 LINE",
"310 193 LINE",
"310 129 LINE",
"310 125 LINE",
"315 123 LINE",
"317 123 LINE",
"318 123 LINE",
"319 123 LINE",
"319 124 LINE",
"383 154 LINE",
"446 183 LINE",
"448 185 LINE",
"452 187 LINE",
"454 189 LINE",
"435 194 LINE",
"404 200 LINE",
"372 203 LINE",
"339 204 LINE"
);
},
{
closed = 1;
nodes = (
"324 362 LINE",
"324 358 LINE",
"325 354 LINE",
"330 354 LINE",
"332 354 LINE",
"347 359 LINE",
"367 368 LINE",
"390 379 LINE",
"409 388 LINE",
"422 394 LINE",
"422 394 LINE",
"425 394 LINE",
"432 397 LINE",
"432 400 LINE",
"432 408 LINE",
"414 417 LINE",
"389 421 LINE",
"365 422 LINE",
"358 422 LINE",
"345 422 LINE",
"331 413 LINE",
"325 396 LINE",
"324 374 LINE"
);
}
);
};
layerId = UUID0;
paths = (
{
closed = 1;
nodes = (
"260 -19 OFFCURVE",
"291 -18 OFFCURVE",
"326 -14 CURVE SMOOTH",
"362 -10 OFFCURVE",
"400 -3 OFFCURVE",
"440 8 CURVE SMOOTH",
"491 22 OFFCURVE",
"537 45 OFFCURVE",
"570 71 CURVE SMOOTH",
"603 98 OFFCURVE",
"624 129 OFFCURVE",
"624 160 CURVE SMOOTH",
"624 180 OFFCURVE",
"616 200 OFFCURVE",
"598 220 CURVE SMOOTH",
"578 239 OFFCURVE",
"550 258 OFFCURVE",
"509 275 CURVE",
"508 276 OFFCURVE",
"508 277 OFFCURVE",
"507 277 CURVE SMOOTH",
"507 278 OFFCURVE",
"506 278 OFFCURVE",
"506 278 CURVE",
"508 282 OFFCURVE",
"510 283 OFFCURVE",
"514 286 CURVE",
"521 290 OFFCURVE",
"530 294 OFFCURVE",
"539 297 CURVE",
"544 299 OFFCURVE",
"549 301 OFFCURVE",
"553 303 CURVE",
"590 326 OFFCURVE",
"608 359 OFFCURVE",
"608 405 CURVE SMOOTH",
"608 443 OFFCURVE",
"592 470 OFFCURVE",
"569 490 CURVE SMOOTH",
"545 509 OFFCURVE",
"513 520 OFFCURVE",
"480 528 CURVE SMOOTH",
"446 536 OFFCURVE",
"412 540 OFFCURVE",
"384 543 CURVE SMOOTH",
"334 550 OFFCURVE",
"280 556 OFFCURVE",
"230 556 CURVE SMOOTH",
"219 556 OFFCURVE",
"207 555 OFFCURVE",
"194 554 CURVE SMOOTH",
"182 554 OFFCURVE",
"168 553 OFFCURVE",
"154 552 CURVE SMOOTH",
"141 551 OFFCURVE",
"127 550 OFFCURVE",
"114 550 CURVE SMOOTH",
"102 550 OFFCURVE",
"90 549 OFFCURVE",
"81 549 CURVE SMOOTH",
"73 549 OFFCURVE",
"67 548 OFFCURVE",
"63 546 CURVE SMOOTH",
"55 541 OFFCURVE",
"52 534 OFFCURVE",
"51 525 CURVE",
"50 521 OFFCURVE",
"50 517 OFFCURVE",
"49 513 CURVE SMOOTH",
"46 500 OFFCURVE",
"46 487 OFFCURVE",
"46 472 CURVE SMOOTH",
"46 464 OFFCURVE",
"46 455 OFFCURVE",
"46 447 CURVE SMOOTH",
"46 438 OFFCURVE",
"46 429 OFFCURVE",
"46 420 CURVE SMOOTH",
"46 374 OFFCURVE",
"47 328 OFFCURVE",
"50 282 CURVE SMOOTH",
"51 235 OFFCURVE",
"53 189 OFFCURVE",
"53 143 CURVE SMOOTH",
"53 139 OFFCURVE",
"53 134 OFFCURVE",
"52 126 CURVE SMOOTH",
"52 118 OFFCURVE",
"52 110 OFFCURVE",
"51 102 CURVE SMOOTH",
"51 94 OFFCURVE",
"51 86 OFFCURVE",
"50 78 CURVE SMOOTH",
"50 69 OFFCURVE",
"50 62 OFFCURVE",
"50 58 CURVE SMOOTH",
"50 24 OFFCURVE",
"62 5 OFFCURVE",
"90 -6 CURVE SMOOTH",
"118 -17 OFFCURVE",
"165 -19 OFFCURVE",
"235 -19 CURVE SMOOTH"
);
},
{
closed = 1;
nodes = (
"314 123 OFFCURVE",
"310 123 OFFCURVE",
"310 129 CURVE SMOOTH",
"310 193 LINE SMOOTH",
"310 199 OFFCURVE",
"313 204 OFFCURVE",
"319 204 CURVE SMOOTH",
"346 204 OFFCURVE",
"367 203 OFFCURVE",
"388 202 CURVE SMOOTH",
"410 200 OFFCURVE",
"430 196 OFFCURVE",
"454 189 CURVE",
"453 188 OFFCURVE",
"451 187 OFFCURVE",
"450 186 CURVE SMOOTH",
"449 186 OFFCURVE",
"447 184 OFFCURVE",
"446 183 CURVE",
"404 164 OFFCURVE",
"362 145 OFFCURVE",
"319 124 CURVE",
"319 123 OFFCURVE",
"318 123 OFFCURVE",
"318 123 CURVE SMOOTH",
"318 123 OFFCURVE",
"317 123 OFFCURVE",
"317 123 CURVE SMOOTH"
);
},
{
closed = 1;
nodes = (
"322 354 OFFCURVE",
"324 357 OFFCURVE",
"324 362 CURVE SMOOTH",
"324 378 OFFCURVE",
"323 393 OFFCURVE",
"328 404 CURVE SMOOTH",
"332 415 OFFCURVE",
"341 422 OFFCURVE",
"358 422 CURVE SMOOTH",
"366 422 OFFCURVE",
"385 422 OFFCURVE",
"402 418 CURVE SMOOTH",
"418 416 OFFCURVE",
"432 410 OFFCURVE",
"432 400 CURVE SMOOTH",
"432 398 OFFCURVE",
"431 396 OFFCURVE",
"429 396 CURVE",
"426 395 OFFCURVE",
"424 394 OFFCURVE",
"422 394 CURVE",
"422 394 OFFCURVE",
"419 393 OFFCURVE",
"415 391 CURVE SMOOTH",
"406 387 OFFCURVE",
"394 381 OFFCURVE",
"378 374 CURVE SMOOTH",
"364 366 OFFCURVE",
"350 361 OFFCURVE",
"339 357 CURVE SMOOTH",
"334 354 OFFCURVE",
"331 354 OFFCURVE",
"330 354 CURVE SMOOTH"
);
}
);
width = 656;
}
);
leftKerningGroup = H;
rightKerningGroup = B;
unicode = 0042;
},
{
glyphname = C;
lastChange = "2016-07-08 08:24:15 +0000";
layers = (
{
anchors = (
{
name = bottom;
position = "{254, 0}";
},
{
name = top;
position = "{286, 541}";
}
);
background = {
paths = (
{
closed = 1;
nodes = (
"304 262 LINE",
"304 252 LINE",
"305 234 LINE",
"306 226 LINE",
"308 200 LINE",
"320 163 LINE",
"338 141 LINE",
"360 131 LINE",
"373 131 LINE",
"385 131 LINE",
"411 138 LINE",
"439 152 LINE",
"468 169 LINE",
"482 179 LINE",
"490 48 LINE",
"474 33 LINE",
"433 8 LINE",
"387 -10 LINE",
"342 -19 LINE",
"322 -19 LINE",
"300 -19 LINE",
"256 -17 LINE",
"213 -11 LINE",
"171 0 LINE",
"152 9 LINE",
"144 13 LINE",
"129 21 LINE",
"122 26 LINE",
"110 37 LINE",
"88 62 LINE",
"79 77 LINE",
"64 94 LINE",
"54 117 LINE",
"44 143 LINE",
"33 209 LINE",
"33 250 LINE",
"33 298 LINE",
"52 377 LINE",
"70 410 LINE",
"102 477 LINE",
"213 550 LINE",
"282 555 LINE",
"287 556 LINE",
"297 556 LINE",
"302 556 LINE",
"335 556 LINE",
"370 549 LINE",
"403 542 LINE",
"470 516 LINE",
"505 496 LINE",
"490 392 LINE",
"467 398 LINE",
"418 410 LINE",
"395 410 LINE",
"375 410 LINE",
"340 396 LINE",
"328 377 LINE",
"317 360 LINE",
"304 304 LINE"
);
}
);
};
layerId = UUID0;
paths = (
{
closed = 1;
nodes = (
"349 -19 OFFCURVE",
"380 -13 OFFCURVE",
"410 -1 CURVE SMOOTH",
"440 11 OFFCURVE",
"469 28 OFFCURVE",
"490 48 CURVE",
"482 179 LINE",
"464 166 OFFCURVE",
"444 154 OFFCURVE",
"426 146 CURVE SMOOTH",
"406 136 OFFCURVE",
"389 131 OFFCURVE",
"373 131 CURVE SMOOTH",
"355 131 OFFCURVE",
"341 138 OFFCURVE",
"329 152 CURVE SMOOTH",
"317 167 OFFCURVE",
"309 191 OFFCURVE",
"306 226 CURVE SMOOTH",
"304 237 OFFCURVE",
"304 249 OFFCURVE",
"304 262 CURVE SMOOTH",
"304 318 OFFCURVE",
"313 354 OFFCURVE",
"328 377 CURVE SMOOTH",
"345 402 OFFCURVE",
"369 410 OFFCURVE",
"395 410 CURVE SMOOTH",
"411 410 OFFCURVE",
"427 408 OFFCURVE",
"443 404 CURVE SMOOTH",
"459 400 OFFCURVE",
"475 396 OFFCURVE",
"490 392 CURVE",
"505 496 LINE",
"482 510 OFFCURVE",
"459 520 OFFCURVE",
"437 530 CURVE SMOOTH",
"392 546 OFFCURVE",
"346 556 OFFCURVE",
"302 556 CURVE SMOOTH",
"299 556 OFFCURVE",
"295 556 OFFCURVE",
"292 556 CURVE SMOOTH",
"289 556 OFFCURVE",
"286 555 OFFCURVE",
"282 555 CURVE",
"190 549 OFFCURVE",
"114 499 OFFCURVE",
"70 410 CURVE",
"46 366 OFFCURVE",
"33 314 OFFCURVE",
"33 250 CURVE SMOOTH",
"33 195 OFFCURVE",
"41 152 OFFCURVE",
"54 117 CURVE",
"61 102 OFFCURVE",
"69 88 OFFCURVE",
"79 77 CURVE",
"91 57 OFFCURVE",
"106 40 OFFCURVE",
"122 26 CURVE",
"131 19 OFFCURVE",
"142 14 OFFCURVE",
"152 9 CURVE SMOOTH",
"178 -3 OFFCURVE",
"206 -10 OFFCURVE",
"234 -14 CURVE SMOOTH",
"264 -18 OFFCURVE",
"293 -19 OFFCURVE",
"322 -19 CURVE SMOOTH"
);
}
);
width = 541;
}
);
leftKerningGroup = O;
rightKerningGroup = C;
unicode = 0043;
},
{
glyphname = D;
lastChange = "2016-07-08 08:24:15 +0000";
layers = (
{
anchors = (
{
name = bottom;
position = "{343, 0}";
},
{
name = center;
position = "{343, 270}";
},
{
name = top;
position = "{343, 541}";
}
);
background = {
paths = (
{
closed = 1;
nodes = (
"300 -1 LINE",
"274 -1 LINE",
"222 0 LINE",
"166 0 LINE",
"106 1 LINE",
"72 1 LINE",
"65 1 LINE",
"56 10 LINE",
"52 25 LINE",
"50 42 LINE",
"50 50 LINE",
"50 68 LINE",
"50 134 LINE",
"48 214 LINE",
"46 300 LINE",
"46 340 LINE",
"46 516 LINE",
"46 523 LINE",
"60 537 LINE",
"67 537 LINE",
"121 537 LINE",
"198 535 LINE",
"226 535 LINE",
"270 535 LINE",
"369 538 LINE",
"428 538 LINE",
"450 538 LINE",
"500 530 LINE",
"549 509 LINE",
"594 474 LINE",
"629 421 LINE",
"650 347 LINE",
"650 298 LINE",
"650 216 LINE",
"614 102 LINE",
"531 31 LINE",
"398 -1 LINE"
);
},
{
closed = 1;
nodes = (
"306 106 LINE",
"314 105 LINE",
"321 106 LINE",
"326 106 LINE",
"338 108 LINE",
"342 111 LINE",
"347 117 LINE",
"356 141 LINE",
"365 174 LINE",
"371 214 LINE",
"376 256 LINE",
"378 298 LINE",
"378 315 LINE",
"378 318 LINE",
"378 342 LINE",
"376 374 LINE",
"372 410 LINE",
"364 442 LINE",
"350 462 LINE",
"342 462 LINE",
"335 462 LINE",
"326 459 LINE",
"322 458 LINE",
"318 456 LINE",
"315 454 LINE",
"315 435 LINE",
"314 386 LINE",
"313 330 LINE",
"311 271 LINE",
"310 243 LINE"
);
}
);
};
layerId = UUID0;
paths = (
{
closed = 1;
nodes = (
"430 -1 OFFCURVE",
"517 19 OFFCURVE",
"572 66 CURVE SMOOTH",
"627 114 OFFCURVE",
"650 188 OFFCURVE",
"650 298 CURVE SMOOTH",
"650 363 OFFCURVE",
"634 412 OFFCURVE",
"611 448 CURVE SMOOTH",
"588 483 OFFCURVE",
"557 506 OFFCURVE",
"524 519 CURVE SMOOTH",
"491 533 OFFCURVE",
"458 538 OFFCURVE",
"428 538 CURVE SMOOTH",
"389 538 OFFCURVE",
"353 537 OFFCURVE",
"320 536 CURVE SMOOTH",
"286 535 OFFCURVE",
"256 535 OFFCURVE",
"226 535 CURVE SMOOTH",
"208 535 OFFCURVE",
"186 535 OFFCURVE",
"160 536 CURVE SMOOTH",
"134 536 OFFCURVE",
"103 537 OFFCURVE",
"67 537 CURVE SMOOTH",
"58 537 OFFCURVE",
"46 526 OFFCURVE",
"46 516 CURVE SMOOTH",
"46 340 LINE SMOOTH",
"46 286 OFFCURVE",
"47 226 OFFCURVE",
"49 174 CURVE SMOOTH",
"50 120 OFFCURVE",
"50 74 OFFCURVE",
"50 50 CURVE SMOOTH",
"50 39 OFFCURVE",
"51 27 OFFCURVE",
"54 18 CURVE",
"57 8 OFFCURVE",
"62 1 OFFCURVE",
"72 1 CURVE SMOOTH",
"118 1 OFFCURVE",
"158 0 OFFCURVE",
"194 0 CURVE SMOOTH",
"231 0 OFFCURVE",
"265 -1 OFFCURVE",
"300 -1 CURVE SMOOTH"
);
},
{
closed = 1;
nodes = (
"310 243 LINE SMOOTH",
"310 262 OFFCURVE",
"311 281 OFFCURVE",
"312 301 CURVE SMOOTH",
"313 320 OFFCURVE",
"314 339 OFFCURVE",
"314 358 CURVE SMOOTH",
"314 395 OFFCURVE",
"315 429 OFFCURVE",
"315 454 CURVE",
"317 455 OFFCURVE",
"319 456 OFFCURVE",
"322 458 CURVE SMOOTH",
"326 459 OFFCURVE",
"333 462 OFFCURVE",
"342 462 CURVE SMOOTH",
"348 462 OFFCURVE",
"353 458 OFFCURVE",
"358 451 CURVE SMOOTH",
"366 438 OFFCURVE",
"371 417 OFFCURVE",
"374 393 CURVE SMOOTH",
"377 368 OFFCURVE",
"378 346 OFFCURVE",
"378 330 CURVE SMOOTH",
"378 322 OFFCURVE",
"378 317 OFFCURVE",
"378 315 CURVE SMOOTH",
"378 291 OFFCURVE",
"377 263 OFFCURVE",
"374 235 CURVE SMOOTH",
"370 207 OFFCURVE",
"366 180 OFFCURVE",
"361 158 CURVE SMOOTH",
"355 135 OFFCURVE",
"349 118 OFFCURVE",
"342 111 CURVE SMOOTH",
"340 110 OFFCURVE",
"337 108 OFFCURVE",
"333 107 CURVE SMOOTH",
"325 106 OFFCURVE",
"317 105 OFFCURVE",
"306 106 CURVE"
);
}
);
width = 686;
}
);
leftKerningGroup = H;
rightKerningGroup = O;
unicode = 0044;
},
{
glyphname = Eth;
lastChange = "2016-07-08 08:24:15 +0000";
layers = (
{
background = {
paths = (
{
closed = 1;
nodes = (
"329 -1 LINE",
"305 -1 LINE",
"258 0 LINE",
"207 0 LINE",
"152 1 LINE",
"121 1 LINE",
"114 1 LINE",
"105 10 LINE",
"101 25 LINE",
"100 42 LINE",
"100 50 LINE",
"100 62 LINE",
"99 98 LINE",
"98 143 LINE",
"97 194 LINE",
"97 222 LINE",
"84 222 LINE",
"62 222 LINE",
"46 226 LINE",
"35 231 LINE",
"35 235 LINE",
"35 250 LINE",
"35 271 LINE",
"34 291 LINE",
"34 313 LINE",
"34 326 LINE",
"34 328 LINE",
"38 333 LINE",
"46 336 LINE",
"54 338 LINE",
"57 338 LINE",
"66 338 LINE",
"86 338 LINE",
"95 338 LINE",
"95 340 LINE",
"95 516 LINE",
"95 523 LINE",
"109 537 LINE",
"117 537 LINE",
"164 537 LINE",
"230 535 LINE",
"256 535 LINE",
"300 535 LINE",
"398 538 LINE",
"458 538 LINE",
"479 538 LINE",
"529 530 LINE",
"578 508 LINE",
"623 472 LINE",
"658 417 LINE",
"678 341 LINE",
"678 290 LINE",
"678 210 LINE",
"642 99 LINE",
"560 30 LINE",
"426 -1 LINE"
);
},
{
closed = 1;
nodes = (
"335 106 LINE",
"345 105 LINE",
"354 106 LINE",
"361 106 LINE",
"375 108 LINE",
"379 111 LINE",
"387 119 LINE",
"402 146 LINE",
"414 193 LINE",
"419 263 LINE",
"419 315 LINE",
"419 318 LINE",
"419 342 LINE",
"417 374 LINE",
"410 410 LINE",
"400 442 LINE",
"383 462 LINE",
"371 462 LINE",
"362 462 LINE",
"350 459 LINE",
"345 458 LINE",
"340 456 LINE",
"336 454 LINE",
"336 432 LINE",
"336 371 LINE",
"336 338 LINE",
"346 338 LINE",
"363 336 LINE",
"378 334 LINE",
"387 330 LINE",
"387 326 LINE",
"387 311 LINE",
"386 292 LINE",
"386 275 LINE",
"385 259 LINE",
"385 249 LINE",
"385 243 LINE",
"383 234 LINE",
"373 228 LINE",
"353 224 LINE",
"335 224 LINE",
"335 199 LINE",
"335 156 LINE",
"335 140 LINE"
);
}
);
};
layerId = UUID0;
paths = (
{
closed = 1;
nodes = (
"459 -1 OFFCURVE",
"546 18 OFFCURVE",
"602 65 CURVE SMOOTH",
"656 111 OFFCURVE",
"678 183 OFFCURVE",
"678 290 CURVE SMOOTH",
"678 358 OFFCURVE",
"664 408 OFFCURVE",
"641 445 CURVE SMOOTH",
"618 482 OFFCURVE",
"586 505 OFFCURVE",
"554 518 CURVE SMOOTH",
"521 533 OFFCURVE",
"486 538 OFFCURVE",
"458 538 CURVE SMOOTH",
"418 538 OFFCURVE",
"382 537 OFFCURVE",
"350 536 CURVE SMOOTH",
"316 535 OFFCURVE",
"285 535 OFFCURVE",
"256 535 CURVE SMOOTH",
"239 535 OFFCURVE",
"219 535 OFFCURVE",
"198 536 CURVE SMOOTH",
"175 536 OFFCURVE",
"148 537 OFFCURVE",
"117 537 CURVE SMOOTH",
"106 537 OFFCURVE",
"95 526 OFFCURVE",
"95 516 CURVE SMOOTH",
"95 340 LINE",
"95 338 LINE",
"89 338 OFFCURVE",
"82 338 OFFCURVE",
"76 338 CURVE SMOOTH",
"70 338 OFFCURVE",
"64 338 OFFCURVE",
"57 338 CURVE SMOOTH",
"52 338 OFFCURVE",
"46 337 OFFCURVE",
"42 334 CURVE",
"38 332 OFFCURVE",
"34 329 OFFCURVE",
"34 326 CURVE SMOOTH",
"34 308 OFFCURVE",
"34 295 OFFCURVE",
"35 282 CURVE SMOOTH",
"35 267 OFFCURVE",
"35 254 OFFCURVE",
"35 235 CURVE SMOOTH",
"35 230 OFFCURVE",
"42 226 OFFCURVE",
"54 224 CURVE SMOOTH",
"65 222 OFFCURVE",
"80 222 OFFCURVE",
"97 222 CURVE",
"97 203 OFFCURVE",
"98 186 OFFCURVE",
"98 169 CURVE SMOOTH",
"98 151 OFFCURVE",
"98 135 OFFCURVE",
"98 121 CURVE SMOOTH",
"99 106 OFFCURVE",
"99 92 OFFCURVE",
"99 80 CURVE SMOOTH",
"100 68 OFFCURVE",
"100 58 OFFCURVE",
"100 50 CURVE SMOOTH",
"100 39 OFFCURVE",
"100 27 OFFCURVE",
"103 18 CURVE",
"106 8 OFFCURVE",
"111 1 OFFCURVE",
"121 1 CURVE SMOOTH",
"163 1 OFFCURVE",
"199 0 OFFCURVE",
"233 0 CURVE SMOOTH",
"266 0 OFFCURVE",
"297 -1 OFFCURVE",
"329 -1 CURVE SMOOTH"
);
},
{
closed = 1;
nodes = (
"335 140 LINE SMOOTH",
"335 150 OFFCURVE",
"335 163 OFFCURVE",
"335 178 CURVE SMOOTH",
"335 192 OFFCURVE",
"335 207 OFFCURVE",
"335 224 CURVE",
"347 224 OFFCURVE",
"357 225 OFFCURVE",
"363 226 CURVE SMOOTH",
"370 227 OFFCURVE",
"374 229 OFFCURVE",
"378 231 CURVE",
"384 235 OFFCURVE",
"385 241 OFFCURVE",
"385 249 CURVE SMOOTH",
"385 256 OFFCURVE",
"385 262 OFFCURVE",
"385 267 CURVE SMOOTH",
"386 273 OFFCURVE",
"386 278 OFFCURVE",
"386 283 CURVE",
"386 294 OFFCURVE",
"387 306 OFFCURVE",
"387 326 CURVE SMOOTH",
"387 330 OFFCURVE",
"381 334 OFFCURVE",
"370 335 CURVE SMOOTH",
"361 337 OFFCURVE",
"349 338 OFFCURVE",
"336 338 CURVE",
"336 360 OFFCURVE",
"336 382 OFFCURVE",
"336 402 CURVE SMOOTH",
"336 422 OFFCURVE",
"336 439 OFFCURVE",
"336 454 CURVE",
"338 455 OFFCURVE",
"342 456 OFFCURVE",
"345 458 CURVE SMOOTH",
"350 459 OFFCURVE",
"359 462 OFFCURVE",
"371 462 CURVE SMOOTH",
"379 462 OFFCURVE",
"386 458 OFFCURVE",
"391 451 CURVE SMOOTH",
"402 438 OFFCURVE",
"410 417 OFFCURVE",
"414 393 CURVE SMOOTH",
"418 368 OFFCURVE",
"419 346 OFFCURVE",
"419 330 CURVE SMOOTH",
"419 322 OFFCURVE",
"419 317 OFFCURVE",
"419 315 CURVE SMOOTH",
"419 246 OFFCURVE",
"415 200 OFFCURVE",
"408 169 CURVE SMOOTH",
"400 138 OFFCURVE",
"390 122 OFFCURVE",
"379 111 CURVE",
"377 110 OFFCURVE",
"373 108 OFFCURVE",
"368 107 CURVE SMOOTH",
"358 106 OFFCURVE",
"348 105 OFFCURVE",
"335 106 CURVE"
);
}
);
width = 716;
}
);
leftKerningGroup = H;
rightKerningGroup = O;
unicode = 00D0;
},
{
glyphname = E;
lastChange = "2016-07-08 08:24:15 +0000";
layers = (
{
anchors = (
{
name = bottom;
position = "{278, 0}";
},
{
name = ogonek;
position = "{482, 8}";
},
{
name = top;
position = "{278, 541}";
},
{
name = topleft;
position = "{16, 541}";
}
);
background = {
paths = (
{
closed = 1;
nodes = (
"46 314 LINE",
"46 366 LINE",
"47 466 LINE",
"52 520 LINE",
"52 526 LINE",
"63 532 LINE",
"80 535 LINE",
"101 536 LINE",
"111 536 LINE",
"161 536 LINE",
"250 538 LINE",
"338 540 LINE",
"431 539 LINE",
"485 535 LINE",
"492 535 LINE",
"501 518 LINE",
"506 492 LINE",
"511 461 LINE",
"515 446 LINE",
"516 436 LINE",
"514 427 LINE",
"510 424 LINE",
"502 425 LINE",
"497 425 LINE",
"477 425 LINE",
"435 422 LINE",
"394 418 LINE",
"351 414 LINE",
"330 412 LINE",
"327 412 LINE",
"321 393 LINE",
"317 366 LINE",
"315 341 LINE",
"315 334 LINE",
"315 323 LINE",
"321 318 LINE",
"328 318 LINE",
"364 318 LINE",
"434 318 LINE",
"470 314 LINE",
"476 314 LINE",
"484 313 LINE",
"490 310 LINE",
"495 303 LINE",
"497 296 LINE",
"500 225 LINE",
"500 222 LINE",
"500 215 LINE",
"484 207 LINE",
"458 203 LINE",
"425 202 LINE",
"407 202 LINE",
"373 202 LINE",
"334 204 LINE",
"317 200 LINE",
"313 186 LINE",
"313 170 LINE",
"313 155 LINE",
"310 126 LINE",
"310 110 LINE",
"349 110 LINE",
"426 114 LINE",
"464 114 LINE",
"466 114 LINE",
"473 102 LINE",
"480 84 LINE",
"486 62 LINE",
"491 41 LINE",
"494 24 LINE",
"494 21 LINE",
"494 14 LINE",
"486 4 LINE",
"478 4 LINE",
"450 4 LINE",
"395 1 LINE",
"365 1 LINE",
"302 1 LINE",
"175 0 LINE",
"112 0 LINE",
"109 0 LINE",
"90 2 LINE",
"71 5 LINE",
"56 9 LINE",
"57 11 LINE",
"57 20 LINE",
"55 50 LINE",
"54 84 LINE",
"51 122 LINE",
"50 158 LINE",
"48 187 LINE",
"48 197 LINE",
"48 210 LINE",
"47 231 LINE",
"46 257 LINE",
"46 290 LINE"
);
}
);
};
layerId = UUID0;
paths = (
{
closed = 1;
nodes = (
"154 0 OFFCURVE",
"196 0 OFFCURVE",
"238 0 CURVE SMOOTH",
"281 1 OFFCURVE",
"323 1 OFFCURVE",
"365 1 CURVE SMOOTH",
"385 1 OFFCURVE",
"404 1 OFFCURVE",
"422 2 CURVE SMOOTH",
"440 3 OFFCURVE",
"459 4 OFFCURVE",
"478 4 CURVE SMOOTH",
"490 4 OFFCURVE",
"494 11 OFFCURVE",
"494 21 CURVE SMOOTH",
"494 23 OFFCURVE",
"494 27 OFFCURVE",
"493 33 CURVE SMOOTH",
"490 44 OFFCURVE",
"487 58 OFFCURVE",
"483 73 CURVE SMOOTH",
"478 88 OFFCURVE",
"474 101 OFFCURVE",
"470 109 CURVE",
"468 113 OFFCURVE",
"466 114 OFFCURVE",
"464 114 CURVE SMOOTH",
"438 114 OFFCURVE",
"414 114 OFFCURVE",
"387 112 CURVE SMOOTH",
"362 110 OFFCURVE",
"336 110 OFFCURVE",
"310 110 CURVE",
"310 121 OFFCURVE",
"310 131 OFFCURVE",
"311 141 CURVE SMOOTH",
"312 150 OFFCURVE",
"313 161 OFFCURVE",
"313 170 CURVE SMOOTH",
"313 190 OFFCURVE",
"314 199 OFFCURVE",
"326 202 CURVE",
"331 203 OFFCURVE",
"341 203 OFFCURVE",
"354 203 CURVE SMOOTH",
"366 202 OFFCURVE",
"384 202 OFFCURVE",
"407 202 CURVE SMOOTH",
"430 202 OFFCURVE",
"454 202 OFFCURVE",
"471 206 CURVE SMOOTH",
"489 208 OFFCURVE",
"500 213 OFFCURVE",
"500 222 CURVE SMOOTH",
"500 225 LINE",
"497 296 LINE",
"496 301 OFFCURVE",
"494 304 OFFCURVE",
"493 306 CURVE",
"490 311 OFFCURVE",
"486 313 OFFCURVE",
"480 314 CURVE",
"478 314 OFFCURVE",
"474 314 OFFCURVE",
"470 314 CURVE SMOOTH",
"446 317 OFFCURVE",
"422 318 OFFCURVE",
"399 318 CURVE SMOOTH",
"376 318 OFFCURVE",
"352 318 OFFCURVE",
"328 318 CURVE SMOOTH",
"318 318 OFFCURVE",
"315 320 OFFCURVE",
"315 334 CURVE SMOOTH",
"315 338 OFFCURVE",
"316 345 OFFCURVE",
"317 354 CURVE SMOOTH",
"318 370 OFFCURVE",
"320 390 OFFCURVE",
"324 402 CURVE SMOOTH",
"326 409 OFFCURVE",
"328 412 OFFCURVE",
"330 412 CURVE",
"344 413 OFFCURVE",
"358 414 OFFCURVE",
"372 416 CURVE SMOOTH",
"386 417 OFFCURVE",
"400 418 OFFCURVE",
"414 419 CURVE SMOOTH",
"442 422 OFFCURVE",
"470 425 OFFCURVE",
"497 425 CURVE SMOOTH",
"500 425 OFFCURVE",
"503 425 OFFCURVE",
"506 424 CURVE",
"510 424 OFFCURVE",
"514 426 OFFCURVE",
"515 432 CURVE",
"515 434 OFFCURVE",
"516 440 OFFCURVE",
"515 446 CURVE",
"513 456 OFFCURVE",
"510 466 OFFCURVE",
"509 476 CURVE",
"507 486 OFFCURVE",
"506 496 OFFCURVE",
"503 505 CURVE SMOOTH",
"500 522 OFFCURVE",
"494 535 OFFCURVE",
"485 535 CURVE",
"449 538 OFFCURVE",
"415 539 OFFCURVE",
"384 540 CURVE SMOOTH",
"322 541 OFFCURVE",
"265 539 OFFCURVE",
"206 538 CURVE SMOOTH",
"176 536 OFFCURVE",
"144 536 OFFCURVE",
"111 536 CURVE SMOOTH",
"98 536 OFFCURVE",
"83 536 OFFCURVE",
"71 534 CURVE SMOOTH",
"60 531 OFFCURVE",
"52 527 OFFCURVE",
"52 520 CURVE",
"46 448 OFFCURVE",
"46 382 OFFCURVE",
"46 314 CURVE SMOOTH",
"46 282 OFFCURVE",
"46 261 OFFCURVE",
"47 244 CURVE SMOOTH",
"48 227 OFFCURVE",
"48 214 OFFCURVE",
"48 197 CURVE SMOOTH",
"48 190 OFFCURVE",
"49 182 OFFCURVE",
"49 172 CURVE SMOOTH",
"50 152 OFFCURVE",
"50 128 OFFCURVE",
"52 103 CURVE SMOOTH",
"53 90 OFFCURVE",
"54 78 OFFCURVE",
"54 66 CURVE SMOOTH",
"56 43 OFFCURVE",
"57 22 OFFCURVE",
"57 11 CURVE",
"56 10 OFFCURVE",
"58 8 OFFCURVE",
"64 7 CURVE SMOOTH",
"69 6 OFFCURVE",
"74 5 OFFCURVE",
"81 3 CURVE SMOOTH",
"94 2 OFFCURVE",
"107 0 OFFCURVE",
"112 0 CURVE SMOOTH"
);
}
);
width = 554;
}
);
leftKerningGroup = H;
rightKerningGroup = E;
unicode = 0045;
},
{
glyphname = F;
lastChange = "2016-07-08 08:24:15 +0000";
layers = (
{
anchors = (
{
name = bottom;
position = "{265, 0}";
},
{
name = top;
position = "{265, 541}";
}
);
background = {
paths = (
{
closed = 1;
nodes = (
"46 524 LINE",
"46 528 LINE",
"50 532 LINE",
"54 533 LINE",
"58 532 LINE",
"59 532 LINE",
"87 532 LINE",
"178 536 LINE",
"234 536 LINE",
"234 536 LINE",
"250 535 LINE",
"266 535 LINE",
"280 535 LINE",
"281 535 LINE",
"299 535 LINE",
"337 534 LINE",
"378 534 LINE",
"423 533 LINE",
"450 533 LINE",
"455 533 LINE",
"464 530 LINE",
"470 530 LINE",
"478 530 LINE",
"481 533 LINE",
"491 533 LINE",
"500 514 LINE",
"502 483 LINE",
"500 443 LINE",
"500 422 LINE",
"500 417 LINE",
"491 413 LINE",
"478 411 LINE",
"465 411 LINE",
"460 411 LINE",
"424 411 LINE",
"415 411 LINE",
"405 410 LINE",
"396 409 LINE",
"385 408 LINE",
"375 408 LINE",
"369 408 LINE",
"358 408 LINE",
"356 409 LINE",
"354 408 LINE",
"350 406 LINE",
"350 406 LINE",
"350 403 LINE",
"347 392 LINE",
"346 372 LINE",
"344 342 LINE",
"344 320 LINE",
"344 320 LINE",
"342 315 LINE",
"346 311 LINE",
"362 311 LINE",
"442 311 LINE",
"450 311 LINE",
"461 306 LINE",
"466 293 LINE",
"466 268 LINE",
"466 250 LINE",
"466 226 LINE",
"466 198 LINE",
"465 182 LINE",
"459 178 LINE",
"454 178 LINE",
"450 178 LINE",
"434 176 LINE",
"415 175 LINE",
"396 174 LINE",
"390 174 LINE",
"383 174 LINE",
"378 174 LINE",
"372 172 LINE",
"366 171 LINE",
"359 170 LINE",
"353 170 LINE",
"342 170 LINE",
"334 169 LINE",
"326 165 LINE",
"322 159 LINE",
"322 130 LINE",
"322 80 LINE",
"320 40 LINE",
"316 11 LINE",
"313 4 LINE",
"304 4 LINE",
"282 2 LINE",
"261 2 LINE",
"246 1 LINE",
"242 0 LINE",
"238 2 LINE",
"235 2 LINE",
"233 4 LINE",
"231 4 LINE",
"230 4 LINE",
"226 2 LINE",
"225 1 LINE",
"158 1 LINE",
"158 0 LINE",
"136 -3 LINE",
"110 -6 LINE",
"86 -9 LINE",
"82 -9 LINE",
"72 -9 LINE",
"62 10 LINE",
"58 35 LINE",
"58 59 LINE",
"58 65 LINE",
"57 90 LINE",
"54 142 LINE",
"52 194 LINE",
"49 246 LINE",
"46 271 LINE"
);
}
);
};
layerId = UUID0;
paths = (
{
closed = 1;
nodes = (
"85 -9 OFFCURVE",
"90 -9 OFFCURVE",
"98 -8 CURVE SMOOTH",
"114 -6 OFFCURVE",
"133 -4 OFFCURVE",
"147 -2 CURVE SMOOTH",
"154 0 OFFCURVE",
"158 0 OFFCURVE",
"158 1 CURVE",
"225 1 LINE",
"226 2 OFFCURVE",
"230 4 OFFCURVE",
"231 4 CURVE SMOOTH",
"233 4 OFFCURVE",
"234 4 OFFCURVE",
"234 3 CURVE",
"235 3 OFFCURVE",
"236 2 OFFCURVE",
"237 2 CURVE",
"238 2 OFFCURVE",
"242 0 OFFCURVE",
"246 1 CURVE",
"246 1 OFFCURVE",
"249 1 OFFCURVE",
"254 1 CURVE SMOOTH",
"258 2 OFFCURVE",
"265 2 OFFCURVE",
"271 2 CURVE SMOOTH",
"285 3 OFFCURVE",
"301 4 OFFCURVE",
"313 4 CURVE",
"317 14 OFFCURVE",
"320 34 OFFCURVE",
"321 60 CURVE SMOOTH",
"322 86 OFFCURVE",
"322 121 OFFCURVE",
"322 159 CURVE",
"325 163 OFFCURVE",
"327 166 OFFCURVE",
"330 167 CURVE SMOOTH",
"335 170 OFFCURVE",
"341 170 OFFCURVE",
"348 170 CURVE",
"351 170 OFFCURVE",
"354 170 OFFCURVE",
"359 170 CURVE",
"367 171 OFFCURVE",
"371 172 OFFCURVE",
"374 173 CURVE SMOOTH",
"378 174 OFFCURVE",
"382 174 OFFCURVE",
"390 174 CURVE SMOOTH",
"394 174 OFFCURVE",
"399 174 OFFCURVE",
"406 174 CURVE SMOOTH",
"418 175 OFFCURVE",
"431 176 OFFCURVE",
"442 177 CURVE SMOOTH",
"448 178 OFFCURVE",
"452 178 OFFCURVE",
"454 178 CURVE SMOOTH",
"461 178 OFFCURVE",
"464 180 OFFCURVE",
"466 190 CURVE",
"466 195 OFFCURVE",
"466 202 OFFCURVE",
"466 212 CURVE SMOOTH",
"466 222 OFFCURVE",
"466 234 OFFCURVE",
"466 250 CURVE SMOOTH",
"466 274 OFFCURVE",
"466 290 OFFCURVE",
"463 300 CURVE SMOOTH",
"460 309 OFFCURVE",
"454 311 OFFCURVE",
"442 311 CURVE SMOOTH",
"362 311 LINE",
"346 311 LINE",
"344 314 OFFCURVE",
"343 316 OFFCURVE",
"343 318 CURVE SMOOTH",
"344 319 OFFCURVE",
"344 320 OFFCURVE",
"344 320 CURVE",
"344 334 OFFCURVE",
"344 346 OFFCURVE",
"345 357 CURVE SMOOTH",
"346 377 OFFCURVE",
"347 390 OFFCURVE",
"349 398 CURVE",
"349 402 OFFCURVE",
"350 404 OFFCURVE",
"350 406 CURVE",
"351 406 OFFCURVE",
"353 408 OFFCURVE",
"356 409 CURVE",
"358 408 OFFCURVE",
"367 408 OFFCURVE",
"375 408 CURVE SMOOTH",
"388 408 OFFCURVE",
"394 409 OFFCURVE",
"400 410 CURVE SMOOTH",
"406 410 OFFCURVE",
"413 411 OFFCURVE",
"424 411 CURVE SMOOTH",
"460 411 LINE SMOOTH",
"463 411 OFFCURVE",
"466 411 OFFCURVE",
"471 411 CURVE",
"476 411 OFFCURVE",
"481 411 OFFCURVE",
"485 412 CURVE",
"494 413 OFFCURVE",
"500 416 OFFCURVE",
"500 422 CURVE SMOOTH",
"500 436 OFFCURVE",
"500 450 OFFCURVE",
"501 463 CURVE SMOOTH",
"502 477 OFFCURVE",
"502 488 OFFCURVE",
"501 499 CURVE",
"500 519 OFFCURVE",
"495 533 OFFCURVE",
"481 533 CURVE",
"478 531 OFFCURVE",
"476 530 OFFCURVE",
"474 530 CURVE",
"470 530 OFFCURVE",
"466 530 OFFCURVE",
"460 532 CURVE SMOOTH",
"457 533 OFFCURVE",
"454 533 OFFCURVE",
"450 533 CURVE SMOOTH",
"432 533 OFFCURVE",
"416 533 OFFCURVE",
"401 534 CURVE SMOOTH",
"370 534 OFFCURVE",
"343 534 OFFCURVE",
"318 534 CURVE SMOOTH",
"305 535 OFFCURVE",
"293 535 OFFCURVE",
"281 535 CURVE SMOOTH",
"280 535 OFFCURVE",
"278 535 OFFCURVE",
"273 535 CURVE",
"268 535 OFFCURVE",
"263 535 OFFCURVE",
"258 535 CURVE SMOOTH",
"252 535 OFFCURVE",
"247 535 OFFCURVE",
"242 536 CURVE",
"237 536 OFFCURVE",
"234 536 OFFCURVE",
"234 536 CURVE SMOOTH",
"197 536 OFFCURVE",
"163 535 OFFCURVE",
"133 534 CURVE SMOOTH",
"102 533 OFFCURVE",
"78 532 OFFCURVE",
"59 532 CURVE SMOOTH",
"58 532 OFFCURVE",
"58 532 OFFCURVE",
"57 533 CURVE",
"55 533 OFFCURVE",
"54 533 OFFCURVE",
"52 533 CURVE SMOOTH",
"49 532 OFFCURVE",
"46 530 OFFCURVE",
"46 524 CURVE SMOOTH",
"46 271 LINE",
"48 254 OFFCURVE",
"50 238 OFFCURVE",
"50 220 CURVE SMOOTH",
"53 186 OFFCURVE",
"54 150 OFFCURVE",
"56 116 CURVE SMOOTH",
"56 98 OFFCURVE",
"57 82 OFFCURVE",
"58 65 CURVE",
"58 62 OFFCURVE",
"58 55 OFFCURVE",
"58 47 CURVE SMOOTH",
"58 39 OFFCURVE",
"59 31 OFFCURVE",
"61 22 CURVE SMOOTH",
"63 6 OFFCURVE",
"69 -9 OFFCURVE",
"82 -9 CURVE SMOOTH"
);
}
);
width = 530;
}
);
leftKerningGroup = H;
rightKerningGroup = F;
unicode = 0046;
},
{
glyphname = G;
lastChange = "2016-07-08 08:24:15 +0000";
layers = (
{
anchors = (
{
name = bottom;
position = "{331, 0}";
},
{
name = top;
position = "{331, 541}";
}
);
background = {
paths = (
{
closed = 1;
nodes = (
"622 114 LINE",
"622 95 LINE",
"622 59 LINE",
"620 30 LINE",
"618 7 LINE",
"615 2 LINE",
"608 2 LINE",
"592 2 LINE",
"584 1 LINE",
"575 0 LINE",
"566 0 LINE",
"564 0 LINE",
"558 0 LINE",
"556 1 LINE",
"554 2 LINE",
"554 2 LINE",
"552 2 LINE",
"550 1 LINE",
"550 0 LINE",
"470 0 LINE",
"470 0 LINE",
"462 0 LINE",
"453 0 LINE",
"444 -1 LINE",
"442 -1 LINE",
"439 -1 LINE",
"434 9 LINE",
"431 26 LINE",
"429 50 LINE",
"427 66 LINE",
"423 45 LINE",
"397 14 LINE",
"357 -7 LINE",
"306 -18 LINE",
"278 -18 LINE",
"250 -18 LINE",
"194 -5 LINE",
"139 23 LINE",
"91 68 LINE",
"55 131 LINE",
"34 214 LINE",
"34 266 LINE",
"34 336 LINE",
"83 444 LINE",
"171 518 LINE",
"290 556 LINE",
"359 556 LINE",
"410 556 LINE",
"517 530 LINE",
"570 504 LINE",
"539 368 LINE",
"525 372 LINE",
"493 381 LINE",
"460 389 LINE",
"428 394 LINE",
"413 394 LINE",
"390 394 LINE",
"350 382 LINE",
"322 353 LINE",
"305 302 LINE",
"305 262 LINE",
"305 227 LINE",
"315 180 LINE",
"334 151 LINE",
"359 139 LINE",
"374 139 LINE",
"385 139 LINE",
"410 145 LINE",
"422 150 LINE",
"421 179 LINE",
"419 234 LINE",
"419 261 LINE",
"419 275 LINE",
"419 290 LINE",
"424 295 LINE",
"434 294 LINE",
"444 294 LINE",
"529 294 LINE",
"559 294 LINE",
"596 295 LINE",
"617 292 LINE",
"624 282 LINE",
"624 270 LINE",
"624 266 LINE",
"625 261 LINE",
"625 251 LINE",
"625 234 LINE",
"625 219 LINE",
"625 138 LINE",
"625 137 LINE",
"624 130 LINE",
"622 121 LINE",
"622 114 LINE"
);
}
);
};
layerId = UUID0;
paths = (
{
closed = 1;
nodes = (
"315 -18 OFFCURVE",
"350 -11 OFFCURVE",
"377 3 CURVE SMOOTH",
"403 17 OFFCURVE",
"422 38 OFFCURVE",
"427 66 CURVE",
"428 56 OFFCURVE",
"429 47 OFFCURVE",
"430 38 CURVE SMOOTH",
"431 22 OFFCURVE",
"434 10 OFFCURVE",
"437 4 CURVE",
"438 1 OFFCURVE",
"441 -1 OFFCURVE",
"442 -1 CURVE SMOOTH",
"444 -1 OFFCURVE",
"446 -1 OFFCURVE",
"449 0 CURVE",
"451 0 OFFCURVE",
"454 0 OFFCURVE",
"458 0 CURVE SMOOTH",
"461 0 OFFCURVE",
"464 0 OFFCURVE",
"466 0 CURVE",
"469 0 OFFCURVE",
"470 0 OFFCURVE",
"470 0 CURVE SMOOTH",
"550 0 LINE",
"550 0 OFFCURVE",
"550 1 OFFCURVE",
"552 2 CURVE",
"554 2 LINE",
"554 2 OFFCURVE",
"555 2 OFFCURVE",
"556 1 CURVE",
"557 0 OFFCURVE",
"559 0 OFFCURVE",
"564 0 CURVE SMOOTH",
"566 0 LINE",
"572 0 OFFCURVE",
"578 1 OFFCURVE",
"584 1 CURVE SMOOTH",
"594 2 OFFCURVE",
"606 2 OFFCURVE",
"615 2 CURVE",
"618 9 OFFCURVE",
"620 24 OFFCURVE",
"621 44 CURVE SMOOTH",
"622 64 OFFCURVE",
"622 89 OFFCURVE",
"622 114 CURVE SMOOTH",
"622 114 OFFCURVE",
"622 115 OFFCURVE",
"622 118 CURVE",
"622 122 OFFCURVE",
"624 129 OFFCURVE",
"625 134 CURVE SMOOTH",
"625 135 OFFCURVE",
"625 137 OFFCURVE",
"625 138 CURVE SMOOTH",
"625 219 LINE SMOOTH",
"625 230 OFFCURVE",
"625 237 OFFCURVE",
"625 243 CURVE",
"625 249 OFFCURVE",
"625 253 OFFCURVE",
"625 256 CURVE SMOOTH",
"625 259 OFFCURVE",
"625 262 OFFCURVE",
"625 263 CURVE",
"624 266 OFFCURVE",
"624 267 OFFCURVE",
"624 270 CURVE SMOOTH",
"624 285 OFFCURVE",
"620 291 OFFCURVE",
"606 294 CURVE SMOOTH",
"600 295 OFFCURVE",
"590 295 OFFCURVE",
"578 295 CURVE SMOOTH",
"566 294 OFFCURVE",
"549 294 OFFCURVE",
"529 294 CURVE SMOOTH",
"444 294 LINE SMOOTH",
"438 294 OFFCURVE",
"433 294 OFFCURVE",
"430 295 CURVE",
"422 295 OFFCURVE",
"419 292 OFFCURVE",
"419 282 CURVE",
"419 278 OFFCURVE",
"419 270 OFFCURVE",
"419 261 CURVE SMOOTH",
"419 242 OFFCURVE",
"419 225 OFFCURVE",
"420 206 CURVE SMOOTH",
"421 188 OFFCURVE",
"422 170 OFFCURVE",
"422 150 CURVE",
"405 143 OFFCURVE",
"388 139 OFFCURVE",
"374 139 CURVE SMOOTH",
"354 139 OFFCURVE",
"337 147 OFFCURVE",
"325 166 CURVE SMOOTH",
"312 185 OFFCURVE",
"305 215 OFFCURVE",
"305 262 CURVE SMOOTH",
"305 315 OFFCURVE",
"317 348 OFFCURVE",
"336 367 CURVE SMOOTH",
"355 387 OFFCURVE",
"382 394 OFFCURVE",
"413 394 CURVE SMOOTH",
"422 394 OFFCURVE",
"434 393 OFFCURVE",
"444 391 CURVE SMOOTH",
"466 388 OFFCURVE",
"487 382 OFFCURVE",
"509 377 CURVE SMOOTH",
"519 374 OFFCURVE",
"530 370 OFFCURVE",
"539 368 CURVE",
"570 504 LINE",
"498 538 OFFCURVE",
"426 556 OFFCURVE",
"359 556 CURVE SMOOTH",
"267 556 OFFCURVE",
"186 530 OFFCURVE",
"127 481 CURVE SMOOTH",
"69 432 OFFCURVE",
"34 359 OFFCURVE",
"34 266 CURVE SMOOTH",
"34 197 OFFCURVE",
"50 142 OFFCURVE",
"74 100 CURVE SMOOTH",
"98 58 OFFCURVE",
"130 28 OFFCURVE",
"166 10 CURVE SMOOTH",
"202 -10 OFFCURVE",
"242 -18 OFFCURVE",
"278 -18 CURVE SMOOTH"
);
}
);
width = 662;
}
);
leftKerningGroup = O;
rightKerningGroup = G;
unicode = 0047;
},
{
glyphname = H;
lastChange = "2016-07-08 08:24:15 +0000";
layers = (
{
anchors = (
{
name = bottom;
position = "{372, 0}";
},
{
name = center;
position = "{372, 270}";
},
{
name = top;
position = "{372, 541}";
},
{
name = topleft;
position = "{16, 541}";
}
);
background = {
paths = (
{
closed = 1;
nodes = (
"414 373 LINE",
"414 403 LINE",
"415 427 LINE",
"416 438 LINE",
"416 458 LINE",
"417 475 LINE",
"417 486 LINE",
"417 487 LINE",
"417 502 LINE",
"418 519 LINE",
"424 529 LINE",
"439 532 LINE",
"454 532 LINE",
"459 532 LINE",
"492 533 LINE",
"535 534 LINE",
"585 534 LINE",
"629 535 LINE",
"661 536 LINE",
"666 536 LINE",
"674 536 LINE",
"688 534 LINE",
"697 528 LINE",
"700 516 LINE",
"700 505 LINE",
"700 481 LINE",
"699 440 LINE",
"697 402 LINE",
"695 362 LINE",
"695 338 LINE",
"695 334 LINE",
"698 326 LINE",
"698 322 LINE",
"678 18 LINE",
"678 16 LINE",
"675 10 LINE",
"670 4 LINE",
"663 0 LINE",
"660 0 LINE",
"440 0 LINE",
"437 0 LINE",
"433 7 LINE",
"430 19 LINE",
"428 34 LINE",
"427 42 LINE",
"418 190 LINE",
"406 190 LINE",
"388 190 LINE",
"366 192 LINE",
"348 193 LINE",
"334 193 LINE",
"329 193 LINE",
"327 183 LINE",
"327 179 LINE",
"327 134 LINE",
"327 73 LINE",
"326 33 LINE",
"322 11 LINE",
"315 1 LINE",
"306 -1 LINE",
"298 -1 LINE",
"254 -4 LINE",
"211 -5 LINE",
"194 -5 LINE",
"154 -5 LINE",
"118 -2 LINE",
"83 2 LINE",
"69 6 LINE",
"67 6 LINE",
"64 12 LINE",
"62 19 LINE",
"60 26 LINE",
"60 27 LINE",
"45 318 LINE",
"45 326 LINE",
"45 334 LINE",
"45 340 LINE",
"46 372 LINE",
"47 413 LINE",
"48 457 LINE",
"50 493 LINE",
"50 517 LINE",
"51 518 LINE",
"53 519 LINE",
"60 526 LINE",
"70 532 LINE",
"82 536 LINE",
"88 536 LINE",
"134 536 LINE",
"134 536 LINE",
"159 535 LINE",
"194 535 LINE",
"234 534 LINE",
"269 534 LINE",
"292 534 LINE",
"293 534 LINE",
"302 534 LINE",
"317 531 LINE",
"326 524 LINE",
"330 511 LINE",
"330 500 LINE",
"330 498 LINE",
"329 486 LINE",
"328 472 LINE",
"326 460 LINE",
"326 457 LINE",
"326 454 LINE",
"329 446 LINE",
"329 442 LINE",
"329 426 LINE",
"327 396 LINE",
"327 378 LINE",
"336 378 LINE",
"358 377 LINE",
"382 374 LINE",
"404 373 LINE"
);
}
);
};
layerId = UUID0;
paths = (
{
closed = 1;
nodes = (
"239 -4 OFFCURVE",
"268 -2 OFFCURVE",
"298 -1 CURVE",
"303 -1 OFFCURVE",
"307 0 OFFCURVE",
"310 0 CURVE SMOOTH",
"317 2 OFFCURVE",
"322 7 OFFCURVE",
"324 22 CURVE SMOOTH",
"325 30 OFFCURVE",
"326 39 OFFCURVE",
"326 53 CURVE SMOOTH",
"327 80 OFFCURVE",
"327 119 OFFCURVE",
"327 179 CURVE SMOOTH",
"327 184 OFFCURVE",
"327 193 OFFCURVE",
"334 193 CURVE SMOOTH",
"334 193 OFFCURVE",
"336 193 OFFCURVE",
"341 193 CURVE",
"350 193 OFFCURVE",
"363 192 OFFCURVE",
"378 191 CURVE SMOOTH",
"391 190 OFFCURVE",
"404 190 OFFCURVE",
"413 190 CURVE",
"417 190 OFFCURVE",
"418 190 OFFCURVE",
"418 190 CURVE",
"427 42 LINE SMOOTH",
"428 32 OFFCURVE",
"430 21 OFFCURVE",
"431 14 CURVE SMOOTH",
"434 5 OFFCURVE",
"436 0 OFFCURVE",
"440 0 CURVE SMOOTH",
"660 0 LINE SMOOTH",
"665 0 OFFCURVE",
"669 3 OFFCURVE",
"673 7 CURVE",
"676 11 OFFCURVE",
"678 15 OFFCURVE",
"678 18 CURVE",
"698 322 LINE",
"698 324 OFFCURVE",
"697 326 OFFCURVE",
"697 330 CURVE",
"696 332 OFFCURVE",
"695 334 OFFCURVE",
"695 338 CURVE SMOOTH",
"695 369 OFFCURVE",
"697 395 OFFCURVE",
"698 421 CURVE SMOOTH",
"699 447 OFFCURVE",
"700 473 OFFCURVE",
"700 505 CURVE SMOOTH",
"700 519 OFFCURVE",
"698 526 OFFCURVE",
"692 531 CURVE",
"686 535 OFFCURVE",
"678 536 OFFCURVE",
"666 536 CURVE SMOOTH",
"662 536 OFFCURVE",
"655 536 OFFCURVE",
"645 536 CURVE",
"634 535 OFFCURVE",
"621 535 OFFCURVE",
"606 535 CURVE SMOOTH",
"592 534 OFFCURVE",
"577 534 OFFCURVE",
"560 534 CURVE SMOOTH",
"544 534 OFFCURVE",
"528 534 OFFCURVE",
"514 534 CURVE SMOOTH",
"499 533 OFFCURVE",
"486 533 OFFCURVE",
"476 533 CURVE",
"465 532 OFFCURVE",
"458 532 OFFCURVE",
"454 532 CURVE SMOOTH",
"445 532 OFFCURVE",
"437 532 OFFCURVE",
"432 530 CURVE SMOOTH",
"427 530 OFFCURVE",
"423 527 OFFCURVE",
"421 524 CURVE",
"417 518 OFFCURVE",
"417 506 OFFCURVE",
"417 487 CURVE SMOOTH",
"417 486 OFFCURVE",
"417 484 OFFCURVE",
"417 481 CURVE",
"417 473 OFFCURVE",
"416 462 OFFCURVE",
"416 448 CURVE",
"416 442 OFFCURVE",
"416 434 OFFCURVE",
"415 427 CURVE SMOOTH",
"415 411 OFFCURVE",
"414 393 OFFCURVE",
"414 373 CURVE",
"407 373 OFFCURVE",
"400 373 OFFCURVE",
"393 374 CURVE",
"386 374 OFFCURVE",
"378 375 OFFCURVE",
"370 376 CURVE",
"362 376 OFFCURVE",
"355 377 OFFCURVE",
"348 378 CURVE",
"340 378 OFFCURVE",
"334 378 OFFCURVE",
"327 378 CURVE",
"327 390 OFFCURVE",
"328 401 OFFCURVE",
"328 411 CURVE SMOOTH",
"329 421 OFFCURVE",
"329 431 OFFCURVE",
"329 442 CURVE SMOOTH",
"329 444 OFFCURVE",
"329 447 OFFCURVE",
"328 450 CURVE SMOOTH",
"327 452 OFFCURVE",
"326 454 OFFCURVE",
"326 457 CURVE SMOOTH",
"326 458 OFFCURVE",
"327 462 OFFCURVE",
"327 466 CURVE SMOOTH",
"328 470 OFFCURVE",
"328 474 OFFCURVE",
"329 479 CURVE SMOOTH",
"329 483 OFFCURVE",
"330 488 OFFCURVE",
"330 492 CURVE SMOOTH",
"330 496 OFFCURVE",
"330 498 OFFCURVE",
"330 500 CURVE SMOOTH",
"330 514 OFFCURVE",
"327 523 OFFCURVE",
"321 528 CURVE SMOOTH",
"315 533 OFFCURVE",
"306 534 OFFCURVE",
"293 534 CURVE SMOOTH",
"293 534 OFFCURVE",
"288 534 OFFCURVE",
"281 534 CURVE",
"273 534 OFFCURVE",
"263 534 OFFCURVE",
"251 534 CURVE SMOOTH",
"240 534 OFFCURVE",
"227 534 OFFCURVE",
"214 534 CURVE SMOOTH",
"200 535 OFFCURVE",
"188 535 OFFCURVE",
"177 535 CURVE SMOOTH",
"165 535 OFFCURVE",
"155 535 OFFCURVE",
"147 536 CURVE",
"138 536 OFFCURVE",
"134 536 OFFCURVE",
"134 536 CURVE SMOOTH",
"88 536 LINE",
"79 536 OFFCURVE",
"71 534 OFFCURVE",
"65 529 CURVE SMOOTH",
"58 524 OFFCURVE",
"54 519 OFFCURVE",
"51 518 CURVE SMOOTH",
"51 517 OFFCURVE",
"50 513 OFFCURVE",
"50 505 CURVE SMOOTH",
"49 489 OFFCURVE",
"49 464 OFFCURVE",
"48 434 CURVE SMOOTH",
"47 420 OFFCURVE",
"47 406 OFFCURVE",
"46 393 CURVE SMOOTH",
"46 366 OFFCURVE",
"45 342 OFFCURVE",
"45 334 CURVE SMOOTH",
"45 326 LINE",
"45 318 LINE",
"60 27 LINE",
"60 26 OFFCURVE",
"61 21 OFFCURVE",
"62 16 CURVE SMOOTH",
"64 11 OFFCURVE",
"66 6 OFFCURVE",
"69 6 CURVE",
"88 1 OFFCURVE",
"111 -2 OFFCURVE",
"136 -3 CURVE SMOOTH",
"161 -5 OFFCURVE",
"187 -5 OFFCURVE",
"211 -5 CURVE SMOOTH"
);
}
);
width = 744;
}
);
leftKerningGroup = H;
rightKerningGroup = H;
unicode = 0048;
},
{
glyphname = Hbar;
lastChange = "2016-07-08 08:24:15 +0000";
layers = (
{
background = {
paths = (
{
closed = 1;
nodes = (
"14 415 LINE",
"2 418 LINE",
"2 422 LINE",
"2 430 LINE",
"1 443 LINE",
"1 455 LINE",
"0 467 LINE",
"0 476 LINE",
"0 478 LINE",
"8 481 LINE",
"21 483 LINE",
"34 486 LINE",
"42 486 LINE",
"49 486 LINE",
"50 497 LINE",
"50 505 LINE",
"50 517 LINE",
"51 518 LINE",
"53 519 LINE",
"60 526 LINE",
"70 532 LINE",
"82 536 LINE",
"88 536 LINE",
"134 536 LINE",
"134 536 LINE",
"159 535 LINE",
"194 535 LINE",
"234 534 LINE",
"269 534 LINE",
"292 534 LINE",
"293 534 LINE",
"302 534 LINE",
"317 531 LINE",
"326 524 LINE",
"330 511 LINE",
"330 500 LINE",
"330 498 LINE",
"330 492 LINE",
"329 489 LINE",
"329 485 LINE",
"354 485 LINE",
"384 485 LINE",
"417 485 LINE",
"417 486 LINE",
"417 487 LINE",
"417 502 LINE",
"418 519 LINE",
"424 529 LINE",
"439 532 LINE",
"454 532 LINE",
"459 532 LINE",
"492 533 LINE",
"535 534 LINE",
"585 534 LINE",
"629 535 LINE",
"661 536 LINE",
"666 536 LINE",
"674 536 LINE",
"688 534 LINE",
"697 528 LINE",
"700 516 LINE",
"700 505 LINE",
"700 494 LINE",
"700 483 LINE",
"706 482 LINE",
"712 482 LINE",
"726 481 LINE",
"746 477 LINE",
"746 474 LINE",
"746 467 LINE",
"747 460 LINE",
"747 455 LINE",
"749 451 LINE",
"749 446 LINE",
"750 438 LINE",
"750 433 LINE",
"750 429 LINE",
"749 421 LINE",
"740 414 LINE",
"722 410 LINE",
"707 410 LINE",
"697 410 LINE",
"697 396 LINE",
"696 382 LINE",
"695 362 LINE",
"695 338 LINE",
"695 334 LINE",
"698 326 LINE",
"698 322 LINE",
"678 18 LINE",
"678 16 LINE",
"675 10 LINE",
"670 4 LINE",
"663 0 LINE",
"660 0 LINE",
"440 0 LINE",
"437 0 LINE",
"433 7 LINE",
"430 19 LINE",
"428 34 LINE",
"427 42 LINE",
"418 190 LINE",
"418 190 LINE",
"406 190 LINE",
"388 190 LINE",
"366 192 LINE",
"348 193 LINE",
"334 193 LINE",
"334 193 LINE",
"329 193 LINE",
"327 183 LINE",
"327 179 LINE",
"327 134 LINE",
"327 73 LINE",
"326 33 LINE",
"322 11 LINE",
"315 1 LINE",
"306 -1 LINE",
"298 -1 LINE",
"254 -4 LINE",
"211 -5 LINE",
"194 -5 LINE",
"154 -5 LINE",
"118 -2 LINE",
"83 2 LINE",
"69 6 LINE",
"67 6 LINE",
"64 12 LINE",
"62 19 LINE",
"60 26 LINE",
"60 27 LINE",
"45 318 LINE",
"45 334 LINE",
"45 340 LINE",
"46 372 LINE",
"46 393 LINE",
"46 402 LINE",
"47 412 LINE",
"46 412 LINE",
"26 413 LINE"
);
},
{
closed = 1;
nodes = (
"414 373 LINE",
"414 394 LINE",
"414 411 LINE",
"391 412 LINE",
"371 412 LINE",
"350 412 LINE",
"335 412 LINE",
"328 412 LINE",
"328 411 LINE",
"327 396 LINE",
"327 378 LINE",
"336 378 LINE",
"358 377 LINE",
"382 374 LINE",
"404 373 LINE"
);
}
);
};
layerId = UUID0;
paths = (
{
closed = 1;
nodes = (
"239 -4 OFFCURVE",
"268 -2 OFFCURVE",
"298 -1 CURVE",
"303 -1 OFFCURVE",
"307 0 OFFCURVE",
"310 0 CURVE SMOOTH",
"317 2 OFFCURVE",
"322 7 OFFCURVE",
"324 22 CURVE SMOOTH",
"325 30 OFFCURVE",
"326 39 OFFCURVE",
"326 53 CURVE SMOOTH",
"327 80 OFFCURVE",
"327 119 OFFCURVE",
"327 179 CURVE SMOOTH",
"327 184 OFFCURVE",
"327 193 OFFCURVE",
"334 193 CURVE SMOOTH",
"334 193 OFFCURVE",
"336 193 OFFCURVE",
"341 193 CURVE",
"350 193 OFFCURVE",
"363 192 OFFCURVE",
"378 191 CURVE SMOOTH",
"391 190 OFFCURVE",
"404 190 OFFCURVE",
"413 190 CURVE",
"417 190 OFFCURVE",
"418 190 OFFCURVE",
"418 190 CURVE",
"427 42 LINE SMOOTH",
"428 32 OFFCURVE",
"430 21 OFFCURVE",
"431 14 CURVE SMOOTH",
"434 5 OFFCURVE",
"436 0 OFFCURVE",
"440 0 CURVE SMOOTH",
"660 0 LINE SMOOTH",
"665 0 OFFCURVE",
"669 3 OFFCURVE",
"673 7 CURVE",
"676 11 OFFCURVE",
"678 15 OFFCURVE",
"678 18 CURVE",
"698 322 LINE",
"698 324 OFFCURVE",
"697 326 OFFCURVE",
"697 330 CURVE",
"696 332 OFFCURVE",
"695 334 OFFCURVE",
"695 338 CURVE SMOOTH",
"695 354 OFFCURVE",
"696 368 OFFCURVE",
"696 382 CURVE SMOOTH",
"697 391 OFFCURVE",
"697 401 OFFCURVE",
"697 410 CURVE",
"707 410 LINE SMOOTH",
"727 410 OFFCURVE",
"738 414 OFFCURVE",
"744 418 CURVE",
"750 422 OFFCURVE",
"750 428 OFFCURVE",
"750 433 CURVE SMOOTH",
"750 437 OFFCURVE",
"750 440 OFFCURVE",
"750 442 CURVE SMOOTH",
"750 445 OFFCURVE",
"749 446 OFFCURVE",
"749 449 CURVE",
"749 450 OFFCURVE",
"749 452 OFFCURVE",
"748 453 CURVE SMOOTH",
"748 454 OFFCURVE",
"747 456 OFFCURVE",
"747 458 CURVE",
"747 459 OFFCURVE",
"747 462 OFFCURVE",
"746 464 CURVE SMOOTH",
"746 466 OFFCURVE",
"746 470 OFFCURVE",
"746 474 CURVE SMOOTH",
"746 476 OFFCURVE",
"742 478 OFFCURVE",
"736 479 CURVE SMOOTH",
"730 480 OFFCURVE",
"722 482 OFFCURVE",
"712 482 CURVE SMOOTH",
"708 482 OFFCURVE",
"704 482 OFFCURVE",
"700 483 CURVE",
"700 490 OFFCURVE",
"700 498 OFFCURVE",
"700 505 CURVE SMOOTH",
"700 519 OFFCURVE",
"698 526 OFFCURVE",
"692 531 CURVE",
"686 535 OFFCURVE",
"678 536 OFFCURVE",
"666 536 CURVE SMOOTH",
"662 536 OFFCURVE",
"655 536 OFFCURVE",
"645 536 CURVE",
"634 535 OFFCURVE",
"621 535 OFFCURVE",
"606 535 CURVE SMOOTH",
"592 534 OFFCURVE",
"577 534 OFFCURVE",
"560 534 CURVE SMOOTH",
"544 534 OFFCURVE",
"528 534 OFFCURVE",
"514 534 CURVE SMOOTH",
"499 533 OFFCURVE",
"486 533 OFFCURVE",
"476 533 CURVE",
"465 532 OFFCURVE",
"458 532 OFFCURVE",
"454 532 CURVE SMOOTH",
"445 532 OFFCURVE",
"437 532 OFFCURVE",
"432 530 CURVE SMOOTH",
"427 530 OFFCURVE",
"423 527 OFFCURVE",
"421 524 CURVE",
"417 518 OFFCURVE",
"417 506 OFFCURVE",
"417 487 CURVE SMOOTH",
"417 487 OFFCURVE",
"417 486 OFFCURVE",
"417 485 CURVE",
"395 485 OFFCURVE",
"374 485 OFFCURVE",
"354 485 CURVE SMOOTH",
"329 485 LINE",
"329 487 OFFCURVE",
"329 490 OFFCURVE",
"330 492 CURVE",
"330 496 OFFCURVE",
"330 498 OFFCURVE",
"330 500 CURVE SMOOTH",
"330 514 OFFCURVE",
"327 523 OFFCURVE",
"321 528 CURVE SMOOTH",
"315 533 OFFCURVE",
"306 534 OFFCURVE",
"293 534 CURVE SMOOTH",
"293 534 OFFCURVE",
"288 534 OFFCURVE",
"281 534 CURVE",
"273 534 OFFCURVE",
"263 534 OFFCURVE",
"251 534 CURVE SMOOTH",
"240 534 OFFCURVE",
"227 534 OFFCURVE",
"214 534 CURVE SMOOTH",
"200 535 OFFCURVE",
"188 535 OFFCURVE",
"177 535 CURVE SMOOTH",
"165 535 OFFCURVE",
"155 535 OFFCURVE",
"147 536 CURVE",
"138 536 OFFCURVE",
"134 536 OFFCURVE",
"134 536 CURVE SMOOTH",
"88 536 LINE",
"79 536 OFFCURVE",
"71 534 OFFCURVE",
"65 529 CURVE SMOOTH",
"58 524 OFFCURVE",
"54 519 OFFCURVE",
"51 518 CURVE SMOOTH",
"50 517 OFFCURVE",
"50 500 OFFCURVE",
"49 486 CURVE",
"42 486 LINE SMOOTH",
"37 486 OFFCURVE",
"33 485 OFFCURVE",
"28 485 CURVE",
"18 483 OFFCURVE",
"10 482 OFFCURVE",
"4 479 CURVE",
"2 478 OFFCURVE",
"0 478 OFFCURVE",
"0 476 CURVE SMOOTH",
"0 470 OFFCURVE",
"0 466 OFFCURVE",
"1 462 CURVE SMOOTH",
"1 457 OFFCURVE",
"1 453 OFFCURVE",
"1 450 CURVE SMOOTH",
"1 446 OFFCURVE",
"1 442 OFFCURVE",
"2 437 CURVE",
"2 433 OFFCURVE",
"2 428 OFFCURVE",
"2 422 CURVE SMOOTH",
"2 419 OFFCURVE",
"6 417 OFFCURVE",
"14 415 CURVE",
"22 414 OFFCURVE",
"33 413 OFFCURVE",
"46 412 CURVE SMOOTH",
"47 412 LINE",
"46 406 OFFCURVE",
"46 399 OFFCURVE",
"46 393 CURVE SMOOTH",
"46 379 OFFCURVE",
"46 366 OFFCURVE",
"46 356 CURVE SMOOTH",
"45 346 OFFCURVE",
"45 338 OFFCURVE",
"45 334 CURVE SMOOTH",
"45 318 LINE",
"60 27 LINE",
"60 26 OFFCURVE",
"61 21 OFFCURVE",
"62 16 CURVE SMOOTH",
"64 11 OFFCURVE",
"66 6 OFFCURVE",
"69 6 CURVE",
"88 1 OFFCURVE",
"111 -2 OFFCURVE",
"136 -3 CURVE SMOOTH",
"161 -5 OFFCURVE",
"187 -5 OFFCURVE",
"211 -5 CURVE SMOOTH"
);
},
{
closed = 1;
nodes = (
"407 373 OFFCURVE",
"400 373 OFFCURVE",
"393 374 CURVE",
"386 374 OFFCURVE",
"378 375 OFFCURVE",
"370 376 CURVE",
"362 376 OFFCURVE",
"355 377 OFFCURVE",
"348 378 CURVE",
"340 378 OFFCURVE",
"334 378 OFFCURVE",
"327 378 CURVE",
"327 390 OFFCURVE",
"328 401 OFFCURVE",
"328 411 CURVE",
"328 412 LINE",
"335 412 LINE SMOOTH",
"346 412 OFFCURVE",
"358 412 OFFCURVE",
"371 412 CURVE SMOOTH",
"385 412 OFFCURVE",
"399 412 OFFCURVE",
"414 411 CURVE",
"414 399 OFFCURVE",
"414 386 OFFCURVE",
"414 373 CURVE"
);
}
);
width = 744;
}
);
leftKerningGroup = H;
rightKerningGroup = H;
unicode = 0126;
},
{
glyphname = I;
lastChange = "2016-07-08 08:24:15 +0000";
layers = (
{
anchors = (
{
name = bottom;
position = "{192, 0}";
},
{
name = ogonek;
position = "{282, 8}";
},
{
name = top;
position = "{192, 541}";
},
{
name = topleft;
position = "{16, 541}";
}
);
background = {
paths = (
{
closed = 1;
nodes = (
"334 159 LINE",
"334 133 LINE",
"334 83 LINE",
"332 42 LINE",
"329 11 LINE",
"325 4 LINE",
"316 4 LINE",
"294 2 LINE",
"273 2 LINE",
"259 1 LINE",
"258 1 LINE",
"256 1 LINE",
"251 1 LINE",
"246 4 LINE",
"243 4 LINE",
"242 3 LINE",
"240 2 LINE",
"237 1 LINE",
"163 1 LINE",
"162 0 LINE",
"136 0 LINE",
"104 0 LINE",
"75 -1 LINE",
"70 -1 LINE",
"64 -1 LINE",
"55 8 LINE",
"50 22 LINE",
"48 39 LINE",
"47 55 LINE",
"47 69 LINE",
"47 73 LINE",
"48 121 LINE",
"48 222 LINE",
"50 271 LINE",
"50 524 LINE",
"50 530 LINE",
"58 532 LINE",
"64 532 LINE",
"104 532 LINE",
"183 533 LINE",
"223 533 LINE",
"227 533 LINE",
"234 534 LINE",
"249 536 LINE",
"271 535 LINE",
"289 533 LINE",
"293 530 LINE",
"298 532 LINE",
"302 533 LINE",
"313 533 LINE",
"327 530 LINE",
"336 518 LINE",
"339 494 LINE",
"339 473 LINE",
"339 317 LINE",
"338 294 LINE",
"338 258 LINE",
"336 218 LINE",
"335 184 LINE",
"334 160 LINE"
);
}
);
};
layerId = UUID0;
paths = (
{
closed = 1;
nodes = (
"74 -1 OFFCURVE",
"80 -1 OFFCURVE",
"90 0 CURVE",
"100 0 OFFCURVE",
"110 0 OFFCURVE",
"120 0 CURVE",
"131 0 OFFCURVE",
"141 0 OFFCURVE",
"150 0 CURVE",
"158 0 OFFCURVE",
"162 0 OFFCURVE",
"163 1 CURVE",
"237 1 LINE",
"237 1 OFFCURVE",
"242 3 OFFCURVE",
"243 4 CURVE",
"246 4 OFFCURVE",
"247 3 OFFCURVE",
"250 2 CURVE",
"250 1 OFFCURVE",
"253 1 OFFCURVE",
"256 1 CURVE SMOOTH",
"258 1 LINE SMOOTH",
"259 1 OFFCURVE",
"262 1 OFFCURVE",
"266 1 CURVE SMOOTH",
"270 2 OFFCURVE",
"277 2 OFFCURVE",
"283 2 CURVE SMOOTH",
"297 3 OFFCURVE",
"313 4 OFFCURVE",
"325 4 CURVE",
"327 9 OFFCURVE",
"330 16 OFFCURVE",
"330 26 CURVE SMOOTH",
"333 46 OFFCURVE",
"334 75 OFFCURVE",
"334 108 CURVE SMOOTH",
"334 125 OFFCURVE",
"334 142 OFFCURVE",
"334 159 CURVE SMOOTH",
"334 160 OFFCURVE",
"334 164 OFFCURVE",
"335 172 CURVE SMOOTH",
"335 180 OFFCURVE",
"335 190 OFFCURVE",
"336 202 CURVE SMOOTH",
"336 213 OFFCURVE",
"337 226 OFFCURVE",
"337 238 CURVE SMOOTH",
"338 252 OFFCURVE",
"338 265 OFFCURVE",
"338 276 CURVE SMOOTH",
"338 287 OFFCURVE",
"338 298 OFFCURVE",
"339 305 CURVE SMOOTH",
"339 313 OFFCURVE",
"339 317 OFFCURVE",
"339 317 CURVE SMOOTH",
"339 473 LINE SMOOTH",
"339 487 OFFCURVE",
"339 498 OFFCURVE",
"338 506 CURVE SMOOTH",
"337 514 OFFCURVE",
"334 520 OFFCURVE",
"332 524 CURVE",
"326 532 OFFCURVE",
"317 533 OFFCURVE",
"302 533 CURVE",
"300 532 OFFCURVE",
"298 531 OFFCURVE",
"296 531 CURVE",
"294 530 OFFCURVE",
"291 531 OFFCURVE",
"289 533 CURVE",
"278 534 OFFCURVE",
"267 535 OFFCURVE",
"260 535 CURVE SMOOTH",
"245 536 OFFCURVE",
"236 535 OFFCURVE",
"231 534 CURVE",
"228 534 OFFCURVE",
"226 533 OFFCURVE",
"223 533 CURVE SMOOTH",
"197 533 OFFCURVE",
"170 533 OFFCURVE",
"143 533 CURVE SMOOTH",
"117 532 OFFCURVE",
"90 532 OFFCURVE",
"64 532 CURVE SMOOTH",
"57 532 OFFCURVE",
"50 533 OFFCURVE",
"50 524 CURVE SMOOTH",
"50 271 LINE",
"49 238 OFFCURVE",
"48 206 OFFCURVE",
"48 172 CURVE SMOOTH",
"48 138 OFFCURVE",
"47 105 OFFCURVE",
"47 73 CURVE SMOOTH",
"47 70 OFFCURVE",
"47 66 OFFCURVE",
"47 62 CURVE SMOOTH",
"47 58 OFFCURVE",
"47 53 OFFCURVE",
"48 47 CURVE SMOOTH",
"49 36 OFFCURVE",
"50 25 OFFCURVE",
"53 15 CURVE",
"56 6 OFFCURVE",
"62 -1 OFFCURVE",
"70 -1 CURVE SMOOTH"
);
}
);
width = 384;
}
);
leftKerningGroup = H;
rightKerningGroup = H;
unicode = 0049;
},
{
glyphname = IJ;
lastChange = "2016-07-08 08:24:27 +0000";
layers = (
{
anchors = (
{
name = bottom;
position = "{499, 0}";
},
{
name = ogonek;
position = "{282, 174}";
},
{
name = top;
position = "{493, 541}";
},
{
name = topleft;
position = "{16, 548}";
}
);
layerId = UUID0;
paths = (
{
closed = 1;
nodes = (
"458 -24 OFFCURVE",
"482 -22 OFFCURVE",
"507 -19 CURVE SMOOTH",
"526 -17 OFFCURVE",
"544 -12 OFFCURVE",
"563 -6 CURVE SMOOTH",
"595 5 OFFCURVE",
"634 22 OFFCURVE",
"667 52 CURVE SMOOTH",
"692 75 OFFCURVE",
"705 105 OFFCURVE",
"712 138 CURVE SMOOTH",
"719 170 OFFCURVE",
"719 204 OFFCURVE",
"719 235 CURVE SMOOTH",
"719 235 OFFCURVE",
"719 238 OFFCURVE",
"720 242 CURVE",
"720 246 OFFCURVE",
"720 251 OFFCURVE",
"720 258 CURVE SMOOTH",
"720 263 OFFCURVE",
"720 270 OFFCURVE",
"721 277 CURVE SMOOTH",
"722 283 OFFCURVE",
"721 290 OFFCURVE",
"722 296 CURVE SMOOTH",
"722 302 OFFCURVE",
"722 306 OFFCURVE",
"722 310 CURVE",
"722 314 OFFCURVE",
"722 317 OFFCURVE",
"722 317 CURVE SMOOTH",
"722 473 LINE SMOOTH",
"722 487 OFFCURVE",
"722 498 OFFCURVE",
"721 506 CURVE SMOOTH",
"720 514 OFFCURVE",
"718 520 OFFCURVE",
"714 524 CURVE",
"709 532 OFFCURVE",
"699 533 OFFCURVE",
"685 533 CURVE SMOOTH",
"606 533 LINE SMOOTH",
"579 533 OFFCURVE",
"553 533 OFFCURVE",
"526 533 CURVE SMOOTH",
"500 533 OFFCURVE",
"473 532 OFFCURVE",
"446 532 CURVE SMOOTH",
"440 532 OFFCURVE",
"433 533 OFFCURVE",
"433 524 CURVE SMOOTH",
"434 359 LINE SMOOTH",
"434 349 OFFCURVE",
"434 338 OFFCURVE",
"434 325 CURVE SMOOTH",
"434 314 OFFCURVE",
"433 302 OFFCURVE",
"433 288 CURVE SMOOTH",
"433 274 OFFCURVE",
"433 258 OFFCURVE",
"432 242 CURVE SMOOTH",
"429 199 OFFCURVE",
"430 172 OFFCURVE",
"429 154 CURVE",
"427 150 OFFCURVE",
"426 145 OFFCURVE",
"424 138 CURVE",
"422 132 OFFCURVE",
"420 126 OFFCURVE",
"417 120 CURVE",
"410 107 OFFCURVE",
"400 97 OFFCURVE",
"370 97 CURVE SMOOTH",
"355 97 OFFCURVE",
"331 98 OFFCURVE",
"307 102 CURVE SMOOTH",
"284 105 OFFCURVE",
"259 111 OFFCURVE",
"226 121 CURVE",
"226 122 OFFCURVE",
"226 121 OFFCURVE",
"225 117 CURVE",
"224 114 OFFCURVE",
"222 110 OFFCURVE",
"222 105 CURVE",
"221 95 OFFCURVE",
"220 83 OFFCURVE",
"220 77 CURVE",
"219 71 OFFCURVE",
"218 66 OFFCURVE",
"218 60 CURVE",
"217 54 OFFCURVE",
"216 49 OFFCURVE",
"215 44 CURVE",
"214 34 OFFCURVE",
"212 25 OFFCURVE",
"214 22 CURVE",
"258 6 LINE",
"313 -13 OFFCURVE",
"373 -22 OFFCURVE",
"433 -23 CURVE SMOOTH"
);
},
{
closed = 1;
nodes = (
"74 167 OFFCURVE",
"80 167 OFFCURVE",
"90 168 CURVE",
"100 168 OFFCURVE",
"110 168 OFFCURVE",
"120 168 CURVE",
"131 168 OFFCURVE",
"141 168 OFFCURVE",
"150 168 CURVE",
"158 168 OFFCURVE",
"162 168 OFFCURVE",
"163 169 CURVE",
"237 169 LINE",
"237 169 OFFCURVE",
"242 170 OFFCURVE",
"243 171 CURVE",
"246 171 OFFCURVE",
"247 170 OFFCURVE",
"250 170 CURVE",
"250 169 OFFCURVE",
"253 169 OFFCURVE",
"256 169 CURVE SMOOTH",
"258 169 LINE SMOOTH",
"259 169 OFFCURVE",
"262 169 OFFCURVE",
"266 169 CURVE SMOOTH",
"270 169 OFFCURVE",
"277 169 OFFCURVE",
"283 170 CURVE SMOOTH",
"297 170 OFFCURVE",
"313 171 OFFCURVE",
"325 171 CURVE",
"327 174 OFFCURVE",
"330 179 OFFCURVE",
"330 187 CURVE SMOOTH",
"333 201 OFFCURVE",
"334 221 OFFCURVE",
"334 244 CURVE SMOOTH",
"334 256 OFFCURVE",
"334 268 OFFCURVE",
"334 280 CURVE SMOOTH",
"334 280 OFFCURVE",
"334 283 OFFCURVE",
"335 289 CURVE SMOOTH",
"335 295 OFFCURVE",
"335 301 OFFCURVE",
"336 310 CURVE SMOOTH",
"336 318 OFFCURVE",
"337 327 OFFCURVE",
"337 336 CURVE SMOOTH",
"338 345 OFFCURVE",
"338 354 OFFCURVE",
"338 362 CURVE SMOOTH",
"338 370 OFFCURVE",
"338 377 OFFCURVE",
"339 382 CURVE SMOOTH",
"339 388 OFFCURVE",
"339 391 OFFCURVE",
"339 391 CURVE SMOOTH",
"339 500 LINE SMOOTH",
"339 510 OFFCURVE",
"339 518 OFFCURVE",
"338 524 CURVE SMOOTH",
"337 530 OFFCURVE",
"334 533 OFFCURVE",
"332 536 CURVE",
"326 542 OFFCURVE",
"317 542 OFFCURVE",
"302 542 CURVE",
"300 542 OFFCURVE",
"298 541 OFFCURVE",
"296 541 CURVE",
"294 541 OFFCURVE",
"291 541 OFFCURVE",
"289 542 CURVE",
"278 544 OFFCURVE",
"267 544 OFFCURVE",
"260 544 CURVE SMOOTH",
"245 545 OFFCURVE",
"236 544 OFFCURVE",
"231 543 CURVE",
"228 543 OFFCURVE",
"226 542 OFFCURVE",
"223 542 CURVE SMOOTH",
"197 542 OFFCURVE",
"170 542 OFFCURVE",
"143 542 CURVE SMOOTH",
"117 542 OFFCURVE",
"90 542 OFFCURVE",
"64 542 CURVE SMOOTH",
"57 542 OFFCURVE",
"50 542 OFFCURVE",
"50 536 CURVE SMOOTH",
"50 359 LINE",
"49 336 OFFCURVE",
"48 312 OFFCURVE",
"48 289 CURVE SMOOTH",
"48 265 OFFCURVE",
"47 242 OFFCURVE",
"47 219 CURVE SMOOTH",
"47 217 OFFCURVE",
"47 215 OFFCURVE",
"47 212 CURVE SMOOTH",
"47 208 OFFCURVE",
"47 205 OFFCURVE",
"48 201 CURVE SMOOTH",
"49 193 OFFCURVE",
"50 185 OFFCURVE",
"53 179 CURVE",
"56 172 OFFCURVE",
"62 167 OFFCURVE",
"70 167 CURVE SMOOTH"
);
}
);
width = 761;
}
);
leftKerningGroup = H;
rightKerningGroup = J;
rightMetricsKey = J;
unicode = 0132;
},
{
glyphname = J;
lastChange = "2016-07-08 08:24:15 +0000";
layers = (
{
anchors = (
{
name = bottom;
position = "{262, 0}";
},
{
name = top;
position = "{256, 541}";
}
);
background = {
paths = (
{
closed = 1;
nodes = (
"430 52 LINE",
"406 30 LINE",
"350 2 LINE",
"326 -6 LINE",
"298 -15 LINE",
"270 -19 LINE",
"216 -26 LINE",
"105 -16 LINE",
"54 6 LINE",
"18 22 LINE",
"18 24 LINE",
"18 36 LINE",
"20 51 LINE",
"22 68 LINE",
"23 77 LINE",
"23 82 LINE",
"25 98 LINE",
"26 112 LINE",
"28 122 LINE",
"29 121 LINE",
"49 114 LINE",
"80 104 LINE",
"109 99 LINE",
"138 97 LINE",
"158 97 LINE",
"166 97 LINE",
"179 110 LINE",
"186 129 LINE",
"191 148 LINE",
"193 154 LINE",
"194 167 LINE",
"195 210 LINE",
"195 242 LINE",
"196 266 LINE",
"196 309 LINE",
"197 325 LINE",
"197 344 LINE",
"197 359 LINE",
"196 524 LINE",
"196 530 LINE",
"205 532 LINE",
"210 532 LINE",
"250 532 LINE",
"329 533 LINE",
"370 533 LINE",
"448 533 LINE",
"459 533 LINE",
"474 530 LINE",
"482 518 LINE",
"486 494 LINE",
"486 473 LINE",
"486 317 LINE",
"485 304 LINE",
"484 286 LINE",
"483 266 LINE",
"483 249 LINE",
"482 236 LINE",
"482 235 LINE",
"482 212 LINE",
"480 162 LINE",
"470 114 LINE",
"450 69 LINE"
);
}
);
};
layerId = UUID0;
paths = (
{
closed = 1;
nodes = (
"289 -17 OFFCURVE",
"307 -12 OFFCURVE",
"326 -6 CURVE SMOOTH",
"358 5 OFFCURVE",
"398 22 OFFCURVE",
"430 52 CURVE SMOOTH",
"455 75 OFFCURVE",
"468 105 OFFCURVE",
"475 138 CURVE SMOOTH",
"482 170 OFFCURVE",
"482 204 OFFCURVE",
"482 235 CURVE SMOOTH",
"482 235 OFFCURVE",
"482 238 OFFCURVE",
"483 242 CURVE",
"483 246 OFFCURVE",
"483 251 OFFCURVE",
"483 258 CURVE SMOOTH",
"483 263 OFFCURVE",
"483 270 OFFCURVE",
"484 277 CURVE SMOOTH",
"485 283 OFFCURVE",
"484 290 OFFCURVE",
"485 296 CURVE SMOOTH",
"486 302 OFFCURVE",
"485 306 OFFCURVE",
"486 310 CURVE",
"486 314 OFFCURVE",
"486 317 OFFCURVE",
"486 317 CURVE SMOOTH",
"486 473 LINE SMOOTH",
"486 487 OFFCURVE",
"485 498 OFFCURVE",
"484 506 CURVE SMOOTH",
"483 514 OFFCURVE",
"481 520 OFFCURVE",
"478 524 CURVE",
"472 532 OFFCURVE",
"462 533 OFFCURVE",
"448 533 CURVE SMOOTH",
"370 533 LINE SMOOTH",
"342 533 OFFCURVE",
"316 533 OFFCURVE",
"290 533 CURVE SMOOTH",
"263 533 OFFCURVE",
"236 532 OFFCURVE",
"210 532 CURVE SMOOTH",
"203 532 OFFCURVE",
"196 533 OFFCURVE",
"196 524 CURVE SMOOTH",
"197 359 LINE SMOOTH",
"197 349 OFFCURVE",
"197 338 OFFCURVE",
"197 325 CURVE SMOOTH",
"197 314 OFFCURVE",
"196 302 OFFCURVE",
"196 288 CURVE SMOOTH",
"196 274 OFFCURVE",
"196 258 OFFCURVE",
"195 242 CURVE SMOOTH",
"193 199 OFFCURVE",
"194 172 OFFCURVE",
"193 154 CURVE",
"191 150 OFFCURVE",
"190 145 OFFCURVE",
"189 138 CURVE",
"187 132 OFFCURVE",
"186 126 OFFCURVE",
"183 120 CURVE",
"178 107 OFFCURVE",
"170 97 OFFCURVE",
"158 97 CURVE SMOOTH",
"133 97 OFFCURVE",
"114 98 OFFCURVE",
"94 102 CURVE SMOOTH",
"75 105 OFFCURVE",
"55 111 OFFCURVE",
"29 121 CURVE",
"29 122 OFFCURVE",
"28 121 OFFCURVE",
"27 117 CURVE",
"26 114 OFFCURVE",
"26 110 OFFCURVE",
"26 105 CURVE",
"24 95 OFFCURVE",
"23 83 OFFCURVE",
"23 77 CURVE",
"22 71 OFFCURVE",
"22 66 OFFCURVE",
"22 60 CURVE",
"21 54 OFFCURVE",
"20 49 OFFCURVE",
"19 44 CURVE",
"18 34 OFFCURVE",
"17 25 OFFCURVE",
"18 22 CURVE",
"54 6 LINE",
"122 -22 OFFCURVE",
"198 -29 OFFCURVE",
"270 -19 CURVE SMOOTH"
);
}
);
width = 525;
}
);
leftKerningGroup = J;
rightKerningGroup = J;
unicode = 004A;
},
{
glyphname = K;
lastChange = "2016-07-08 08:24:15 +0000";
layers = (
{
anchors = (
{
name = bottom;
position = "{342, 0}";
},
{
name = top;
position = "{342, 541}";
}
);
background = {
paths = (
{
closed = 1;
nodes = (
"322 538 LINE",
"329 538 LINE",
"335 530 LINE",
"337 519 LINE",
"337 507 LINE",
"337 502 LINE",
"337 471 LINE",
"333 414 LINE",
"333 392 LINE",
"340 392 LINE",
"347 394 LINE",
"353 398 LINE",
"358 405 LINE",
"363 409 LINE",
"366 410 LINE",
"390 434 LINE",
"424 466 LINE",
"463 502 LINE",
"499 534 LINE",
"526 555 LINE",
"532 556 LINE",
"534 556 LINE",
"540 550 LINE",
"546 542 LINE",
"552 535 LINE",
"554 534 LINE",
"554 533 LINE",
"563 525 LINE",
"574 514 LINE",
"583 506 LINE",
"585 503 LINE",
"590 495 LINE",
"603 478 LINE",
"617 460 LINE",
"630 442 LINE",
"634 433 LINE",
"634 431 LINE",
"634 423 LINE",
"620 405 LINE",
"602 386 LINE",
"585 370 LINE",
"581 365 LINE",
"579 364 LINE",
"567 354 LINE",
"551 341 LINE",
"534 326 LINE",
"518 312 LINE",
"506 302 LINE",
"505 302 LINE",
"501 298 LINE",
"494 296 LINE",
"490 293 LINE",
"487 289 LINE",
"487 284 LINE",
"487 277 LINE",
"494 265 LINE",
"505 254 LINE",
"517 246 LINE",
"522 241 LINE",
"527 234 LINE",
"551 214 LINE",
"582 186 LINE",
"613 158 LINE",
"638 131 LINE",
"655 109 LINE",
"655 102 LINE",
"655 98 LINE",
"654 91 LINE",
"649 87 LINE",
"635 76 LINE",
"603 58 LINE",
"590 47 LINE",
"580 38 LINE",
"556 17 LINE",
"544 10 LINE",
"538 7 LINE",
"530 3 LINE",
"525 0 LINE",
"517 -5 LINE",
"510 -10 LINE",
"497 -17 LINE",
"477 -17 LINE",
"463 -10 LINE",
"454 -1 LINE",
"454 0 LINE",
"370 97 LINE",
"368 100 LINE",
"358 112 LINE",
"346 125 LINE",
"334 134 LINE",
"333 134 LINE",
"330 134 LINE",
"326 130 LINE",
"326 128 LINE",
"326 124 LINE",
"326 109 LINE",
"326 90 LINE",
"325 68 LINE",
"324 49 LINE",
"324 34 LINE",
"324 30 LINE",
"324 23 LINE",
"325 14 LINE",
"322 6 LINE",
"314 4 LINE",
"306 5 LINE",
"264 2 LINE",
"186 4 LINE",
"144 4 LINE",
"138 4 LINE",
"122 4 LINE",
"106 4 LINE",
"94 5 LINE",
"58 8 LINE",
"56 14 LINE",
"55 14 LINE",
"55 32 LINE",
"54 60 LINE",
"53 95 LINE",
"52 131 LINE",
"51 165 LINE",
"51 176 LINE",
"50 206 LINE",
"45 266 LINE",
"45 296 LINE",
"45 298 LINE",
"46 311 LINE",
"46 326 LINE",
"47 339 LINE",
"47 342 LINE",
"47 343 LINE",
"46 352 LINE",
"46 362 LINE",
"45 371 LINE",
"45 373 LINE",
"45 374 LINE",
"46 389 LINE",
"46 406 LINE",
"47 419 LINE",
"47 422 LINE",
"47 426 LINE",
"47 441 LINE",
"46 461 LINE",
"46 482 LINE",
"45 499 LINE",
"45 512 LINE",
"45 514 LINE",
"43 524 LINE",
"54 534 LINE",
"72 538 LINE",
"93 538 LINE",
"100 538 LINE",
"150 538 LINE",
"226 538 LINE",
"280 538 LINE",
"314 538 LINE"
);
}
);
};
layerId = UUID0;
paths = (
{
closed = 1;
nodes = (
"479 -18 OFFCURVE",
"493 -20 OFFCURVE",
"510 -10 CURVE SMOOTH",
"514 -6 OFFCURVE",
"518 -4 OFFCURVE",
"521 -2 CURVE",
"523 -1 OFFCURVE",
"526 1 OFFCURVE",
"528 2 CURVE SMOOTH",
"532 4 OFFCURVE",
"535 6 OFFCURVE",
"544 10 CURVE SMOOTH",
"552 15 OFFCURVE",
"560 21 OFFCURVE",
"568 28 CURVE SMOOTH",
"584 42 OFFCURVE",
"598 56 OFFCURVE",
"619 67 CURVE SMOOTH",
"630 73 OFFCURVE",
"640 80 OFFCURVE",
"649 87 CURVE",
"655 93 OFFCURVE",
"655 97 OFFCURVE",
"655 102 CURVE SMOOTH",
"655 106 OFFCURVE",
"652 113 OFFCURVE",
"647 120 CURVE SMOOTH",
"636 134 OFFCURVE",
"618 153 OFFCURVE",
"597 172 CURVE SMOOTH",
"576 191 OFFCURVE",
"555 210 OFFCURVE",
"539 224 CURVE SMOOTH",
"531 231 OFFCURVE",
"526 237 OFFCURVE",
"522 241 CURVE SMOOTH",
"518 244 OFFCURVE",
"515 247 OFFCURVE",
"511 250 CURVE",
"506 253 OFFCURVE",
"503 256 OFFCURVE",
"500 260 CURVE SMOOTH",
"493 266 OFFCURVE",
"487 274 OFFCURVE",
"487 284 CURVE SMOOTH",
"487 287 OFFCURVE",
"487 290 OFFCURVE",
"489 291 CURVE",
"490 294 OFFCURVE",
"494 295 OFFCURVE",
"498 298 CURVE",
"502 299 OFFCURVE",
"504 301 OFFCURVE",
"512 307 CURVE SMOOTH",
"516 310 OFFCURVE",
"521 314 OFFCURVE",
"526 318 CURVE",
"531 323 OFFCURVE",
"537 328 OFFCURVE",
"542 334 CURVE SMOOTH",
"554 344 OFFCURVE",
"566 353 OFFCURVE",
"574 359 CURVE SMOOTH",
"578 362 OFFCURVE",
"580 365 OFFCURVE",
"581 365 CURVE",
"583 368 OFFCURVE",
"588 373 OFFCURVE",
"594 378 CURVE SMOOTH",
"600 384 OFFCURVE",
"606 390 OFFCURVE",
"612 396 CURVE SMOOTH",
"623 408 OFFCURVE",
"634 421 OFFCURVE",
"634 431 CURVE SMOOTH",
"634 433 LINE",
"628 446 OFFCURVE",
"619 458 OFFCURVE",
"610 469 CURVE SMOOTH",
"601 481 OFFCURVE",
"591 492 OFFCURVE",
"585 503 CURVE",
"583 505 OFFCURVE",
"582 507 OFFCURVE",
"578 510 CURVE",
"575 513 OFFCURVE",
"572 516 OFFCURVE",
"569 519 CURVE SMOOTH",
"566 523 OFFCURVE",
"562 526 OFFCURVE",
"559 529 CURVE",
"556 532 OFFCURVE",
"554 534 OFFCURVE",
"554 534 CURVE",
"552 535 OFFCURVE",
"551 537 OFFCURVE",
"550 539 CURVE SMOOTH",
"547 542 OFFCURVE",
"545 544 OFFCURVE",
"543 546 CURVE",
"538 551 OFFCURVE",
"534 556 OFFCURVE",
"532 556 CURVE",
"529 555 OFFCURVE",
"522 551 OFFCURVE",
"513 545 CURVE SMOOTH",
"494 530 OFFCURVE",
"470 509 OFFCURVE",
"444 484 CURVE SMOOTH",
"417 459 OFFCURVE",
"394 438 OFFCURVE",
"378 422 CURVE SMOOTH",
"370 414 OFFCURVE",
"366 410 OFFCURVE",
"363 409 CURVE",
"360 406 OFFCURVE",
"358 403 OFFCURVE",
"356 402 CURVE SMOOTH",
"354 400 OFFCURVE",
"352 398 OFFCURVE",
"350 397 CURVE",
"346 394 OFFCURVE",
"342 392 OFFCURVE",
"333 392 CURVE",
"333 406 OFFCURVE",
"334 423 OFFCURVE",
"335 442 CURVE SMOOTH",
"336 462 OFFCURVE",
"337 482 OFFCURVE",
"337 502 CURVE",
"337 505 OFFCURVE",
"337 509 OFFCURVE",
"337 514 CURVE",
"337 518 OFFCURVE",
"337 522 OFFCURVE",
"336 525 CURVE",
"334 533 OFFCURVE",
"331 538 OFFCURVE",
"322 538 CURVE SMOOTH",
"316 538 OFFCURVE",
"308 538 OFFCURVE",
"297 538 CURVE",
"286 538 OFFCURVE",
"271 538 OFFCURVE",
"254 538 CURVE SMOOTH",
"235 538 OFFCURVE",
"214 538 OFFCURVE",
"189 538 CURVE SMOOTH",
"163 538 OFFCURVE",
"134 538 OFFCURVE",
"100 538 CURVE SMOOTH",
"95 538 OFFCURVE",
"89 538 OFFCURVE",
"82 538 CURVE SMOOTH",
"76 538 OFFCURVE",
"70 538 OFFCURVE",
"64 536 CURVE SMOOTH",
"52 534 OFFCURVE",
"43 528 OFFCURVE",
"45 514 CURVE",
"45 513 OFFCURVE",
"45 510 OFFCURVE",
"45 506 CURVE",
"45 502 OFFCURVE",
"45 496 OFFCURVE",
"46 490 CURVE SMOOTH",
"46 478 OFFCURVE",
"46 464 OFFCURVE",
"47 450 CURVE SMOOTH",
"47 444 OFFCURVE",
"47 438 OFFCURVE",
"47 434 CURVE",
"47 428 OFFCURVE",
"47 424 OFFCURVE",
"47 422 CURVE SMOOTH",
"47 418 OFFCURVE",
"47 408 OFFCURVE",
"46 398 CURVE SMOOTH",
"46 386 OFFCURVE",
"45 375 OFFCURVE",
"45 373 CURVE SMOOTH",
"45 371 OFFCURVE",
"46 364 OFFCURVE",
"46 358 CURVE SMOOTH",
"47 350 OFFCURVE",
"47 343 OFFCURVE",
"47 342 CURVE SMOOTH",
"47 338 OFFCURVE",
"47 329 OFFCURVE",
"46 318 CURVE SMOOTH",
"46 314 OFFCURVE",
"46 309 OFFCURVE",
"45 304 CURVE SMOOTH",
"45 300 OFFCURVE",
"45 298 OFFCURVE",
"45 296 CURVE SMOOTH",
"45 276 OFFCURVE",
"46 256 OFFCURVE",
"47 236 CURVE SMOOTH",
"49 216 OFFCURVE",
"50 196 OFFCURVE",
"51 176 CURVE",
"51 161 OFFCURVE",
"52 137 OFFCURVE",
"53 114 CURVE SMOOTH",
"53 101 OFFCURVE",
"53 90 OFFCURVE",
"54 78 CURVE SMOOTH",
"54 66 OFFCURVE",
"54 55 OFFCURVE",
"54 46 CURVE SMOOTH",
"55 37 OFFCURVE",
"55 30 OFFCURVE",
"55 23 CURVE",
"55 18 OFFCURVE",
"55 14 OFFCURVE",
"56 14 CURVE",
"58 8 LINE",
"94 5 LINE",
"94 5 OFFCURVE",
"97 5 OFFCURVE",
"100 5 CURVE",
"104 4 OFFCURVE",
"109 4 OFFCURVE",
"114 4 CURVE SMOOTH",
"119 4 OFFCURVE",
"125 4 OFFCURVE",
"130 4 CURVE",
"136 4 OFFCURVE",
"140 4 OFFCURVE",
"144 4 CURVE SMOOTH",
"171 4 OFFCURVE",
"199 3 OFFCURVE",
"225 3 CURVE SMOOTH",
"251 2 OFFCURVE",
"278 3 OFFCURVE",
"306 5 CURVE",
"311 4 OFFCURVE",
"315 4 OFFCURVE",
"318 6 CURVE",
"323 7 OFFCURVE",
"325 12 OFFCURVE",
"324 18 CURVE",
"324 22 OFFCURVE",
"324 26 OFFCURVE",
"324 30 CURVE SMOOTH",
"324 32 OFFCURVE",
"324 36 OFFCURVE",
"324 41 CURVE",
"324 46 OFFCURVE",
"324 51 OFFCURVE",
"325 58 CURVE",
"325 65 OFFCURVE",
"325 71 OFFCURVE",
"325 79 CURVE SMOOTH",
"326 86 OFFCURVE",
"326 93 OFFCURVE",
"326 99 CURVE",
"326 106 OFFCURVE",
"326 111 OFFCURVE",
"326 117 CURVE",
"326 122 OFFCURVE",
"326 126 OFFCURVE",
"326 128 CURVE SMOOTH",
"326 131 OFFCURVE",
"329 134 OFFCURVE",
"333 134 CURVE SMOOTH",
"334 134 OFFCURVE",
"337 133 OFFCURVE",
"340 130 CURVE",
"344 126 OFFCURVE",
"348 122 OFFCURVE",
"352 118 CURVE",
"360 110 OFFCURVE",
"367 100 OFFCURVE",
"370 97 CURVE",
"454 0 LINE",
"454 -1 OFFCURVE",
"456 -2 OFFCURVE",
"459 -6 CURVE",
"462 -9 OFFCURVE",
"466 -11 OFFCURVE",
"470 -14 CURVE"
);
}
);
width = 683;
}
);
leftKerningGroup = H;
rightKerningGroup = K;
unicode = 004B;
},
{
glyphname = L;
lastChange = "2016-07-08 08:24:15 +0000";
layers = (
{
anchors = (
{
name = bottom;
position = "{250, 0}";
},
{
name = center;
position = "{250, 270}";
},
{
name = top;
position = "{182, 541}";
},
{
name = topright;
position = "{364, 541}";
}
);
background = {
paths = (
{
closed = 1;
nodes = (
"48 198 LINE",
"48 235 LINE",
"47 316 LINE",
"48 391 LINE",
"50 455 LINE",
"51 477 LINE",
"51 485 LINE",
"51 506 LINE",
"55 524 LINE",
"64 538 LINE",
"73 538 LINE",
"107 538 LINE",
"156 537 LINE",
"197 536 LINE",
"235 535 LINE",
"259 535 LINE",
"273 535 LINE",
"294 534 LINE",
"309 528 LINE",
"317 511 LINE",
"317 494 LINE",
"317 494 LINE",
"315 482 LINE",
"314 470 LINE",
"312 459 LINE",
"312 458 LINE",
"312 455 LINE",
"314 442 LINE",
"315 429 LINE",
"317 418 LINE",
"317 387 LINE",
"317 332 LINE",
"317 280 LINE",
"317 230 LINE",
"317 205 LINE",
"317 199 LINE",
"317 192 LINE",
"320 188 LINE",
"327 186 LINE",
"334 186 LINE",
"362 186 LINE",
"424 187 LINE",
"458 187 LINE",
"467 187 LINE",
"478 177 LINE",
"478 171 LINE",
"478 18 LINE",
"478 16 LINE",
"477 10 LINE",
"466 4 LINE",
"444 0 LINE",
"422 0 LINE",
"306 0 LINE",
"272 0 LINE",
"214 0 LINE",
"159 1 LINE",
"102 2 LINE",
"68 2 LINE",
"65 2 LINE",
"58 6 LINE",
"51 11 LINE",
"48 18 LINE",
"48 22 LINE"
);
}
);
};
layerId = UUID0;
paths = (
{
closed = 1;
nodes = (
"422 0 LINE SMOOTH",
"437 0 OFFCURVE",
"448 1 OFFCURVE",
"455 2 CURVE SMOOTH",
"462 3 OFFCURVE",
"468 5 OFFCURVE",
"472 6 CURVE",
"479 10 OFFCURVE",
"478 15 OFFCURVE",
"478 18 CURVE SMOOTH",
"478 171 LINE SMOOTH",
"478 178 OFFCURVE",
"470 187 OFFCURVE",
"458 187 CURVE SMOOTH",
"435 187 OFFCURVE",
"414 187 OFFCURVE",
"393 186 CURVE SMOOTH",
"372 186 OFFCURVE",
"352 186 OFFCURVE",
"334 186 CURVE SMOOTH",
"330 186 OFFCURVE",
"326 186 OFFCURVE",
"324 187 CURVE",
"319 188 OFFCURVE",
"317 190 OFFCURVE",
"317 195 CURVE SMOOTH",
"317 198 OFFCURVE",
"317 201 OFFCURVE",
"317 205 CURVE SMOOTH",
"317 222 OFFCURVE",
"317 238 OFFCURVE",
"317 254 CURVE SMOOTH",
"317 271 OFFCURVE",
"317 288 OFFCURVE",
"317 306 CURVE SMOOTH",
"317 340 OFFCURVE",
"317 377 OFFCURVE",
"317 418 CURVE",
"317 418 OFFCURVE",
"317 420 OFFCURVE",
"316 423 CURVE SMOOTH",
"316 427 OFFCURVE",
"315 431 OFFCURVE",
"314 436 CURVE",
"313 445 OFFCURVE",
"312 454 OFFCURVE",
"312 458 CURVE SMOOTH",
"312 459 OFFCURVE",
"313 468 OFFCURVE",
"314 476 CURVE",
"315 481 OFFCURVE",
"316 484 OFFCURVE",
"316 488 CURVE SMOOTH",
"317 491 OFFCURVE",
"317 494 OFFCURVE",
"317 494 CURVE SMOOTH",
"317 517 OFFCURVE",
"311 526 OFFCURVE",
"302 531 CURVE SMOOTH",
"292 536 OFFCURVE",
"277 535 OFFCURVE",
"259 535 CURVE SMOOTH",
"243 535 OFFCURVE",
"229 535 OFFCURVE",
"216 535 CURVE SMOOTH",
"203 536 OFFCURVE",
"190 536 OFFCURVE",
"177 536 CURVE SMOOTH",
"150 537 OFFCURVE",
"118 538 OFFCURVE",
"73 538 CURVE SMOOTH",
"67 538 OFFCURVE",
"62 535 OFFCURVE",
"60 531 CURVE",
"54 522 OFFCURVE",
"51 509 OFFCURVE",
"51 495 CURVE SMOOTH",
"51 488 OFFCURVE",
"51 482 OFFCURVE",
"51 477 CURVE",
"50 462 OFFCURVE",
"49 445 OFFCURVE",
"49 423 CURVE SMOOTH",
"47 381 OFFCURVE",
"47 329 OFFCURVE",
"48 275 CURVE SMOOTH",
"48 249 OFFCURVE",
"48 223 OFFCURVE",
"48 198 CURVE SMOOTH",
"48 22 LINE SMOOTH",
"48 18 OFFCURVE",
"50 13 OFFCURVE",
"54 9 CURVE SMOOTH",
"58 5 OFFCURVE",
"64 2 OFFCURVE",
"68 2 CURVE SMOOTH",
"113 2 OFFCURVE",
"150 1 OFFCURVE",
"186 1 CURVE SMOOTH",
"224 0 OFFCURVE",
"261 0 OFFCURVE",
"306 0 CURVE SMOOTH"
);
}
);
width = 500;
}
);
leftKerningGroup = H;
rightKerningGroup = L;
unicode = 004C;
},
{
glyphname = Lslash;
lastChange = "2016-07-08 08:24:15 +0000";
layers = (
{
background = {
paths = (
{
closed = 1;
nodes = (
"81 198 LINE",
"81 212 LINE",
"71 210 LINE",
"56 207 LINE",
"44 210 LINE",
"37 217 LINE",
"37 225 LINE",
"37 242 LINE",
"37 270 LINE",
"36 297 LINE",
"36 324 LINE",
"36 342 LINE",
"36 346 LINE",
"40 354 LINE",
"46 362 LINE",
"54 367 LINE",
"57 368 LINE",
"63 370 LINE",
"74 373 LINE",
"80 374 LINE",
"81 406 LINE",
"82 458 LINE",
"84 477 LINE",
"84 485 LINE",
"84 506 LINE",
"88 524 LINE",
"97 538 LINE",
"106 538 LINE",
"140 538 LINE",
"189 537 LINE",
"230 536 LINE",
"268 535 LINE",
"292 535 LINE",
"306 535 LINE",
"327 534 LINE",
"342 528 LINE",
"350 511 LINE",
"350 494 LINE",
"350 494 LINE",
"348 482 LINE",
"346 470 LINE",
"345 459 LINE",
"345 458 LINE",
"345 456 LINE",
"345 451 LINE",
"346 449 LINE",
"361 451 LINE",
"387 456 LINE",
"403 460 LINE",
"411 462 LINE",
"428 466 LINE",
"442 465 LINE",
"452 458 LINE",
"452 451 LINE",
"452 434 LINE",
"451 410 LINE",
"450 389 LINE",
"450 369 LINE",
"450 357 LINE",
"450 346 LINE",
"448 330 LINE",
"440 317 LINE",
"423 306 LINE",
"409 302 LINE",
"406 302 LINE",
"403 300 LINE",
"401 299 LINE",
"397 297 LINE",
"396 297 LINE",
"356 286 LINE",
"350 285 LINE",
"350 205 LINE",
"350 199 LINE",
"350 192 LINE",
"353 188 LINE",
"360 186 LINE",
"366 186 LINE",
"394 186 LINE",
"457 187 LINE",
"491 187 LINE",
"500 187 LINE",
"511 177 LINE",
"511 171 LINE",
"511 18 LINE",
"511 16 LINE",
"510 10 LINE",
"499 4 LINE",
"477 0 LINE",
"455 0 LINE",
"338 0 LINE",
"305 0 LINE",
"247 0 LINE",
"192 1 LINE",
"134 2 LINE",
"101 2 LINE",
"98 2 LINE",
"90 6 LINE",
"84 11 LINE",
"81 18 LINE",
"81 22 LINE"
);
}
);
};
layerId = UUID0;
paths = (
{
closed = 1;
nodes = (
"455 0 LINE SMOOTH",
"470 0 OFFCURVE",
"481 1 OFFCURVE",
"488 2 CURVE SMOOTH",
"495 3 OFFCURVE",
"501 5 OFFCURVE",
"505 6 CURVE",
"512 10 OFFCURVE",
"511 15 OFFCURVE",
"511 18 CURVE SMOOTH",
"511 171 LINE SMOOTH",
"511 178 OFFCURVE",
"502 187 OFFCURVE",
"491 187 CURVE SMOOTH",
"468 187 OFFCURVE",
"446 187 OFFCURVE",
"426 186 CURVE SMOOTH",
"405 186 OFFCURVE",
"385 186 OFFCURVE",
"366 186 CURVE SMOOTH",
"362 186 OFFCURVE",
"358 186 OFFCURVE",
"357 187 CURVE",
"352 188 OFFCURVE",
"350 190 OFFCURVE",
"350 195 CURVE SMOOTH",
"350 198 OFFCURVE",
"350 201 OFFCURVE",
"350 205 CURVE SMOOTH",
"350 285 LINE",
"356 286 LINE",
"396 297 LINE",
"396 297 OFFCURVE",
"398 298 OFFCURVE",
"399 298 CURVE",
"400 298 OFFCURVE",
"402 299 OFFCURVE",
"403 300 CURVE",
"405 301 OFFCURVE",
"406 302 OFFCURVE",
"409 302 CURVE",
"428 307 OFFCURVE",
"438 314 OFFCURVE",
"444 323 CURVE SMOOTH",
"449 332 OFFCURVE",
"450 342 OFFCURVE",
"450 357 CURVE SMOOTH",
"450 365 OFFCURVE",
"450 372 OFFCURVE",
"450 379 CURVE SMOOTH",
"450 386 OFFCURVE",
"450 392 OFFCURVE",
"450 399 CURVE SMOOTH",
"451 413 OFFCURVE",
"452 428 OFFCURVE",
"452 451 CURVE SMOOTH",
"452 461 OFFCURVE",
"445 465 OFFCURVE",
"435 466 CURVE SMOOTH",
"426 466 OFFCURVE",
"414 463 OFFCURVE",
"403 460 CURVE SMOOTH",
"393 458 OFFCURVE",
"383 455 OFFCURVE",
"374 454 CURVE SMOOTH",
"366 452 OFFCURVE",
"355 450 OFFCURVE",
"346 449 CURVE",
"345 450 OFFCURVE",
"345 452 OFFCURVE",
"345 454 CURVE SMOOTH",
"345 455 OFFCURVE",
"345 457 OFFCURVE",
"345 458 CURVE SMOOTH",
"345 459 OFFCURVE",
"346 468 OFFCURVE",
"347 476 CURVE",
"348 481 OFFCURVE",
"349 484 OFFCURVE",
"349 488 CURVE SMOOTH",
"350 491 OFFCURVE",
"350 494 OFFCURVE",
"350 494 CURVE SMOOTH",
"350 517 OFFCURVE",
"344 526 OFFCURVE",
"334 531 CURVE SMOOTH",
"325 536 OFFCURVE",
"310 535 OFFCURVE",
"292 535 CURVE SMOOTH",
"276 535 OFFCURVE",
"262 535 OFFCURVE",
"249 535 CURVE SMOOTH",
"236 536 OFFCURVE",
"222 536 OFFCURVE",
"210 536 CURVE SMOOTH",
"182 537 OFFCURVE",
"151 538 OFFCURVE",
"106 538 CURVE SMOOTH",
"100 538 OFFCURVE",
"95 535 OFFCURVE",
"93 531 CURVE",
"86 522 OFFCURVE",
"84 509 OFFCURVE",
"84 495 CURVE SMOOTH",
"84 488 OFFCURVE",
"84 482 OFFCURVE",
"84 477 CURVE",
"82 452 OFFCURVE",
"81 417 OFFCURVE",
"80 374 CURVE",
"77 374 OFFCURVE",
"73 372 OFFCURVE",
"69 371 CURVE SMOOTH",
"65 370 OFFCURVE",
"61 369 OFFCURVE",
"57 368 CURVE",
"52 366 OFFCURVE",
"47 362 OFFCURVE",
"43 358 CURVE SMOOTH",
"38 352 OFFCURVE",
"36 346 OFFCURVE",
"36 342 CURVE SMOOTH",
"36 318 OFFCURVE",
"36 301 OFFCURVE",
"37 283 CURVE SMOOTH",
"37 266 OFFCURVE",
"37 249 OFFCURVE",
"37 225 CURVE SMOOTH",
"37 214 OFFCURVE",
"42 210 OFFCURVE",
"50 209 CURVE",
"58 207 OFFCURVE",
"68 209 OFFCURVE",
"81 212 CURVE",
"81 198 LINE",
"81 22 LINE SMOOTH",
"81 18 OFFCURVE",
"83 13 OFFCURVE",
"87 9 CURVE SMOOTH",
"91 5 OFFCURVE",
"97 2 OFFCURVE",
"101 2 CURVE SMOOTH",
"146 2 OFFCURVE",
"182 1 OFFCURVE",
"219 1 CURVE SMOOTH",
"257 0 OFFCURVE",
"294 0 OFFCURVE",
"338 0 CURVE SMOOTH"
);
}
);
width = 541;
}
);
leftKerningGroup = H;
rightKerningGroup = L;
unicode = 0141;
},
{
glyphname = M;
lastChange = "2016-07-08 08:24:15 +0000";
layers = (
{
anchors = (
{
name = bottom;
position = "{406, 0}";
},
{
name = top;
position = "{406, 541}";
}
);
background = {
paths = (
{
closed = 1;
nodes = (
"415 347 LINE",
"416 349 LINE",
"426 370 LINE",
"440 402 LINE",
"457 438 LINE",
"472 471 LINE",
"483 496 LINE",
"485 500 LINE",
"487 506 LINE",
"496 519 LINE",
"503 530 LINE",
"510 538 LINE",
"513 538 LINE",
"526 538 LINE",
"623 538 LINE",
"710 538 LINE",
"718 538 LINE",
"726 538 LINE",
"734 538 LINE",
"747 538 LINE",
"758 538 LINE",
"760 538 LINE",
"762 514 LINE",
"764 474 LINE",
"766 422 LINE",
"766 368 LINE",
"766 317 LINE",
"766 296 LINE",
"766 266 LINE",
"762 206 LINE",
"759 176 LINE",
"759 165 LINE",
"760 131 LINE",
"760 95 LINE",
"761 60 LINE",
"762 32 LINE",
"762 14 LINE",
"762 14 LINE",
"760 8 LINE",
"724 -1 LINE",
"723 -1 LINE",
"712 -1 LINE",
"696 -1 LINE",
"679 -2 LINE",
"674 -2 LINE",
"658 -2 LINE",
"628 0 LINE",
"599 1 LINE",
"569 3 LINE",
"553 5 LINE",
"552 5 LINE",
"546 4 LINE",
"544 4 LINE",
"541 4 LINE",
"537 21 LINE",
"534 49 LINE",
"534 86 LINE",
"533 129 LINE",
"532 172 LINE",
"532 192 LINE",
"532 194 LINE",
"529 198 LINE",
"526 198 LINE",
"523 198 LINE",
"517 182 LINE",
"508 161 LINE",
"500 137 LINE",
"497 130 LINE",
"496 128 LINE",
"490 114 LINE",
"480 95 LINE",
"468 74 LINE",
"453 57 LINE",
"437 45 LINE",
"428 45 LINE",
"423 45 LINE",
"408 45 LINE",
"391 46 LINE",
"374 46 LINE",
"366 46 LINE",
"344 82 LINE",
"315 138 LINE",
"298 178 LINE",
"290 198 LINE",
"288 198 LINE",
"285 198 LINE",
"282 194 LINE",
"282 192 LINE",
"282 175 LINE",
"282 134 LINE",
"282 92 LINE",
"280 52 LINE",
"278 22 LINE",
"273 4 LINE",
"270 4 LINE",
"267 4 LINE",
"262 5 LINE",
"261 5 LINE",
"229 2 LINE",
"171 -2 LINE",
"139 -2 LINE",
"134 -2 LINE",
"117 -1 LINE",
"102 -1 LINE",
"90 -1 LINE",
"54 8 LINE",
"51 14 LINE",
"50 14 LINE",
"50 32 LINE",
"49 60 LINE",
"48 95 LINE",
"47 131 LINE",
"46 165 LINE",
"46 176 LINE",
"47 218 LINE",
"50 298 LINE",
"50 342 LINE",
"50 343 LINE",
"50 352 LINE",
"49 362 LINE",
"48 371 LINE",
"48 373 LINE",
"48 385 LINE",
"50 404 LINE",
"50 424 LINE",
"52 448 LINE",
"52 464 LINE",
"52 466 LINE",
"51 478 LINE",
"50 493 LINE",
"50 505 LINE",
"50 507 LINE",
"50 508 LINE",
"48 512 LINE",
"48 513 LINE",
"48 522 LINE",
"62 532 LINE",
"80 537 LINE",
"98 538 LINE",
"103 538 LINE",
"190 538 LINE",
"287 538 LINE",
"301 538 LINE",
"302 538 LINE",
"310 530 LINE",
"318 519 LINE",
"326 506 LINE",
"329 500 LINE",
"330 496 LINE",
"340 470 LINE",
"353 438 LINE",
"367 401 LINE",
"380 370 LINE",
"389 348 LINE",
"390 347 LINE",
"396 334 LINE",
"402 334 LINE",
"406 334 LINE",
"414 342 LINE"
);
}
);
};
layerId = UUID0;
paths = (
{
closed = 1;
nodes = (
"182 -2 OFFCURVE",
"218 2 OFFCURVE",
"261 5 CURVE",
"261 5 OFFCURVE",
"262 5 OFFCURVE",
"265 4 CURVE SMOOTH",
"266 4 OFFCURVE",
"268 4 OFFCURVE",
"270 4 CURVE SMOOTH",
"272 4 OFFCURVE",
"274 7 OFFCURVE",
"275 14 CURVE SMOOTH",
"278 26 OFFCURVE",
"280 46 OFFCURVE",
"281 72 CURVE SMOOTH",
"282 98 OFFCURVE",
"282 126 OFFCURVE",
"282 154 CURVE SMOOTH",
"282 168 OFFCURVE",
"282 181 OFFCURVE",
"282 192 CURVE SMOOTH",
"282 195 OFFCURVE",
"283 198 OFFCURVE",
"288 198 CURVE SMOOTH",
"289 198 OFFCURVE",
"291 195 OFFCURVE",
"294 188 CURVE SMOOTH",
"297 182 OFFCURVE",
"301 171 OFFCURVE",
"306 158 CURVE SMOOTH",
"318 132 OFFCURVE",
"336 94 OFFCURVE",
"366 46 CURVE",
"371 46 OFFCURVE",
"377 46 OFFCURVE",
"382 46 CURVE",
"388 46 OFFCURVE",
"394 46 OFFCURVE",
"400 46 CURVE",
"406 45 OFFCURVE",
"411 45 OFFCURVE",
"416 45 CURVE SMOOTH",
"421 45 OFFCURVE",
"425 45 OFFCURVE",
"428 45 CURVE SMOOTH",
"434 45 OFFCURVE",
"439 47 OFFCURVE",
"445 50 CURVE SMOOTH",
"456 58 OFFCURVE",
"466 70 OFFCURVE",
"474 85 CURVE SMOOTH",
"482 99 OFFCURVE",
"489 112 OFFCURVE",
"493 121 CURVE SMOOTH",
"495 126 OFFCURVE",
"496 129 OFFCURVE",
"497 130 CURVE",
"499 134 OFFCURVE",
"501 141 OFFCURVE",
"504 149 CURVE SMOOTH",
"510 165 OFFCURVE",
"515 180 OFFCURVE",
"520 190 CURVE SMOOTH",
"522 196 OFFCURVE",
"524 198 OFFCURVE",
"526 198 CURVE SMOOTH",
"530 198 OFFCURVE",
"532 195 OFFCURVE",
"532 192 CURVE SMOOTH",
"532 178 OFFCURVE",
"532 165 OFFCURVE",
"533 150 CURVE SMOOTH",
"533 122 OFFCURVE",
"534 93 OFFCURVE",
"534 67 CURVE SMOOTH",
"534 42 OFFCURVE",
"536 23 OFFCURVE",
"539 13 CURVE",
"540 6 OFFCURVE",
"542 4 OFFCURVE",
"544 4 CURVE SMOOTH",
"546 4 OFFCURVE",
"547 4 OFFCURVE",
"550 4 CURVE SMOOTH",
"551 5 OFFCURVE",
"552 5 OFFCURVE",
"553 5 CURVE",
"563 4 OFFCURVE",
"574 3 OFFCURVE",
"584 2 CURVE SMOOTH",
"594 2 OFFCURVE",
"604 1 OFFCURVE",
"614 0 CURVE SMOOTH",
"634 -1 OFFCURVE",
"653 -2 OFFCURVE",
"674 -2 CURVE SMOOTH",
"678 -2 OFFCURVE",
"682 -2 OFFCURVE",
"688 -1 CURVE",
"694 -1 OFFCURVE",
"699 -1 OFFCURVE",
"704 -1 CURVE SMOOTH",
"709 -1 OFFCURVE",
"714 -1 OFFCURVE",
"718 -1 CURVE",
"722 -1 OFFCURVE",
"723 -1 OFFCURVE",
"724 -1 CURVE",
"760 8 LINE",
"762 14 LINE",
"762 14 OFFCURVE",
"762 18 OFFCURVE",
"762 23 CURVE",
"762 30 OFFCURVE",
"762 37 OFFCURVE",
"762 46 CURVE",
"761 55 OFFCURVE",
"761 66 OFFCURVE",
"761 78 CURVE SMOOTH",
"760 90 OFFCURVE",
"760 101 OFFCURVE",
"760 114 CURVE",
"760 126 OFFCURVE",
"760 137 OFFCURVE",
"759 148 CURVE SMOOTH",
"759 159 OFFCURVE",
"759 168 OFFCURVE",
"759 176 CURVE",
"762 215 OFFCURVE",
"766 257 OFFCURVE",
"766 296 CURVE SMOOTH",
"766 310 OFFCURVE",
"766 326 OFFCURVE",
"766 342 CURVE SMOOTH",
"766 377 OFFCURVE",
"766 414 OFFCURVE",
"765 448 CURVE SMOOTH",
"764 482 OFFCURVE",
"763 510 OFFCURVE",
"762 526 CURVE SMOOTH",
"761 534 OFFCURVE",
"759 538 OFFCURVE",
"758 538 CURVE SMOOTH",
"750 538 OFFCURVE",
"745 538 OFFCURVE",
"741 538 CURVE",
"737 538 OFFCURVE",
"734 538 OFFCURVE",
"730 538 CURVE SMOOTH",
"728 538 OFFCURVE",
"725 538 OFFCURVE",
"722 538 CURVE",
"719 538 OFFCURVE",
"715 538 OFFCURVE",
"710 538 CURVE SMOOTH",
"652 538 OFFCURVE",
"607 538 OFFCURVE",
"575 538 CURVE SMOOTH",
"542 538 OFFCURVE",
"522 538 OFFCURVE",
"513 538 CURVE SMOOTH",
"511 538 OFFCURVE",
"510 536 OFFCURVE",
"507 534 CURVE SMOOTH",
"505 532 OFFCURVE",
"502 529 OFFCURVE",
"500 525 CURVE",
"494 517 OFFCURVE",
"488 508 OFFCURVE",
"485 500 CURVE SMOOTH",
"483 498 OFFCURVE",
"482 492 OFFCURVE",
"478 483 CURVE",
"474 475 OFFCURVE",
"470 466 OFFCURVE",
"465 454 CURVE SMOOTH",
"454 433 OFFCURVE",
"442 406 OFFCURVE",
"433 386 CURVE SMOOTH",
"428 375 OFFCURVE",
"424 366 OFFCURVE",
"421 360 CURVE SMOOTH",
"417 352 OFFCURVE",
"416 349 OFFCURVE",
"415 347 CURVE",
"413 341 OFFCURVE",
"408 334 OFFCURVE",
"402 334 CURVE SMOOTH",
"398 334 OFFCURVE",
"394 338 OFFCURVE",
"390 347 CURVE",
"390 348 OFFCURVE",
"387 351 OFFCURVE",
"385 359 CURVE",
"382 366 OFFCURVE",
"378 374 OFFCURVE",
"374 385 CURVE SMOOTH",
"370 396 OFFCURVE",
"366 407 OFFCURVE",
"360 419 CURVE SMOOTH",
"350 444 OFFCURVE",
"342 466 OFFCURVE",
"335 483 CURVE SMOOTH",
"329 500 OFFCURVE",
"326 503 OFFCURVE",
"322 513 CURVE SMOOTH",
"317 522 OFFCURVE",
"311 530 OFFCURVE",
"306 534 CURVE SMOOTH",
"304 536 OFFCURVE",
"302 538 OFFCURVE",
"301 538 CURVE SMOOTH",
"292 538 OFFCURVE",
"271 538 OFFCURVE",
"238 538 CURVE SMOOTH",
"206 538 OFFCURVE",
"162 538 OFFCURVE",
"103 538 CURVE SMOOTH",
"97 538 OFFCURVE",
"83 538 OFFCURVE",
"70 534 CURVE SMOOTH",
"58 531 OFFCURVE",
"48 524 OFFCURVE",
"48 513 CURVE SMOOTH",
"48 511 OFFCURVE",
"50 508 OFFCURVE",
"50 507 CURVE",
"50 504 OFFCURVE",
"50 495 OFFCURVE",
"51 486 CURVE SMOOTH",
"51 476 OFFCURVE",
"52 467 OFFCURVE",
"52 464 CURVE SMOOTH",
"52 442 OFFCURVE",
"51 428 OFFCURVE",
"50 414 CURVE SMOOTH",
"49 400 OFFCURVE",
"48 389 OFFCURVE",
"48 373 CURVE SMOOTH",
"48 372 OFFCURVE",
"48 370 OFFCURVE",
"49 367 CURVE SMOOTH",
"49 364 OFFCURVE",
"49 361 OFFCURVE",
"50 358 CURVE SMOOTH",
"50 354 OFFCURVE",
"50 350 OFFCURVE",
"50 348 CURVE SMOOTH",
"50 345 OFFCURVE",
"50 342 OFFCURVE",
"50 342 CURVE SMOOTH",
"50 312 OFFCURVE",
"50 284 OFFCURVE",
"49 258 CURVE SMOOTH",
"48 231 OFFCURVE",
"46 204 OFFCURVE",
"46 176 CURVE",
"46 161 OFFCURVE",
"47 137 OFFCURVE",
"48 114 CURVE SMOOTH",
"48 101 OFFCURVE",
"48 90 OFFCURVE",
"49 78 CURVE SMOOTH",
"49 54 OFFCURVE",
"50 35 OFFCURVE",
"50 23 CURVE SMOOTH",
"50 18 OFFCURVE",
"50 14 OFFCURVE",
"51 14 CURVE",
"54 8 LINE",
"90 -1 LINE",
"90 -1 OFFCURVE",
"92 -1 OFFCURVE",
"96 -1 CURVE",
"100 -1 OFFCURVE",
"104 -1 OFFCURVE",
"110 -1 CURVE SMOOTH",
"114 -1 OFFCURVE",
"120 -1 OFFCURVE",
"126 -1 CURVE",
"131 -2 OFFCURVE",
"135 -2 OFFCURVE",
"139 -2 CURVE SMOOTH"
);
}
);
width = 812;
}
);
leftKerningGroup = M;
rightKerningGroup = M;
unicode = 004D;
},
{
glyphname = N;
lastChange = "2016-07-08 08:24:15 +0000";
layers = (
{
anchors = (
{
name = bottom;
position = "{350, 0}";
},
{
name = top;
position = "{350, 541}";
}
);
background = {
paths = (
{
closed = 1;
nodes = (
"650 179 LINE",
"650 134 LINE",
"650 73 LINE",
"649 33 LINE",
"645 11 LINE",
"638 1 LINE",
"628 -1 LINE",
"621 -1 LINE",
"593 0 LINE",
"550 0 LINE",
"498 0 LINE",
"475 0 LINE",
"470 0 LINE",
"456 -1 LINE",
"440 1 LINE",
"423 7 LINE",
"416 14 LINE",
"334 129 LINE",
"333 132 LINE",
"322 149 LINE",
"310 167 LINE",
"300 182 LINE",
"298 182 LINE",
"294 182 LINE",
"291 178 LINE",
"291 176 LINE",
"291 170 LINE",
"290 147 LINE",
"290 117 LINE",
"290 85 LINE",
"289 56 LINE",
"289 34 LINE",
"289 30 LINE",
"289 23 LINE",
"290 14 LINE",
"286 6 LINE",
"279 4 LINE",
"270 5 LINE",
"238 2 LINE",
"181 -2 LINE",
"149 -2 LINE",
"143 -2 LINE",
"127 -1 LINE",
"111 -1 LINE",
"99 -1 LINE",
"63 8 LINE",
"61 14 LINE",
"60 14 LINE",
"59 32 LINE",
"58 60 LINE",
"58 95 LINE",
"57 131 LINE",
"56 165 LINE",
"56 176 LINE",
"51 217 LINE",
"50 300 LINE",
"51 382 LINE",
"53 466 LINE",
"52 507 LINE",
"50 517 LINE",
"56 530 LINE",
"68 536 LINE",
"83 538 LINE",
"90 538 LINE",
"132 538 LINE",
"198 542 LINE",
"246 545 LINE",
"274 543 LINE",
"278 538 LINE",
"281 534 LINE",
"295 514 LINE",
"317 482 LINE",
"342 444 LINE",
"370 402 LINE",
"397 362 LINE",
"409 344 LINE",
"409 358 LINE",
"410 394 LINE",
"410 433 LINE",
"411 470 LINE",
"412 499 LINE",
"414 517 LINE",
"414 518 LINE",
"416 519 LINE",
"422 526 LINE",
"433 532 LINE",
"445 536 LINE",
"451 536 LINE",
"497 536 LINE",
"498 536 LINE",
"516 535 LINE",
"542 535 LINE",
"571 534 LINE",
"598 534 LINE",
"615 534 LINE",
"616 534 LINE",
"625 534 LINE",
"639 531 LINE",
"648 524 LINE",
"653 511 LINE",
"653 500 LINE",
"653 498 LINE",
"651 486 LINE",
"650 472 LINE",
"650 460 LINE",
"650 457 LINE",
"650 454 LINE",
"652 446 LINE",
"652 442 LINE",
"652 436 LINE",
"651 397 LINE",
"651 342 LINE",
"650 281 LINE",
"650 226 LINE",
"650 185 LINE"
);
}
);
};
layerId = UUID0;
paths = (
{
closed = 1;
nodes = (
"191 -2 OFFCURVE",
"228 2 OFFCURVE",
"270 5 CURVE",
"276 4 OFFCURVE",
"280 4 OFFCURVE",
"283 6 CURVE",
"288 7 OFFCURVE",
"290 12 OFFCURVE",
"289 18 CURVE",
"289 22 OFFCURVE",
"289 26 OFFCURVE",
"289 30 CURVE SMOOTH",
"289 33 OFFCURVE",
"289 38 OFFCURVE",
"289 46 CURVE",
"289 53 OFFCURVE",
"289 61 OFFCURVE",
"290 70 CURVE",
"290 80 OFFCURVE",
"290 90 OFFCURVE",
"290 101 CURVE SMOOTH",
"290 112 OFFCURVE",
"290 122 OFFCURVE",
"290 132 CURVE",
"290 142 OFFCURVE",
"290 150 OFFCURVE",
"291 158 CURVE",
"291 166 OFFCURVE",
"291 172 OFFCURVE",
"291 176 CURVE SMOOTH",
"291 179 OFFCURVE",
"293 182 OFFCURVE",
"298 182 CURVE SMOOTH",
"299 182 OFFCURVE",
"302 180 OFFCURVE",
"305 175 CURVE",
"309 170 OFFCURVE",
"313 165 OFFCURVE",
"317 158 CURVE SMOOTH",
"324 146 OFFCURVE",
"333 133 OFFCURVE",
"334 129 CURVE",
"416 14 LINE",
"421 10 OFFCURVE",
"426 6 OFFCURVE",
"432 4 CURVE",
"443 0 OFFCURVE",
"454 -1 OFFCURVE",
"463 0 CURVE SMOOTH",
"468 0 OFFCURVE",
"472 0 OFFCURVE",
"475 0 CURVE SMOOTH",
"490 0 OFFCURVE",
"506 0 OFFCURVE",
"524 0 CURVE SMOOTH",
"541 0 OFFCURVE",
"557 0 OFFCURVE",
"571 0 CURVE SMOOTH",
"586 0 OFFCURVE",
"598 0 OFFCURVE",
"607 0 CURVE",
"617 -1 OFFCURVE",
"621 -1 OFFCURVE",
"621 -1 CURVE",
"626 -1 OFFCURVE",
"630 0 OFFCURVE",
"634 0 CURVE",
"640 2 OFFCURVE",
"645 7 OFFCURVE",
"647 22 CURVE SMOOTH",
"648 30 OFFCURVE",
"649 39 OFFCURVE",
"650 53 CURVE SMOOTH",
"650 80 OFFCURVE",
"650 119 OFFCURVE",
"650 179 CURVE SMOOTH",
"650 183 OFFCURVE",
"650 192 OFFCURVE",
"650 206 CURVE SMOOTH",
"650 218 OFFCURVE",
"650 234 OFFCURVE",
"650 253 CURVE SMOOTH",
"650 271 OFFCURVE",
"650 290 OFFCURVE",
"651 311 CURVE SMOOTH",
"651 332 OFFCURVE",
"651 351 OFFCURVE",
"651 370 CURVE SMOOTH",
"651 387 OFFCURVE",
"651 403 OFFCURVE",
"652 417 CURVE SMOOTH",
"652 430 OFFCURVE",
"652 438 OFFCURVE",
"652 442 CURVE SMOOTH",
"652 444 OFFCURVE",
"651 447 OFFCURVE",
"650 450 CURVE",
"650 452 OFFCURVE",
"650 454 OFFCURVE",
"650 457 CURVE SMOOTH",
"650 458 OFFCURVE",
"650 462 OFFCURVE",
"650 466 CURVE SMOOTH",
"650 470 OFFCURVE",
"650 474 OFFCURVE",
"651 479 CURVE SMOOTH",
"651 483 OFFCURVE",
"652 488 OFFCURVE",
"652 492 CURVE SMOOTH",
"653 496 OFFCURVE",
"653 498 OFFCURVE",
"653 500 CURVE SMOOTH",
"653 514 OFFCURVE",
"650 523 OFFCURVE",
"644 528 CURVE SMOOTH",
"638 533 OFFCURVE",
"628 534 OFFCURVE",
"616 534 CURVE SMOOTH",
"615 534 OFFCURVE",
"612 534 OFFCURVE",
"606 534 CURVE",
"600 534 OFFCURVE",
"593 534 OFFCURVE",
"584 534 CURVE",
"576 534 OFFCURVE",
"566 534 OFFCURVE",
"557 534 CURVE SMOOTH",
"546 535 OFFCURVE",
"537 535 OFFCURVE",
"529 535 CURVE",
"520 535 OFFCURVE",
"513 535 OFFCURVE",
"506 536 CURVE",
"501 536 OFFCURVE",
"498 536 OFFCURVE",
"497 536 CURVE SMOOTH",
"451 536 LINE",
"447 536 OFFCURVE",
"442 535 OFFCURVE",
"438 534 CURVE",
"430 531 OFFCURVE",
"424 526 OFFCURVE",
"419 522 CURVE SMOOTH",
"414 518 OFFCURVE",
"414 520 OFFCURVE",
"413 508 CURVE SMOOTH",
"412 496 OFFCURVE",
"411 476 OFFCURVE",
"410 451 CURVE SMOOTH",
"410 426 OFFCURVE",
"410 401 OFFCURVE",
"410 377 CURVE SMOOTH",
"409 365 OFFCURVE",
"409 354 OFFCURVE",
"409 344 CURVE",
"401 356 OFFCURVE",
"392 369 OFFCURVE",
"383 382 CURVE SMOOTH",
"365 410 OFFCURVE",
"346 438 OFFCURVE",
"330 463 CURVE SMOOTH",
"312 489 OFFCURVE",
"298 510 OFFCURVE",
"288 524 CURVE SMOOTH",
"278 538 OFFCURVE",
"278 543 OFFCURVE",
"260 544 CURVE SMOOTH",
"241 546 OFFCURVE",
"209 543 OFFCURVE",
"166 540 CURVE SMOOTH",
"143 539 OFFCURVE",
"118 538 OFFCURVE",
"90 538 CURVE SMOOTH",
"81 538 OFFCURVE",
"70 538 OFFCURVE",
"62 534 CURVE SMOOTH",
"54 529 OFFCURVE",
"50 521 OFFCURVE",
"52 507 CURVE",
"53 479 OFFCURVE",
"53 451 OFFCURVE",
"52 424 CURVE SMOOTH",
"51 396 OFFCURVE",
"51 369 OFFCURVE",
"50 342 CURVE SMOOTH",
"50 286 OFFCURVE",
"50 231 OFFCURVE",
"56 176 CURVE",
"56 168 OFFCURVE",
"56 159 OFFCURVE",
"56 148 CURVE SMOOTH",
"57 137 OFFCURVE",
"57 126 OFFCURVE",
"57 114 CURVE SMOOTH",
"58 101 OFFCURVE",
"58 90 OFFCURVE",
"58 78 CURVE SMOOTH",
"58 54 OFFCURVE",
"59 35 OFFCURVE",
"60 23 CURVE SMOOTH",
"60 18 OFFCURVE",
"60 14 OFFCURVE",
"61 14 CURVE",
"63 8 LINE",
"99 -1 LINE",
"99 -1 OFFCURVE",
"101 -1 OFFCURVE",
"106 -1 CURVE",
"110 -1 OFFCURVE",
"114 -1 OFFCURVE",
"119 -1 CURVE SMOOTH",
"124 -1 OFFCURVE",
"130 -1 OFFCURVE",
"135 -1 CURVE",
"141 -2 OFFCURVE",
"145 -2 OFFCURVE",
"149 -2 CURVE SMOOTH"
);
}
);
width = 698;
}
);
leftKerningGroup = H;
rightKerningGroup = H;
unicode = 004E;
},
{
glyphname = Eng;
lastChange = "2016-07-08 08:24:15 +0000";
layers = (
{
background = {
paths = (
{
closed = 1;
nodes = (
"334 129 LINE",
"333 132 LINE",
"322 149 LINE",
"310 167 LINE",
"300 182 LINE",
"298 182 LINE",
"294 182 LINE",
"291 178 LINE",
"291 176 LINE",
"291 170 LINE",
"290 147 LINE",
"290 117 LINE",
"290 85 LINE",
"289 56 LINE",
"289 34 LINE",
"289 30 LINE",
"289 23 LINE",
"290 14 LINE",
"286 6 LINE",
"279 4 LINE",
"270 5 LINE",
"238 2 LINE",
"181 -2 LINE",
"149 -2 LINE",
"143 -2 LINE",
"127 -1 LINE",
"111 -1 LINE",
"99 -1 LINE",
"63 8 LINE",
"61 14 LINE",
"60 14 LINE",
"59 32 LINE",
"58 60 LINE",
"58 95 LINE",
"57 131 LINE",
"56 165 LINE",
"56 176 LINE",
"51 217 LINE",
"50 300 LINE",
"51 382 LINE",
"53 466 LINE",
"52 507 LINE",
"50 517 LINE",
"56 530 LINE",
"68 536 LINE",
"83 538 LINE",
"90 538 LINE",
"132 538 LINE",
"198 542 LINE",
"246 545 LINE",
"274 543 LINE",
"278 538 LINE",
"281 534 LINE",
"295 514 LINE",
"317 482 LINE",
"342 444 LINE",
"370 402 LINE",
"397 362 LINE",
"409 344 LINE",
"409 358 LINE",
"410 394 LINE",
"410 433 LINE",
"411 470 LINE",
"412 499 LINE",
"414 517 LINE",
"414 518 LINE",
"416 519 LINE",
"422 526 LINE",
"433 532 LINE",
"445 536 LINE",
"451 536 LINE",
"497 536 LINE",
"498 536 LINE",
"516 535 LINE",
"542 535 LINE",
"571 534 LINE",
"598 534 LINE",
"615 534 LINE",
"616 534 LINE",
"625 534 LINE",
"639 531 LINE",
"648 524 LINE",
"653 511 LINE",
"653 500 LINE",
"653 498 LINE",
"651 486 LINE",
"650 472 LINE",
"650 460 LINE",
"650 457 LINE",
"650 454 LINE",
"652 446 LINE",
"652 442 LINE",
"652 436 LINE",
"651 397 LINE",
"651 342 LINE",
"650 281 LINE",
"650 226 LINE",
"650 185 LINE",
"650 179 LINE",
"650 46 LINE",
"650 22 LINE",
"650 -34 LINE",
"643 -86 LINE",
"629 -134 LINE",
"615 -153 LINE",
"597 -182 LINE",
"551 -214 LINE",
"530 -222 LINE",
"506 -233 LINE",
"482 -235 LINE",
"427 -243 LINE",
"317 -232 LINE",
"266 -211 LINE",
"230 -195 LINE",
"230 -192 LINE",
"230 -181 LINE",
"232 -166 LINE",
"234 -148 LINE",
"234 -139 LINE",
"234 -135 LINE",
"236 -119 LINE",
"238 -104 LINE",
"240 -94 LINE",
"241 -96 LINE",
"261 -102 LINE",
"291 -112 LINE",
"320 -118 LINE",
"350 -120 LINE",
"369 -119 LINE",
"378 -119 LINE",
"390 -106 LINE",
"398 -87 LINE",
"402 -68 LINE",
"404 -63 LINE",
"405 -50 LINE",
"407 -6 LINE",
"407 26 LINE"
);
}
);
};
layerId = UUID0;
paths = (
{
closed = 1;
nodes = (
"498 -234 OFFCURVE",
"514 -229 OFFCURVE",
"530 -222 CURVE SMOOTH",
"558 -211 OFFCURVE",
"591 -190 OFFCURVE",
"615 -153 CURVE",
"634 -129 OFFCURVE",
"642 -95 OFFCURVE",
"646 -60 CURVE SMOOTH",
"650 -24 OFFCURVE",
"650 14 OFFCURVE",
"650 46 CURVE SMOOTH",
"650 179 LINE SMOOTH",
"650 183 OFFCURVE",
"650 192 OFFCURVE",
"650 206 CURVE SMOOTH",
"650 218 OFFCURVE",
"650 234 OFFCURVE",
"650 253 CURVE SMOOTH",
"650 271 OFFCURVE",
"650 290 OFFCURVE",
"651 311 CURVE SMOOTH",
"651 332 OFFCURVE",
"651 351 OFFCURVE",
"651 370 CURVE SMOOTH",
"651 387 OFFCURVE",
"651 403 OFFCURVE",
"652 417 CURVE SMOOTH",
"652 430 OFFCURVE",
"652 438 OFFCURVE",
"652 442 CURVE SMOOTH",
"652 444 OFFCURVE",
"651 447 OFFCURVE",
"650 450 CURVE",
"650 452 OFFCURVE",
"650 454 OFFCURVE",
"650 457 CURVE SMOOTH",
"650 458 OFFCURVE",
"650 462 OFFCURVE",
"650 466 CURVE SMOOTH",
"650 470 OFFCURVE",
"650 474 OFFCURVE",
"651 479 CURVE SMOOTH",
"651 483 OFFCURVE",
"652 488 OFFCURVE",
"652 492 CURVE SMOOTH",
"653 496 OFFCURVE",
"653 498 OFFCURVE",
"653 500 CURVE SMOOTH",
"653 514 OFFCURVE",
"650 523 OFFCURVE",
"644 528 CURVE SMOOTH",
"638 533 OFFCURVE",
"628 534 OFFCURVE",
"616 534 CURVE SMOOTH",
"615 534 OFFCURVE",
"612 534 OFFCURVE",
"606 534 CURVE",
"600 534 OFFCURVE",
"593 534 OFFCURVE",
"584 534 CURVE",
"576 534 OFFCURVE",
"566 534 OFFCURVE",
"557 534 CURVE SMOOTH",
"546 535 OFFCURVE",
"537 535 OFFCURVE",
"529 535 CURVE",
"520 535 OFFCURVE",
"513 535 OFFCURVE",
"506 536 CURVE",
"501 536 OFFCURVE",
"498 536 OFFCURVE",
"497 536 CURVE SMOOTH",
"451 536 LINE",
"447 536 OFFCURVE",
"442 535 OFFCURVE",
"438 534 CURVE",
"430 531 OFFCURVE",
"424 526 OFFCURVE",
"419 522 CURVE SMOOTH",
"414 518 OFFCURVE",
"414 520 OFFCURVE",
"413 508 CURVE SMOOTH",
"412 496 OFFCURVE",
"411 476 OFFCURVE",
"410 451 CURVE SMOOTH",
"410 426 OFFCURVE",
"410 401 OFFCURVE",
"410 377 CURVE SMOOTH",
"409 365 OFFCURVE",
"409 354 OFFCURVE",
"409 344 CURVE",
"401 356 OFFCURVE",
"392 369 OFFCURVE",
"383 382 CURVE SMOOTH",
"365 410 OFFCURVE",
"346 438 OFFCURVE",
"330 463 CURVE SMOOTH",
"312 489 OFFCURVE",
"298 510 OFFCURVE",
"288 524 CURVE SMOOTH",
"278 538 OFFCURVE",
"278 543 OFFCURVE",
"260 544 CURVE SMOOTH",
"241 546 OFFCURVE",
"209 543 OFFCURVE",
"166 540 CURVE SMOOTH",
"143 539 OFFCURVE",
"118 538 OFFCURVE",
"90 538 CURVE SMOOTH",
"81 538 OFFCURVE",
"70 538 OFFCURVE",
"62 534 CURVE SMOOTH",
"54 529 OFFCURVE",
"50 521 OFFCURVE",
"52 507 CURVE",
"53 479 OFFCURVE",
"53 451 OFFCURVE",
"52 424 CURVE SMOOTH",
"51 396 OFFCURVE",
"51 369 OFFCURVE",
"50 342 CURVE SMOOTH",
"50 286 OFFCURVE",
"50 231 OFFCURVE",
"56 176 CURVE",
"56 168 OFFCURVE",
"56 159 OFFCURVE",
"56 148 CURVE SMOOTH",
"57 137 OFFCURVE",
"57 126 OFFCURVE",
"57 114 CURVE SMOOTH",
"58 101 OFFCURVE",
"58 90 OFFCURVE",
"58 78 CURVE SMOOTH",
"58 54 OFFCURVE",
"59 35 OFFCURVE",
"60 23 CURVE SMOOTH",
"60 18 OFFCURVE",
"60 14 OFFCURVE",
"61 14 CURVE",
"63 8 LINE",
"99 -1 LINE",
"99 -1 OFFCURVE",
"101 -1 OFFCURVE",
"106 -1 CURVE",
"110 -1 OFFCURVE",
"114 -1 OFFCURVE",
"119 -1 CURVE SMOOTH",
"124 -1 OFFCURVE",
"130 -1 OFFCURVE",
"135 -1 CURVE",
"141 -2 OFFCURVE",
"145 -2 OFFCURVE",
"149 -2 CURVE SMOOTH",
"191 -2 OFFCURVE",
"228 2 OFFCURVE",
"270 5 CURVE",
"276 4 OFFCURVE",
"280 4 OFFCURVE",
"283 6 CURVE",
"288 7 OFFCURVE",
"290 12 OFFCURVE",
"289 18 CURVE",
"289 22 OFFCURVE",
"289 26 OFFCURVE",
"289 30 CURVE SMOOTH",
"289 33 OFFCURVE",
"289 38 OFFCURVE",
"289 46 CURVE",
"289 53 OFFCURVE",
"289 61 OFFCURVE",
"290 70 CURVE",
"290 80 OFFCURVE",
"290 90 OFFCURVE",
"290 101 CURVE SMOOTH",
"290 112 OFFCURVE",
"290 122 OFFCURVE",
"290 132 CURVE",
"290 142 OFFCURVE",
"290 150 OFFCURVE",
"291 158 CURVE",
"291 166 OFFCURVE",
"291 172 OFFCURVE",
"291 176 CURVE SMOOTH",
"291 179 OFFCURVE",
"293 182 OFFCURVE",
"298 182 CURVE SMOOTH",
"299 182 OFFCURVE",
"302 180 OFFCURVE",
"305 175 CURVE",
"309 170 OFFCURVE",
"313 165 OFFCURVE",
"317 158 CURVE SMOOTH",
"324 146 OFFCURVE",
"333 133 OFFCURVE",
"334 129 CURVE",
"407 26 LINE",
"407 -18 OFFCURVE",
"406 -45 OFFCURVE",
"404 -63 CURVE",
"403 -66 OFFCURVE",
"402 -71 OFFCURVE",
"401 -78 CURVE",
"399 -84 OFFCURVE",
"398 -90 OFFCURVE",
"394 -97 CURVE",
"390 -109 OFFCURVE",
"382 -119 OFFCURVE",
"369 -119 CURVE SMOOTH",
"344 -120 OFFCURVE",
"325 -118 OFFCURVE",
"306 -115 CURVE SMOOTH",
"286 -111 OFFCURVE",
"267 -105 OFFCURVE",
"241 -96 CURVE",
"240 -94 OFFCURVE",
"239 -96 OFFCURVE",
"239 -99 CURVE",
"238 -102 OFFCURVE",
"238 -106 OFFCURVE",
"237 -112 CURVE",
"236 -122 OFFCURVE",
"234 -134 OFFCURVE",
"234 -139 CURVE",
"234 -146 OFFCURVE",
"234 -150 OFFCURVE",
"234 -157 CURVE",
"233 -162 OFFCURVE",
"232 -167 OFFCURVE",
"231 -173 CURVE",
"230 -183 OFFCURVE",
"229 -191 OFFCURVE",
"230 -195 CURVE",
"266 -211 LINE",
"334 -239 OFFCURVE",
"409 -246 OFFCURVE",
"482 -235 CURVE SMOOTH"
);
}
);
width = 698;
}
);
leftKerningGroup = Eng;
rightKerningGroup = Eng;
unicode = 014A;
},
{
glyphname = O;
lastChange = "2016-07-08 08:24:15 +0000";
layers = (
{
anchors = (
{
name = bottom;
position = "{344, 0}";
},
{
name = center;
position = "{344, 270}";
},
{
name = ogonek;
position = "{518, 8}";
},
{
name = top;
position = "{344, 541}";
},
{
name = topleft;
position = "{16, 541}";
},
{
name = topright;
position = "{499, 529}";
}
);
background = {
paths = (
{
closed = 1;
nodes = (
"350 -19 LINE",
"311 -19 LINE",
"234 -14 LINE",
"166 5 LINE",
"106 40 LINE",
"62 100 LINE",
"37 188 LINE",
"37 250 LINE",
"37 332 LINE",
"73 448 LINE",
"150 522 LINE",
"273 556 LINE",
"358 556 LINE",
"387 556 LINE",
"453 546 LINE",
"518 523 LINE",
"578 484 LINE",
"624 423 LINE",
"651 340 LINE",
"651 284 LINE",
"651 220 LINE",
"632 126 LINE",
"594 58 LINE",
"542 15 LINE",
"474 -10 LINE",
"395 -19 LINE"
);
},
{
closed = 1;
nodes = (
"308 262 LINE",
"308 250 LINE",
"308 210 LINE",
"310 165 LINE",
"314 118 LINE",
"322 81 LINE",
"334 58 LINE",
"344 58 LINE",
"353 58 LINE",
"366 84 LINE",
"374 126 LINE",
"378 177 LINE",
"381 226 LINE",
"381 266 LINE",
"381 278 LINE",
"381 282 LINE",
"381 314 LINE",
"378 359 LINE",
"374 410 LINE",
"366 452 LINE",
"353 480 LINE",
"344 480 LINE",
"334 480 LINE",
"322 462 LINE",
"314 429 LINE",
"310 386 LINE",
"308 338 LINE",
"308 286 LINE"
);
}
);
};
layerId = UUID0;
paths = (
{
closed = 1;
nodes = (
"410 -19 OFFCURVE",
"464 -14 OFFCURVE",
"508 2 CURVE SMOOTH",
"553 19 OFFCURVE",
"588 46 OFFCURVE",
"614 92 CURVE SMOOTH",
"638 137 OFFCURVE",
"651 198 OFFCURVE",
"651 284 CURVE SMOOTH",
"651 358 OFFCURVE",
"632 414 OFFCURVE",
"601 454 CURVE SMOOTH",
"570 494 OFFCURVE",
"530 519 OFFCURVE",
"486 535 CURVE SMOOTH",
"442 550 OFFCURVE",
"397 556 OFFCURVE",
"358 556 CURVE SMOOTH",
"244 556 OFFCURVE",
"164 534 OFFCURVE",
"112 485 CURVE SMOOTH",
"60 435 OFFCURVE",
"37 359 OFFCURVE",
"37 250 CURVE SMOOTH",
"37 167 OFFCURVE",
"54 110 OFFCURVE",
"83 70 CURVE SMOOTH",
"113 30 OFFCURVE",
"154 8 OFFCURVE",
"200 -4 CURVE SMOOTH",
"246 -17 OFFCURVE",
"298 -19 OFFCURVE",
"350 -19 CURVE SMOOTH"
);
},
{
closed = 1;
nodes = (
"332 58 OFFCURVE",
"323 74 OFFCURVE",
"318 100 CURVE SMOOTH",
"314 125 OFFCURVE",
"310 157 OFFCURVE",
"310 187 CURVE SMOOTH",
"308 217 OFFCURVE",
"308 246 OFFCURVE",
"308 262 CURVE SMOOTH",
"308 294 OFFCURVE",
"308 330 OFFCURVE",
"310 362 CURVE SMOOTH",
"310 394 OFFCURVE",
"314 423 OFFCURVE",
"318 446 CURVE SMOOTH",
"323 466 OFFCURVE",
"332 480 OFFCURVE",
"344 480 CURVE SMOOTH",
"350 480 OFFCURVE",
"355 475 OFFCURVE",
"359 466 CURVE SMOOTH",
"367 447 OFFCURVE",
"373 418 OFFCURVE",
"376 384 CURVE SMOOTH",
"379 350 OFFCURVE",
"381 319 OFFCURVE",
"381 298 CURVE SMOOTH",
"381 286 OFFCURVE",
"381 280 OFFCURVE",
"381 278 CURVE SMOOTH",
"381 270 OFFCURVE",
"381 260 OFFCURVE",
"381 246 CURVE SMOOTH",
"381 218 OFFCURVE",
"379 185 OFFCURVE",
"376 151 CURVE SMOOTH",
"373 117 OFFCURVE",
"367 88 OFFCURVE",
"359 70 CURVE SMOOTH",
"355 62 OFFCURVE",
"350 58 OFFCURVE",
"344 58 CURVE SMOOTH"
);
}
);
width = 687;
}
);
leftKerningGroup = O;
rightKerningGroup = O;
unicode = 004F;
},
{
color = 9;
glyphname = Odotaccentmacron;
lastChange = "2016-07-08 10:05:18 +0000";
layers = (
{
background = {
components = (
{
name = dotaccentcomb;
transform = "{1, 0, 0, 1, 24, 79}";
},
{
name = macroncomb;
transform = "{1, 0, 0, 1, 24, 279}";
}
);
};
components = (
{
name = O;
},
{
alignment = -1;
name = macroncomb;
transform = "{1, 0, 0, 1, 24, 234}";
}
);
layerId = UUID0;
paths = (
{
closed = 1;
nodes = (
"421 592 LINE",
"431 593 OFFCURVE",
"434 604 OFFCURVE",
"434 614 CURVE SMOOTH",
"434 620 OFFCURVE",
"434 626 OFFCURVE",
"433 632 CURVE SMOOTH",
"432 637 OFFCURVE",
"433 644 OFFCURVE",
"433 649 CURVE SMOOTH",
"433 652 OFFCURVE",
"433 654 OFFCURVE",
"433 657 CURVE",
"433 660 OFFCURVE",
"433 664 OFFCURVE",
"433 667 CURVE SMOOTH",
"433 670 OFFCURVE",
"433 672 OFFCURVE",
"433 675 CURVE",
"432 677 OFFCURVE",
"432 680 OFFCURVE",
"432 680 CURVE SMOOTH",
"432 685 OFFCURVE",
"432 690 OFFCURVE",
"433 696 CURVE SMOOTH",
"434 702 OFFCURVE",
"433 707 OFFCURVE",
"433 712 CURVE SMOOTH",
"433 723 OFFCURVE",
"432 732 OFFCURVE",
"424 732 CURVE SMOOTH",
"421 732 LINE",
"420 732 OFFCURVE",
"417 731 OFFCURVE",
"416 731 CURVE SMOOTH",
"413 731 OFFCURVE",
"412 731 OFFCURVE",
"410 731 CURVE SMOOTH",
"405 731 OFFCURVE",
"403 732 OFFCURVE",
"400 732 CURVE SMOOTH",
"397 732 OFFCURVE",
"394 733 OFFCURVE",
"389 733 CURVE SMOOTH",
"383 733 OFFCURVE",
"375 732 OFFCURVE",
"361 731 CURVE",
"278 731 LINE SMOOTH",
"270 731 OFFCURVE",
"267 730 OFFCURVE",
"264 727 CURVE",
"261 723 OFFCURVE",
"258 717 OFFCURVE",
"255 708 CURVE",
"255 707 OFFCURVE",
"256 706 OFFCURVE",
"256 704 CURVE SMOOTH",
"256 704 OFFCURVE",
"256 703 OFFCURVE",
"256 702 CURVE",
"253 677 LINE",
"250 672 OFFCURVE",
"250 667 OFFCURVE",
"251 662 CURVE",
"251 656 OFFCURVE",
"252 652 OFFCURVE",
"252 646 CURVE SMOOTH",
"252 623 LINE",
"257 597 LINE",
"262 592 LINE"
);
}
);
width = 687;
}
);
leftKerningGroup = O;
rightKerningGroup = O;
unicode = 0230;
},
{
glyphname = Ohorn;
lastChange = "2016-07-08 08:24:15 +0000";
layers = (
{
anchors = (
{
name = bottom;
position = "{344, 0}";
},
{
name = top;
position = "{344, 541}";
}
);
background = {
paths = (
{
closed = 1;
nodes = (
"350 -19 LINE",
"311 -19 LINE",
"234 -14 LINE",
"166 5 LINE",
"106 40 LINE",
"62 100 LINE",
"37 188 LINE",
"37 250 LINE",
"37 332 LINE",
"73 448 LINE",
"150 522 LINE",
"273 556 LINE",
"358 556 LINE",
"387 556 LINE",
"453 546 LINE",
"518 523 LINE",
"578 484 LINE",
"624 423 LINE",
"651 340 LINE",
"651 284 LINE",
"651 220 LINE",
"632 126 LINE",
"594 58 LINE",
"542 15 LINE",
"474 -10 LINE",
"395 -19 LINE"
);
},
{
closed = 1;
nodes = (
"308 262 LINE",
"308 250 LINE",
"308 210 LINE",
"310 165 LINE",
"314 118 LINE",
"322 81 LINE",
"334 58 LINE",
"344 58 LINE",
"353 58 LINE",
"366 84 LINE",
"374 126 LINE",
"378 177 LINE",
"381 226 LINE",
"381 266 LINE",
"381 278 LINE",
"381 282 LINE",
"381 314 LINE",
"378 359 LINE",
"374 410 LINE",
"366 452 LINE",
"353 480 LINE",
"344 480 LINE",
"334 480 LINE",
"322 462 LINE",
"314 429 LINE",
"310 386 LINE",
"308 338 LINE",
"308 286 LINE"
);
},
{
closed = 1;
nodes = (
"682 636 LINE",
"686 622 LINE",
"689 590 LINE",
"689 572 LINE",
"683 535 LINE",
"667 487 LINE",
"641 449 LINE",
"622 430 LINE",
"584 406 LINE",
"544 394 LINE",
"499 390 LINE",
"453 546 LINE",
"505 534 LINE",
"533 538 LINE",
"550 555 LINE",
"558 578 LINE",
"558 591 LINE",
"558 598 LINE",
"556 625 LINE",
"552 639 LINE"
);
}
);
};
layerId = UUID0;
paths = (
{
closed = 1;
nodes = (
"410 -19 OFFCURVE",
"464 -14 OFFCURVE",
"508 2 CURVE SMOOTH",
"553 19 OFFCURVE",
"588 46 OFFCURVE",
"614 92 CURVE SMOOTH",
"638 137 OFFCURVE",
"651 198 OFFCURVE",
"651 284 CURVE SMOOTH",
"651 343 OFFCURVE",
"639 390 OFFCURVE",
"617 433 CURVE",
"620 435 LINE",
"638 449 LINE",
"650 462 OFFCURVE",
"658 474 OFFCURVE",
"665 489 CURVE SMOOTH",
"683 535 LINE",
"689 572 LINE",
"689 590 LINE",
"686 622 LINE",
"682 636 LINE",
"560 639 LINE",
"556 625 LINE",
"558 598 LINE",
"558 591 OFFCURVE",
"560 584 OFFCURVE",
"558 578 CURVE SMOOTH",
"557 570 OFFCURVE",
"553 562 OFFCURVE",
"548 555 CURVE",
"544 550 OFFCURVE",
"538 546 OFFCURVE",
"532 542 CURVE SMOOTH",
"523 538 OFFCURVE",
"514 536 OFFCURVE",
"505 534 CURVE",
"454 545 LINE",
"422 553 OFFCURVE",
"388 556 OFFCURVE",
"358 556 CURVE SMOOTH",
"244 556 OFFCURVE",
"164 534 OFFCURVE",
"112 485 CURVE SMOOTH",
"60 435 OFFCURVE",
"37 359 OFFCURVE",
"37 250 CURVE SMOOTH",
"37 167 OFFCURVE",
"54 110 OFFCURVE",
"83 70 CURVE SMOOTH",
"113 30 OFFCURVE",
"154 8 OFFCURVE",
"200 -4 CURVE SMOOTH",
"246 -17 OFFCURVE",
"298 -19 OFFCURVE",
"350 -19 CURVE SMOOTH"
);
},
{
closed = 1;
nodes = (
"332 58 OFFCURVE",
"323 74 OFFCURVE",
"318 100 CURVE SMOOTH",
"314 125 OFFCURVE",
"310 157 OFFCURVE",
"310 187 CURVE SMOOTH",
"308 217 OFFCURVE",
"308 246 OFFCURVE",
"308 262 CURVE SMOOTH",
"308 294 OFFCURVE",
"308 330 OFFCURVE",
"310 362 CURVE SMOOTH",
"310 394 OFFCURVE",
"314 423 OFFCURVE",
"318 446 CURVE SMOOTH",
"323 466 OFFCURVE",
"332 480 OFFCURVE",
"344 480 CURVE SMOOTH",
"350 480 OFFCURVE",
"355 475 OFFCURVE",
"359 466 CURVE SMOOTH",
"367 447 OFFCURVE",
"373 418 OFFCURVE",
"376 384 CURVE SMOOTH",
"379 350 OFFCURVE",
"381 319 OFFCURVE",
"381 298 CURVE SMOOTH",
"381 278 LINE",
"381 246 LINE SMOOTH",
"381 218 OFFCURVE",
"379 185 OFFCURVE",
"376 151 CURVE SMOOTH",
"373 117 OFFCURVE",
"367 88 OFFCURVE",
"359 70 CURVE SMOOTH",
"355 62 OFFCURVE",
"350 58 OFFCURVE",
"344 58 CURVE SMOOTH"
);
}
);
width = 687;
}
);
leftKerningGroup = O;
rightKerningGroup = O;
unicode = 01A0;
},
{
glyphname = Oslash;
lastChange = "2016-07-08 08:24:15 +0000";
layers = (
{
anchors = (
{
name = bottom;
position = "{361, 0}";
},
{
name = top;
position = "{361, 541}";
}
);
background = {
paths = (
{
closed = 1;
nodes = (
"362 -19 LINE",
"335 -19 LINE",
"282 -17 LINE",
"232 -10 LINE",
"184 2 LINE",
"163 13 LINE",
"142 -8 LINE",
"109 -38 LINE",
"98 -42 LINE",
"90 -41 LINE",
"81 -37 LINE",
"77 -35 LINE",
"69 -28 LINE",
"62 -22 LINE",
"61 -22 LINE",
"51 -17 LINE",
"46 -8 LINE",
"49 1 LINE",
"55 10 LINE",
"59 14 LINE",
"66 22 LINE",
"89 46 LINE",
"102 59 LINE",
"78 90 LINE",
"48 182 LINE",
"48 250 LINE",
"48 332 LINE",
"84 448 LINE",
"162 522 LINE",
"284 556 LINE",
"370 556 LINE",
"392 556 LINE",
"442 550 LINE",
"492 538 LINE",
"542 517 LINE",
"564 500 LINE",
"617 549 LINE",
"622 551 LINE",
"630 550 LINE",
"634 548 LINE",
"638 546 LINE",
"652 537 LINE",
"658 536 LINE",
"667 530 LINE",
"678 523 LINE",
"678 513 LINE",
"666 495 LINE",
"650 479 LINE",
"646 475 LINE",
"642 470 LINE",
"637 466 LINE",
"624 455 LINE",
"617 448 LINE",
"638 418 LINE",
"662 338 LINE",
"662 284 LINE",
"662 220 LINE",
"643 126 LINE",
"606 58 LINE",
"553 15 LINE",
"486 -10 LINE",
"406 -19 LINE"
);
},
{
closed = 1;
nodes = (
"355 480 LINE",
"346 480 LINE",
"334 463 LINE",
"326 434 LINE",
"322 395 LINE",
"320 350 LINE",
"319 302 LINE",
"319 279 LINE",
"390 343 LINE",
"389 366 LINE",
"384 414 LINE",
"376 454 LINE",
"364 480 LINE"
);
},
{
closed = 1;
nodes = (
"321 171 LINE",
"322 150 LINE",
"327 110 LINE",
"335 77 LINE",
"347 58 LINE",
"355 58 LINE",
"362 58 LINE",
"374 75 LINE",
"382 104 LINE",
"386 142 LINE",
"390 183 LINE",
"391 223 LINE",
"392 240 LINE"
);
}
);
};
layerId = UUID0;
paths = (
{
closed = 1;
nodes = (
"113 -37 OFFCURVE",
"135 -15 OFFCURVE",
"163 13 CURVE",
"191 -1 OFFCURVE",
"224 -9 OFFCURVE",
"258 -14 CURVE SMOOTH",
"291 -18 OFFCURVE",
"326 -19 OFFCURVE",
"362 -19 CURVE SMOOTH",
"422 -19 OFFCURVE",
"475 -14 OFFCURVE",
"519 2 CURVE SMOOTH",
"564 19 OFFCURVE",
"600 46 OFFCURVE",
"625 92 CURVE SMOOTH",
"650 137 OFFCURVE",
"662 198 OFFCURVE",
"662 284 CURVE SMOOTH",
"662 355 OFFCURVE",
"645 408 OFFCURVE",
"617 448 CURVE",
"622 453 OFFCURVE",
"626 457 OFFCURVE",
"631 461 CURVE",
"635 465 OFFCURVE",
"638 468 OFFCURVE",
"642 470 CURVE",
"645 474 OFFCURVE",
"648 477 OFFCURVE",
"650 479 CURVE",
"661 490 OFFCURVE",
"667 498 OFFCURVE",
"672 504 CURVE SMOOTH",
"676 510 OFFCURVE",
"678 515 OFFCURVE",
"678 518 CURVE",
"678 526 OFFCURVE",
"670 529 OFFCURVE",
"658 536 CURVE",
"654 537 OFFCURVE",
"650 538 OFFCURVE",
"646 542 CURVE",
"641 545 OFFCURVE",
"637 547 OFFCURVE",
"634 548 CURVE",
"630 550 OFFCURVE",
"624 553 OFFCURVE",
"617 549 CURVE",
"564 500 LINE",
"534 522 OFFCURVE",
"500 535 OFFCURVE",
"466 544 CURVE SMOOTH",
"434 553 OFFCURVE",
"399 556 OFFCURVE",
"370 556 CURVE SMOOTH",
"255 556 OFFCURVE",
"175 534 OFFCURVE",
"123 485 CURVE SMOOTH",
"71 435 OFFCURVE",
"48 359 OFFCURVE",
"48 250 CURVE SMOOTH",
"48 160 OFFCURVE",
"69 100 OFFCURVE",
"102 59 CURVE",
"94 50 OFFCURVE",
"86 42 OFFCURVE",
"78 34 CURVE SMOOTH",
"70 26 OFFCURVE",
"64 18 OFFCURVE",
"59 14 CURVE",
"54 8 OFFCURVE",
"49 2 OFFCURVE",
"48 -3 CURVE",
"46 -10 OFFCURVE",
"49 -16 OFFCURVE",
"61 -22 CURVE",
"61 -22 OFFCURVE",
"62 -23 OFFCURVE",
"66 -26 CURVE SMOOTH",
"68 -27 OFFCURVE",
"72 -30 OFFCURVE",
"77 -35 CURVE",
"80 -36 OFFCURVE",
"82 -38 OFFCURVE",
"86 -38 CURVE SMOOTH",
"89 -40 OFFCURVE",
"93 -42 OFFCURVE",
"98 -42 CURVE"
);
},
{
closed = 1;
nodes = (
"344 58 OFFCURVE",
"336 71 OFFCURVE",
"331 94 CURVE SMOOTH",
"326 115 OFFCURVE",
"322 143 OFFCURVE",
"321 171 CURVE",
"392 240 LINE",
"391 218 OFFCURVE",
"390 190 OFFCURVE",
"388 163 CURVE SMOOTH",
"386 136 OFFCURVE",
"383 110 OFFCURVE",
"378 90 CURVE SMOOTH",
"373 70 OFFCURVE",
"365 58 OFFCURVE",
"355 58 CURVE SMOOTH"
);
},
{
closed = 1;
nodes = (
"319 310 OFFCURVE",
"319 343 OFFCURVE",
"321 373 CURVE SMOOTH",
"322 402 OFFCURVE",
"326 430 OFFCURVE",
"331 449 CURVE SMOOTH",
"336 468 OFFCURVE",
"344 480 OFFCURVE",
"355 480 CURVE SMOOTH",
"361 480 OFFCURVE",
"366 476 OFFCURVE",
"370 467 CURVE",
"374 458 OFFCURVE",
"378 447 OFFCURVE",
"381 434 CURVE SMOOTH",
"386 407 OFFCURVE",
"389 373 OFFCURVE",
"390 343 CURVE",
"319 279 LINE"
);
}
);
width = 721;
}
);
leftKerningGroup = O;
rightKerningGroup = O;
unicode = 00D8;
},
{
glyphname = Otildemacron;
lastChange = "2016-07-08 08:33:27 +0000";
layers = (
{
background = {
components = (
{
name = tildecomb;
transform = "{1, 0, 0, 1, 24, 79}";
},
{
name = macroncomb;
transform = "{1, 0, 0, 1, 24, 322}";
}
);
};
components = (
{
name = O;
}
);
layerId = UUID0;
paths = (
{
closed = 1;
nodes = (
"421 588 OFFCURVE",
"430 589 OFFCURVE",
"441 593 CURVE",
"453 596 OFFCURVE",
"465 600 OFFCURVE",
"475 605 CURVE SMOOTH",
"514 625 OFFCURVE",
"526 660 OFFCURVE",
"526 692 CURVE SMOOTH",
"526 711 OFFCURVE",
"520 727 OFFCURVE",
"514 737 CURVE",
"512 742 OFFCURVE",
"509 745 OFFCURVE",
"505 745 CURVE",
"406 745 LINE",
"403 745 LINE SMOOTH",
"399 745 OFFCURVE",
"393 745 OFFCURVE",
"393 740 CURVE",
"397 737 OFFCURVE",
"401 730 OFFCURVE",
"405 722 CURVE SMOOTH",
"409 714 OFFCURVE",
"411 706 OFFCURVE",
"410 699 CURVE SMOOTH",
"409 692 OFFCURVE",
"405 688 OFFCURVE",
"393 688 CURVE SMOOTH",
"388 688 OFFCURVE",
"384 689 OFFCURVE",
"381 690 CURVE",
"373 695 OFFCURVE",
"368 702 OFFCURVE",
"363 709 CURVE SMOOTH",
"360 713 OFFCURVE",
"355 718 OFFCURVE",
"353 719 CURVE SMOOTH",
"343 727 OFFCURVE",
"337 731 OFFCURVE",
"321 737 CURVE SMOOTH",
"306 743 OFFCURVE",
"290 745 OFFCURVE",
"281 745 CURVE SMOOTH",
"241 745 OFFCURVE",
"215 736 OFFCURVE",
"197 722 CURVE SMOOTH",
"180 709 OFFCURVE",
"171 694 OFFCURVE",
"165 677 CURVE SMOOTH",
"158 658 OFFCURVE",
"161 639 OFFCURVE",
"161 624 CURVE",
"161 619 OFFCURVE",
"163 614 OFFCURVE",
"164 611 CURVE SMOOTH",
"165 607 OFFCURVE",
"165 604 OFFCURVE",
"167 602 CURVE SMOOTH",
"172 597 OFFCURVE",
"174 594 OFFCURVE",
"185 594 CURVE SMOOTH",
"197 594 OFFCURVE",
"215 595 OFFCURVE",
"245 594 CURVE",
"246 594 OFFCURVE",
"248 594 OFFCURVE",
"249 596 CURVE SMOOTH",
"250 599 OFFCURVE",
"253 603 OFFCURVE",
"254 613 CURVE",
"254 617 OFFCURVE",
"255 622 OFFCURVE",
"257 625 CURVE SMOOTH",
"262 632 OFFCURVE",
"262 641 OFFCURVE",
"270 641 CURVE SMOOTH",
"277 641 OFFCURVE",
"284 639 OFFCURVE",
"289 636 CURVE SMOOTH",
"339 606 OFFCURVE",
"340 588 OFFCURVE",
"409 588 CURVE SMOOTH"
);
},
{
closed = 1;
nodes = (
"473 773.838 OFFCURVE",
"482 773.838 OFFCURVE",
"493 773.838 CURVE SMOOTH",
"502 773.838 OFFCURVE",
"507 779.892 OFFCURVE",
"509 787.676 CURVE SMOOTH",
"511 794.595 OFFCURVE",
"512 804.108 OFFCURVE",
"512 811.892 CURVE SMOOTH",
"512 818.811 OFFCURVE",
"512 824 OFFCURVE",
"512 828.324 CURVE",
"511 836.108 OFFCURVE",
"511 842.162 OFFCURVE",
"511 846.486 CURVE",
"511 848.216 OFFCURVE",
"511 850.811 OFFCURVE",
"511 853.405 CURVE",
"511 860.324 OFFCURVE",
"510 867.243 OFFCURVE",
"510 881.081 CURVE SMOOTH",
"510 888.865 OFFCURVE",
"503 893.189 OFFCURVE",
"495 894.919 CURVE SMOOTH",
"487 897.514 OFFCURVE",
"475 898.378 OFFCURVE",
"466 898.378 CURVE SMOOTH",
"463 898.378 OFFCURVE",
"457 898.378 OFFCURVE",
"447 898.378 CURVE",
"429 898.378 OFFCURVE",
"403 899.243 OFFCURVE",
"375 900.108 CURVE SMOOTH",
"347 900.973 OFFCURVE",
"320 901.838 OFFCURVE",
"301 901.838 CURVE SMOOTH",
"292 901.838 OFFCURVE",
"286 901.838 OFFCURVE",
"283 901.838 CURVE SMOOTH",
"195 901.838 LINE SMOOTH",
"190 901.838 OFFCURVE",
"186 898.378 OFFCURVE",
"182 895.784 CURVE SMOOTH",
"178 893.189 OFFCURVE",
"175 888.865 OFFCURVE",
"175 884.541 CURVE SMOOTH",
"175 875.892 OFFCURVE",
"175 867.243 OFFCURVE",
"176 860.324 CURVE",
"176 853.405 OFFCURVE",
"176 846.486 OFFCURVE",
"176 840.432 CURVE SMOOTH",
"176 833.514 OFFCURVE",
"176 826.595 OFFCURVE",
"176 819.676 CURVE",
"176 812.757 OFFCURVE",
"176 804.108 OFFCURVE",
"176 794.595 CURVE SMOOTH",
"176 790.27 OFFCURVE",
"179 785.946 OFFCURVE",
"182 784.216 CURVE",
"189 778.162 OFFCURVE",
"201 777.297 OFFCURVE",
"215 777.297 CURVE SMOOTH",
"223 777.297 OFFCURVE",
"231 777.297 OFFCURVE",
"238 777.297 CURVE SMOOTH",
"318 777.297 LINE SMOOTH",
"319 777.297 OFFCURVE",
"322 777.297 OFFCURVE",
"326 777.297 CURVE",
"330 777.297 OFFCURVE",
"335 777.297 OFFCURVE",
"343 777.297 CURVE SMOOTH",
"348 777.297 OFFCURVE",
"355 777.297 OFFCURVE",
"363 776.432 CURVE SMOOTH",
"370 775.568 OFFCURVE",
"377 776.432 OFFCURVE",
"383 776.432 CURVE SMOOTH",
"390 776.432 OFFCURVE",
"395 776.432 OFFCURVE",
"399 776.432 CURVE",
"403 775.568 OFFCURVE",
"407 775.568 OFFCURVE",
"407 775.568 CURVE SMOOTH",
"414 775.568 OFFCURVE",
"420 775.568 OFFCURVE",
"427 775.568 CURVE SMOOTH",
"432 775.568 OFFCURVE",
"438 774.703 OFFCURVE",
"445 774.703 CURVE",
"451 774.703 OFFCURVE",
"458 774.703 OFFCURVE",
"466 773.838 CURVE SMOOTH"
);
}
);
width = 687;
}
);
leftKerningGroup = O;
rightKerningGroup = O;
unicode = 022C;
},
{
glyphname = OE;
lastChange = "2016-07-08 08:24:15 +0000";
layers = (
{
anchors = (
{
name = bottom;
position = "{484, 0}";
},
{
name = top;
position = "{484, 541}";
}
);
background = {
paths = (
{
closed = 1;
nodes = (
"354 -19 LINE",
"315 -19 LINE",
"238 -14 LINE",
"168 5 LINE",
"109 40 LINE",
"65 100 LINE",
"40 188 LINE",
"40 250 LINE",
"40 332 LINE",
"76 448 LINE",
"154 522 LINE",
"276 556 LINE",
"362 556 LINE",
"391 556 LINE",
"458 546 LINE",
"491 534 LINE",
"500 535 LINE",
"517 536 LINE",
"526 536 LINE",
"576 536 LINE",
"666 538 LINE",
"753 540 LINE",
"846 539 LINE",
"900 535 LINE",
"907 535 LINE",
"916 518 LINE",
"922 492 LINE",
"926 461 LINE",
"930 446 LINE",
"931 436 LINE",
"929 427 LINE",
"925 424 LINE",
"917 425 LINE",
"912 425 LINE",
"892 425 LINE",
"850 422 LINE",
"809 418 LINE",
"766 414 LINE",
"746 412 LINE",
"742 412 LINE",
"736 393 LINE",
"733 366 LINE",
"730 341 LINE",
"730 334 LINE",
"730 323 LINE",
"736 318 LINE",
"743 318 LINE",
"779 318 LINE",
"850 318 LINE",
"885 314 LINE",
"891 314 LINE",
"900 313 LINE",
"906 310 LINE",
"910 303 LINE",
"912 296 LINE",
"915 225 LINE",
"915 222 LINE",
"915 215 LINE",
"900 207 LINE",
"874 203 LINE",
"840 202 LINE",
"822 202 LINE",
"788 202 LINE",
"750 204 LINE",
"732 200 LINE",
"728 186 LINE",
"728 170 LINE",
"728 155 LINE",
"725 126 LINE",
"726 110 LINE",
"764 110 LINE",
"842 114 LINE",
"879 114 LINE",
"882 114 LINE",
"888 102 LINE",
"895 84 LINE",
"901 62 LINE",
"906 41 LINE",
"910 24 LINE",
"910 21 LINE",
"910 14 LINE",
"902 4 LINE",
"894 4 LINE",
"865 4 LINE",
"810 1 LINE",
"780 1 LINE",
"717 1 LINE",
"590 0 LINE",
"527 0 LINE",
"525 0 LINE",
"515 0 LINE",
"509 2 LINE",
"475 -10 LINE",
"398 -19 LINE"
);
},
{
closed = 1;
nodes = (
"311 262 LINE",
"311 250 LINE",
"311 210 LINE",
"314 165 LINE",
"318 118 LINE",
"326 81 LINE",
"338 58 LINE",
"347 58 LINE",
"357 58 LINE",
"369 84 LINE",
"378 126 LINE",
"382 177 LINE",
"383 226 LINE",
"384 266 LINE",
"384 278 LINE",
"384 282 LINE",
"383 314 LINE",
"382 359 LINE",
"378 410 LINE",
"369 452 LINE",
"356 480 LINE",
"347 480 LINE",
"338 480 LINE",
"326 462 LINE",
"318 429 LINE",
"314 386 LINE",
"311 338 LINE",
"311 286 LINE"
);
}
);
};
layerId = UUID0;
paths = (
{
closed = 1;
nodes = (
"413 -19 OFFCURVE",
"465 -14 OFFCURVE",
"509 2 CURVE",
"517 0 OFFCURVE",
"524 0 OFFCURVE",
"527 0 CURVE SMOOTH",
"569 0 OFFCURVE",
"611 0 OFFCURVE",
"654 0 CURVE SMOOTH",
"696 1 OFFCURVE",
"738 1 OFFCURVE",
"780 1 CURVE SMOOTH",
"800 1 OFFCURVE",
"819 1 OFFCURVE",
"838 2 CURVE SMOOTH",
"855 3 OFFCURVE",
"874 4 OFFCURVE",
"894 4 CURVE SMOOTH",
"905 4 OFFCURVE",
"910 11 OFFCURVE",
"910 21 CURVE SMOOTH",
"910 23 OFFCURVE",
"909 27 OFFCURVE",
"908 33 CURVE SMOOTH",
"906 44 OFFCURVE",
"902 58 OFFCURVE",
"898 73 CURVE SMOOTH",
"894 88 OFFCURVE",
"890 101 OFFCURVE",
"885 109 CURVE",
"883 113 OFFCURVE",
"881 114 OFFCURVE",
"879 114 CURVE SMOOTH",
"854 114 OFFCURVE",
"829 114 OFFCURVE",
"802 112 CURVE SMOOTH",
"777 110 OFFCURVE",
"751 110 OFFCURVE",
"726 110 CURVE",
"725 121 OFFCURVE",
"725 131 OFFCURVE",
"726 141 CURVE SMOOTH",
"727 150 OFFCURVE",
"728 161 OFFCURVE",
"728 170 CURVE SMOOTH",
"728 190 OFFCURVE",
"729 199 OFFCURVE",
"741 202 CURVE",
"746 203 OFFCURVE",
"756 203 OFFCURVE",
"769 203 CURVE SMOOTH",
"782 202 OFFCURVE",
"799 202 OFFCURVE",
"822 202 CURVE SMOOTH",
"846 202 OFFCURVE",
"869 202 OFFCURVE",
"886 206 CURVE SMOOTH",
"904 208 OFFCURVE",
"915 213 OFFCURVE",
"915 222 CURVE SMOOTH",
"915 225 LINE",
"912 296 LINE",
"911 301 OFFCURVE",
"910 304 OFFCURVE",
"908 306 CURVE",
"905 311 OFFCURVE",
"901 313 OFFCURVE",
"895 314 CURVE",
"893 314 OFFCURVE",
"889 314 OFFCURVE",
"885 314 CURVE SMOOTH",
"862 317 OFFCURVE",
"838 318 OFFCURVE",
"814 318 CURVE SMOOTH",
"791 318 OFFCURVE",
"767 318 OFFCURVE",
"743 318 CURVE SMOOTH",
"734 318 OFFCURVE",
"730 320 OFFCURVE",
"730 334 CURVE SMOOTH",
"730 338 OFFCURVE",
"731 345 OFFCURVE",
"732 354 CURVE SMOOTH",
"733 370 OFFCURVE",
"735 390 OFFCURVE",
"739 402 CURVE SMOOTH",
"742 409 OFFCURVE",
"743 412 OFFCURVE",
"746 412 CURVE",
"759 413 OFFCURVE",
"774 414 OFFCURVE",
"787 416 CURVE SMOOTH",
"802 417 OFFCURVE",
"816 418 OFFCURVE",
"830 419 CURVE SMOOTH",
"858 422 OFFCURVE",
"886 425 OFFCURVE",
"912 425 CURVE SMOOTH",
"916 425 OFFCURVE",
"918 425 OFFCURVE",
"921 424 CURVE",
"926 424 OFFCURVE",
"929 426 OFFCURVE",
"930 432 CURVE",
"930 434 OFFCURVE",
"931 440 OFFCURVE",
"930 446 CURVE",
"928 456 OFFCURVE",
"926 466 OFFCURVE",
"924 476 CURVE",
"922 486 OFFCURVE",
"921 496 OFFCURVE",
"918 505 CURVE SMOOTH",
"915 522 OFFCURVE",
"910 535 OFFCURVE",
"900 535 CURVE",
"864 538 OFFCURVE",
"830 539 OFFCURVE",
"800 540 CURVE SMOOTH",
"738 541 OFFCURVE",
"680 539 OFFCURVE",
"621 538 CURVE SMOOTH",
"591 536 OFFCURVE",
"559 536 OFFCURVE",
"526 536 CURVE SMOOTH",
"514 536 OFFCURVE",
"502 536 OFFCURVE",
"491 534 CURVE",
"447 550 OFFCURVE",
"401 556 OFFCURVE",
"362 556 CURVE SMOOTH",
"247 556 OFFCURVE",
"166 534 OFFCURVE",
"115 485 CURVE SMOOTH",
"63 435 OFFCURVE",
"40 359 OFFCURVE",
"40 250 CURVE SMOOTH",
"40 167 OFFCURVE",
"58 110 OFFCURVE",
"86 70 CURVE SMOOTH",
"116 30 OFFCURVE",
"157 8 OFFCURVE",
"203 -4 CURVE SMOOTH",
"250 -17 OFFCURVE",
"302 -19 OFFCURVE",
"354 -19 CURVE SMOOTH"
);
},
{
closed = 1;
nodes = (
"335 58 OFFCURVE",
"327 74 OFFCURVE",
"322 100 CURVE SMOOTH",
"317 125 OFFCURVE",
"314 157 OFFCURVE",
"313 187 CURVE SMOOTH",
"311 217 OFFCURVE",
"311 246 OFFCURVE",
"311 262 CURVE SMOOTH",
"311 294 OFFCURVE",
"311 330 OFFCURVE",
"313 362 CURVE SMOOTH",
"314 394 OFFCURVE",
"317 423 OFFCURVE",
"322 446 CURVE SMOOTH",
"327 466 OFFCURVE",
"335 480 OFFCURVE",
"347 480 CURVE SMOOTH",
"353 480 OFFCURVE",
"358 475 OFFCURVE",
"363 466 CURVE SMOOTH",
"371 447 OFFCURVE",
"377 418 OFFCURVE",
"380 384 CURVE SMOOTH",
"382 350 OFFCURVE",
"383 319 OFFCURVE",
"384 298 CURVE SMOOTH",
"384 286 OFFCURVE",
"384 280 OFFCURVE",
"384 278 CURVE SMOOTH",
"384 270 OFFCURVE",
"384 260 OFFCURVE",
"384 246 CURVE SMOOTH",
"383 218 OFFCURVE",
"382 185 OFFCURVE",
"380 151 CURVE SMOOTH",
"377 117 OFFCURVE",
"371 88 OFFCURVE",
"363 70 CURVE SMOOTH",
"358 62 OFFCURVE",
"354 58 OFFCURVE",
"347 58 CURVE SMOOTH"
);
}
);
width = 968;
}
);
leftKerningGroup = O;
rightKerningGroup = E;
unicode = 0152;
},
{
glyphname = P;
lastChange = "2016-07-08 08:24:15 +0000";
layers = (
{
anchors = (
{
name = bottom;
position = "{336, 0}";
},
{
name = top;
position = "{336, 541}";
}
);
background = {
paths = (
{
closed = 1;
nodes = (
"46 516 LINE",
"46 523 LINE",
"60 537 LINE",
"67 537 LINE",
"121 537 LINE",
"198 535 LINE",
"226 535 LINE",
"270 535 LINE",
"369 538 LINE",
"428 538 LINE",
"450 538 LINE",
"499 532 LINE",
"549 516 LINE",
"594 490 LINE",
"628 449 LINE",
"649 392 LINE",
"649 354 LINE",
"649 290 LINE",
"617 204 LINE",
"558 150 LINE",
"475 127 LINE",
"425 127 LINE",
"315 127 LINE",
"316 114 LINE",
"316 96 LINE",
"316 80 LINE",
"315 60 LINE",
"315 44 LINE",
"315 30 LINE",
"310 14 LINE",
"298 5 LINE",
"282 3 LINE",
"271 3 LINE",
"243 3 LINE",
"202 2 LINE",
"159 2 LINE",
"109 1 LINE",
"72 1 LINE",
"65 1 LINE",
"56 10 LINE",
"51 25 LINE",
"50 42 LINE",
"50 50 LINE",
"50 68 LINE",
"50 134 LINE",
"48 214 LINE",
"46 300 LINE",
"46 340 LINE"
);
},
{
closed = 1;
nodes = (
"322 226 LINE",
"322 225 LINE",
"326 224 LINE",
"329 223 LINE",
"344 223 LINE",
"358 223 LINE",
"366 223 LINE",
"379 241 LINE",
"387 269 LINE",
"392 303 LINE",
"394 336 LINE",
"394 364 LINE",
"394 371 LINE",
"394 372 LINE",
"394 386 LINE",
"392 407 LINE",
"387 430 LINE",
"379 449 LINE",
"366 462 LINE",
"358 462 LINE",
"350 462 LINE",
"340 442 LINE",
"333 408 LINE",
"327 366 LINE",
"326 344 LINE",
"322 292 LINE"
);
}
);
};
layerId = UUID0;
paths = (
{
closed = 1;
nodes = (
"97 1 OFFCURVE",
"117 1 OFFCURVE",
"134 1 CURVE SMOOTH",
"167 2 OFFCURVE",
"194 2 OFFCURVE",
"222 2 CURVE SMOOTH",
"236 3 OFFCURVE",
"253 3 OFFCURVE",
"271 3 CURVE SMOOTH",
"285 3 OFFCURVE",
"296 4 OFFCURVE",
"304 10 CURVE SMOOTH",
"311 15 OFFCURVE",
"315 25 OFFCURVE",
"315 44 CURVE SMOOTH",
"315 66 OFFCURVE",
"316 77 OFFCURVE",
"316 88 CURVE",
"316 99 OFFCURVE",
"316 109 OFFCURVE",
"315 127 CURVE",
"425 127 LINE SMOOTH",
"492 127 OFFCURVE",
"549 142 OFFCURVE",
"587 178 CURVE SMOOTH",
"626 213 OFFCURVE",
"649 270 OFFCURVE",
"649 354 CURVE SMOOTH",
"649 405 OFFCURVE",
"634 442 OFFCURVE",
"611 469 CURVE SMOOTH",
"588 496 OFFCURVE",
"557 514 OFFCURVE",
"524 524 CURVE SMOOTH",
"491 534 OFFCURVE",
"457 538 OFFCURVE",
"428 538 CURVE SMOOTH",
"388 538 OFFCURVE",
"352 537 OFFCURVE",
"319 536 CURVE SMOOTH",
"286 535 OFFCURVE",
"255 535 OFFCURVE",
"226 535 CURVE SMOOTH",
"207 535 OFFCURVE",
"185 535 OFFCURVE",
"159 536 CURVE SMOOTH",
"134 536 OFFCURVE",
"102 537 OFFCURVE",
"67 537 CURVE SMOOTH",
"58 537 OFFCURVE",
"46 526 OFFCURVE",
"46 516 CURVE SMOOTH",
"46 340 LINE SMOOTH",
"46 286 OFFCURVE",
"47 226 OFFCURVE",
"49 174 CURVE SMOOTH",
"50 120 OFFCURVE",
"50 74 OFFCURVE",
"50 50 CURVE SMOOTH",
"50 39 OFFCURVE",
"50 27 OFFCURVE",
"54 18 CURVE",
"57 8 OFFCURVE",
"62 1 OFFCURVE",
"72 1 CURVE SMOOTH"
);
},
{
closed = 1;
nodes = (
"331 223 OFFCURVE",
"328 224 OFFCURVE",
"326 224 CURVE",
"323 225 OFFCURVE",
"322 226 OFFCURVE",
"322 226 CURVE SMOOTH",
"322 270 OFFCURVE",
"323 309 OFFCURVE",
"326 344 CURVE SMOOTH",
"327 358 OFFCURVE",
"328 373 OFFCURVE",
"330 387 CURVE SMOOTH",
"334 415 OFFCURVE",
"338 438 OFFCURVE",
"346 451 CURVE SMOOTH",
"350 458 OFFCURVE",
"353 462 OFFCURVE",
"358 462 CURVE SMOOTH",
"363 462 OFFCURVE",
"369 460 OFFCURVE",
"373 455 CURVE SMOOTH",
"382 447 OFFCURVE",
"386 434 OFFCURVE",
"390 418 CURVE SMOOTH",
"393 403 OFFCURVE",
"394 389 OFFCURVE",
"394 380 CURVE",
"394 374 OFFCURVE",
"394 372 OFFCURVE",
"394 371 CURVE SMOOTH",
"394 362 OFFCURVE",
"394 342 OFFCURVE",
"393 319 CURVE SMOOTH",
"391 298 OFFCURVE",
"389 274 OFFCURVE",
"383 255 CURVE SMOOTH",
"378 236 OFFCURVE",
"370 223 OFFCURVE",
"358 223 CURVE SMOOTH",
"349 223 OFFCURVE",
"342 223 OFFCURVE",
"336 223 CURVE"
);
}
);
width = 671;
}
);
leftKerningGroup = H;
rightKerningGroup = P;
unicode = 0050;
},
{
glyphname = Thorn;
lastChange = "2016-07-08 08:24:15 +0000";
layers = (
{
background = {
paths = (
{
closed = 1;
nodes = (
"46 323 LINE",
"46 353 LINE",
"48 416 LINE",
"49 471 LINE",
"50 517 LINE",
"50 530 LINE",
"50 537 LINE",
"51 554 LINE",
"55 569 LINE",
"64 578 LINE",
"71 578 LINE",
"108 578 LINE",
"158 578 LINE",
"201 577 LINE",
"243 576 LINE",
"270 576 LINE",
"282 576 LINE",
"298 574 LINE",
"309 566 LINE",
"315 550 LINE",
"315 534 LINE",
"315 526 LINE",
"315 514 LINE",
"315 503 LINE",
"316 494 LINE",
"316 490 LINE",
"342 490 LINE",
"397 490 LINE",
"427 490 LINE",
"450 490 LINE",
"499 486 LINE",
"548 473 LINE",
"594 450 LINE",
"628 415 LINE",
"649 366 LINE",
"649 334 LINE",
"649 276 LINE",
"617 198 LINE",
"558 149 LINE",
"475 127 LINE",
"424 127 LINE",
"315 127 LINE",
"315 111 LINE",
"316 90 LINE",
"315 70 LINE",
"315 47 LINE",
"315 29 LINE",
"315 14 LINE",
"309 -2 LINE",
"298 -10 LINE",
"282 -13 LINE",
"270 -13 LINE",
"243 -13 LINE",
"201 -14 LINE",
"158 -14 LINE",
"108 -15 LINE",
"71 -15 LINE",
"64 -15 LINE",
"55 -6 LINE",
"51 9 LINE",
"50 26 LINE",
"50 34 LINE",
"50 50 LINE",
"49 104 LINE",
"48 171 LINE",
"46 246 LINE",
"46 282 LINE",
"46 306 LINE",
"46 320 LINE"
);
},
{
closed = 1;
nodes = (
"321 206 LINE",
"321 206 LINE",
"326 205 LINE",
"329 204 LINE",
"343 203 LINE",
"357 203 LINE",
"366 203 LINE",
"379 222 LINE",
"387 250 LINE",
"391 283 LINE",
"394 317 LINE",
"394 344 LINE",
"394 351 LINE",
"394 352 LINE",
"394 362 LINE",
"390 377 LINE",
"383 393 LINE",
"370 406 LINE",
"351 415 LINE",
"338 415 LINE",
"334 415 LINE",
"330 397 LINE",
"326 367 LINE",
"324 330 LINE",
"323 310 LINE",
"322 265 LINE"
);
}
);
};
layerId = UUID0;
paths = (
{
closed = 1;
nodes = (
"96 -15 OFFCURVE",
"117 -15 OFFCURVE",
"134 -14 CURVE SMOOTH",
"167 -14 OFFCURVE",
"194 -14 OFFCURVE",
"222 -13 CURVE SMOOTH",
"236 -13 OFFCURVE",
"252 -13 OFFCURVE",
"270 -13 CURVE SMOOTH",
"285 -13 OFFCURVE",
"296 -12 OFFCURVE",
"303 -6 CURVE SMOOTH",
"311 -1 OFFCURVE",
"315 10 OFFCURVE",
"315 29 CURVE SMOOTH",
"315 54 OFFCURVE",
"315 67 OFFCURVE",
"316 81 CURVE SMOOTH",
"316 94 OFFCURVE",
"315 106 OFFCURVE",
"315 127 CURVE",
"424 127 LINE SMOOTH",
"492 127 OFFCURVE",
"548 140 OFFCURVE",
"587 173 CURVE SMOOTH",
"626 206 OFFCURVE",
"649 257 OFFCURVE",
"649 334 CURVE SMOOTH",
"649 378 OFFCURVE",
"634 410 OFFCURVE",
"610 433 CURVE SMOOTH",
"587 456 OFFCURVE",
"556 470 OFFCURVE",
"523 479 CURVE SMOOTH",
"490 488 OFFCURVE",
"457 490 OFFCURVE",
"427 490 CURVE SMOOTH",
"386 490 OFFCURVE",
"350 490 OFFCURVE",
"316 490 CURVE",
"316 493 OFFCURVE",
"316 496 OFFCURVE",
"316 499 CURVE",
"315 502 OFFCURVE",
"315 505 OFFCURVE",
"315 509 CURVE SMOOTH",
"315 512 OFFCURVE",
"315 515 OFFCURVE",
"315 519 CURVE",
"315 524 OFFCURVE",
"315 529 OFFCURVE",
"315 534 CURVE SMOOTH",
"315 554 OFFCURVE",
"311 565 OFFCURVE",
"303 570 CURVE SMOOTH",
"296 575 OFFCURVE",
"285 576 OFFCURVE",
"270 576 CURVE SMOOTH",
"252 576 OFFCURVE",
"236 576 OFFCURVE",
"222 576 CURVE SMOOTH",
"208 577 OFFCURVE",
"194 577 OFFCURVE",
"180 577 CURVE SMOOTH",
"151 578 OFFCURVE",
"120 578 OFFCURVE",
"71 578 CURVE SMOOTH",
"62 578 OFFCURVE",
"56 571 OFFCURVE",
"54 562 CURVE SMOOTH",
"50 552 OFFCURVE",
"50 540 OFFCURVE",
"50 530 CURVE SMOOTH",
"50 521 OFFCURVE",
"50 509 OFFCURVE",
"50 494 CURVE SMOOTH",
"50 478 OFFCURVE",
"49 462 OFFCURVE",
"49 443 CURVE SMOOTH",
"48 406 OFFCURVE",
"46 363 OFFCURVE",
"46 323 CURVE SMOOTH",
"46 320 LINE",
"46 306 LINE",
"46 282 LINE SMOOTH",
"46 258 OFFCURVE",
"47 234 OFFCURVE",
"47 209 CURVE SMOOTH",
"48 158 OFFCURVE",
"49 114 OFFCURVE",
"50 78 CURVE SMOOTH",
"50 59 OFFCURVE",
"50 45 OFFCURVE",
"50 34 CURVE SMOOTH",
"50 23 OFFCURVE",
"50 11 OFFCURVE",
"54 2 CURVE",
"56 -8 OFFCURVE",
"62 -15 OFFCURVE",
"71 -15 CURVE SMOOTH"
);
},
{
closed = 1;
nodes = (
"348 203 OFFCURVE",
"341 203 OFFCURVE",
"336 204 CURVE",
"331 204 OFFCURVE",
"327 204 OFFCURVE",
"326 205 CURVE",
"322 205 OFFCURVE",
"321 206 OFFCURVE",
"321 206 CURVE SMOOTH",
"322 245 OFFCURVE",
"322 280 OFFCURVE",
"323 310 CURVE SMOOTH",
"323 323 OFFCURVE",
"324 336 OFFCURVE",
"325 349 CURVE SMOOTH",
"326 374 OFFCURVE",
"329 394 OFFCURVE",
"332 406 CURVE SMOOTH",
"334 412 OFFCURVE",
"335 415 OFFCURVE",
"338 415 CURVE SMOOTH",
"347 415 OFFCURVE",
"354 414 OFFCURVE",
"362 410 CURVE",
"374 404 OFFCURVE",
"382 395 OFFCURVE",
"386 385 CURVE SMOOTH",
"391 374 OFFCURVE",
"394 364 OFFCURVE",
"394 358 CURVE",
"394 354 OFFCURVE",
"394 352 OFFCURVE",
"394 351 CURVE SMOOTH",
"394 342 OFFCURVE",
"394 322 OFFCURVE",
"393 300 CURVE SMOOTH",
"391 278 OFFCURVE",
"389 254 OFFCURVE",
"383 235 CURVE SMOOTH",
"378 217 OFFCURVE",
"369 203 OFFCURVE",
"357 203 CURVE SMOOTH"
);
}
);
width = 662;
}
);
leftKerningGroup = H;
rightKerningGroup = Thorn;
unicode = 00DE;
},
{
glyphname = Q;
lastChange = "2016-07-08 08:24:15 +0000";
layers = (
{
background = {
paths = (
{
closed = 1;
nodes = (
"639 284 LINE",
"639 218 LINE",
"618 123 LINE",
"581 55 LINE",
"526 13 LINE",
"492 1 LINE",
"501 -11 LINE",
"520 -38 LINE",
"535 -62 LINE",
"545 -82 LINE",
"545 -87 LINE",
"545 -95 LINE",
"529 -110 LINE",
"506 -123 LINE",
"484 -135 LINE",
"477 -141 LINE",
"470 -142 LINE",
"454 -148 LINE",
"446 -150 LINE",
"445 -150 LINE",
"427 -157 LINE",
"406 -162 LINE",
"388 -166 LINE",
"386 -166 LINE",
"386 -170 LINE",
"380 -170 LINE",
"380 -170 LINE",
"376 -170 LINE",
"370 -166 LINE",
"360 -158 LINE",
"353 -151 LINE",
"350 -147 LINE",
"349 -146 LINE",
"348 -146 LINE",
"347 -146 LINE",
"345 -145 LINE",
"343 -142 LINE",
"280 -38 LINE",
"279 -35 LINE",
"272 -23 LINE",
"268 -17 LINE",
"235 -14 LINE",
"174 -2 LINE",
"120 22 LINE",
"75 61 LINE",
"42 118 LINE",
"25 198 LINE",
"25 250 LINE",
"25 332 LINE",
"61 448 LINE",
"138 522 LINE",
"261 556 LINE",
"346 556 LINE",
"375 556 LINE",
"442 546 LINE",
"506 523 LINE",
"566 484 LINE",
"612 423 LINE",
"639 340 LINE"
);
},
{
closed = 1;
nodes = (
"296 262 LINE",
"296 250 LINE",
"297 210 LINE",
"298 165 LINE",
"302 118 LINE",
"310 81 LINE",
"323 58 LINE",
"332 58 LINE",
"341 58 LINE",
"354 84 LINE",
"362 126 LINE",
"366 177 LINE",
"368 226 LINE",
"369 266 LINE",
"369 278 LINE",
"369 282 LINE",
"368 314 LINE",
"366 359 LINE",
"362 410 LINE",
"354 452 LINE",
"341 480 LINE",
"332 480 LINE",
"323 480 LINE",
"310 462 LINE",
"302 429 LINE",
"298 386 LINE",
"297 338 LINE",
"296 286 LINE"
);
}
);
};
layerId = UUID0;
paths = (
{
closed = 1;
nodes = (
"380 -170 OFFCURVE",
"381 -170 OFFCURVE",
"383 -170 CURVE SMOOTH",
"385 -170 OFFCURVE",
"386 -169 OFFCURVE",
"386 -166 CURVE",
"387 -166 OFFCURVE",
"391 -166 OFFCURVE",
"397 -165 CURVE",
"409 -162 OFFCURVE",
"424 -158 OFFCURVE",
"436 -154 CURVE SMOOTH",
"442 -151 OFFCURVE",
"446 -150 OFFCURVE",
"446 -150 CURVE",
"452 -149 OFFCURVE",
"457 -147 OFFCURVE",
"462 -145 CURVE",
"467 -143 OFFCURVE",
"472 -142 OFFCURVE",
"477 -141 CURVE",
"482 -137 OFFCURVE",
"488 -134 OFFCURVE",
"495 -129 CURVE",
"502 -125 OFFCURVE",
"510 -121 OFFCURVE",
"518 -117 CURVE SMOOTH",
"532 -107 OFFCURVE",
"545 -98 OFFCURVE",
"545 -87 CURVE",
"545 -80 OFFCURVE",
"538 -66 OFFCURVE",
"528 -50 CURVE SMOOTH",
"518 -34 OFFCURVE",
"504 -15 OFFCURVE",
"492 1 CURVE",
"538 17 OFFCURVE",
"574 44 OFFCURVE",
"600 90 CURVE SMOOTH",
"625 134 OFFCURVE",
"639 197 OFFCURVE",
"639 284 CURVE SMOOTH",
"639 358 OFFCURVE",
"619 414 OFFCURVE",
"589 454 CURVE SMOOTH",
"558 494 OFFCURVE",
"517 519 OFFCURVE",
"474 535 CURVE SMOOTH",
"430 550 OFFCURVE",
"385 556 OFFCURVE",
"346 556 CURVE SMOOTH",
"232 556 OFFCURVE",
"151 534 OFFCURVE",
"100 485 CURVE SMOOTH",
"48 435 OFFCURVE",
"25 359 OFFCURVE",
"25 250 CURVE SMOOTH",
"25 180 OFFCURVE",
"37 128 OFFCURVE",
"59 90 CURVE SMOOTH",
"81 50 OFFCURVE",
"111 26 OFFCURVE",
"147 10 CURVE SMOOTH",
"183 -6 OFFCURVE",
"225 -14 OFFCURVE",
"268 -17 CURVE",
"274 -26 OFFCURVE",
"278 -34 OFFCURVE",
"280 -38 CURVE",
"343 -142 LINE SMOOTH",
"344 -143 OFFCURVE",
"346 -145 OFFCURVE",
"346 -145 CURVE",
"347 -146 OFFCURVE",
"349 -146 OFFCURVE",
"350 -146 CURVE",
"350 -147 OFFCURVE",
"351 -149 OFFCURVE",
"353 -151 CURVE",
"362 -161 OFFCURVE",
"368 -166 OFFCURVE",
"373 -167 CURVE",
"375 -169 OFFCURVE",
"377 -170 OFFCURVE",
"378 -170 CURVE SMOOTH",
"379 -170 OFFCURVE",
"380 -170 OFFCURVE",
"380 -170 CURVE"
);
},
{
closed = 1;
nodes = (
"320 58 OFFCURVE",
"312 74 OFFCURVE",
"306 100 CURVE SMOOTH",
"302 125 OFFCURVE",
"299 157 OFFCURVE",
"298 187 CURVE SMOOTH",
"296 217 OFFCURVE",
"296 246 OFFCURVE",
"296 262 CURVE SMOOTH",
"296 294 OFFCURVE",
"296 330 OFFCURVE",
"298 362 CURVE SMOOTH",
"299 394 OFFCURVE",
"302 423 OFFCURVE",
"306 446 CURVE SMOOTH",
"312 466 OFFCURVE",
"320 480 OFFCURVE",
"332 480 CURVE SMOOTH",
"338 480 OFFCURVE",
"343 475 OFFCURVE",
"348 466 CURVE SMOOTH",
"356 447 OFFCURVE",
"362 418 OFFCURVE",
"365 384 CURVE SMOOTH",
"367 350 OFFCURVE",
"368 319 OFFCURVE",
"369 298 CURVE SMOOTH",
"369 286 OFFCURVE",
"369 280 OFFCURVE",
"369 278 CURVE SMOOTH",
"369 270 OFFCURVE",
"369 260 OFFCURVE",
"369 246 CURVE SMOOTH",
"368 218 OFFCURVE",
"367 185 OFFCURVE",
"365 151 CURVE SMOOTH",
"362 117 OFFCURVE",
"356 88 OFFCURVE",
"348 70 CURVE SMOOTH",
"343 62 OFFCURVE",
"338 58 OFFCURVE",
"332 58 CURVE SMOOTH"
);
}
);
width = 671;
}
);
leftKerningGroup = O;
rightKerningGroup = O;
unicode = 0051;
},
{
glyphname = R;
lastChange = "2016-07-08 08:24:15 +0000";
layers = (
{
anchors = (
{
name = bottom;
position = "{350, 0}";
},
{
name = top;
position = "{350, 541}";
}
);
background = {
paths = (
{
closed = 1;
nodes = (
"450 -10 LINE",
"448 -6 LINE",
"446 -5 LINE",
"445 -5 LINE",
"444 -5 LINE",
"442 -3 LINE",
"440 -1 LINE",
"372 100 LINE",
"370 102 LINE",
"362 116 LINE",
"353 129 LINE",
"344 139 LINE",
"342 139 LINE",
"338 139 LINE",
"335 119 LINE",
"334 90 LINE",
"334 54 LINE",
"332 25 LINE",
"328 5 LINE",
"323 5 LINE",
"320 5 LINE",
"315 6 LINE",
"314 6 LINE",
"271 3 LINE",
"190 -2 LINE",
"147 -2 LINE",
"142 -2 LINE",
"125 -1 LINE",
"108 -1 LINE",
"96 -1 LINE",
"95 -1 LINE",
"66 9 LINE",
"64 15 LINE",
"62 34 LINE",
"59 62 LINE",
"57 99 LINE",
"54 136 LINE",
"51 170 LINE",
"50 182 LINE",
"49 213 LINE",
"44 276 LINE",
"44 306 LINE",
"44 308 LINE",
"46 322 LINE",
"46 338 LINE",
"48 351 LINE",
"48 354 LINE",
"48 380 LINE",
"43 426 LINE",
"43 454 LINE",
"43 472 LINE",
"46 506 LINE",
"52 533 LINE",
"64 549 LINE",
"73 549 LINE",
"117 549 LINE",
"210 548 LINE",
"304 546 LINE",
"397 542 LINE",
"439 542 LINE",
"494 540 LINE",
"570 513 LINE",
"619 469 LINE",
"642 413 LINE",
"642 382 LINE",
"642 362 LINE",
"634 328 LINE",
"622 300 LINE",
"606 278 LINE",
"597 269 LINE",
"577 249 LINE",
"551 237 LINE",
"558 231 LINE",
"564 226 LINE",
"570 221 LINE",
"581 211 LINE",
"586 208 LINE",
"590 202 LINE",
"606 183 LINE",
"626 159 LINE",
"646 133 LINE",
"664 108 LINE",
"674 88 LINE",
"674 82 LINE",
"674 74 LINE",
"659 59 LINE",
"638 45 LINE",
"615 32 LINE",
"608 26 LINE",
"594 18 LINE",
"562 1 LINE",
"544 -5 LINE",
"543 -5 LINE",
"533 -9 LINE",
"519 -14 LINE",
"504 -18 LINE",
"492 -22 LINE",
"484 -24 LINE",
"484 -23 LINE",
"482 -27 LINE",
"478 -27 LINE",
"478 -27 LINE",
"474 -27 LINE",
"467 -24 LINE",
"457 -18 LINE"
);
},
{
closed = 1;
nodes = (
"325 258 LINE",
"325 257 LINE",
"327 256 LINE",
"329 255 LINE",
"337 255 LINE",
"345 255 LINE",
"358 255 LINE",
"378 269 LINE",
"390 291 LINE",
"398 318 LINE",
"401 344 LINE",
"401 366 LINE",
"401 371 LINE",
"401 372 LINE",
"401 386 LINE",
"398 407 LINE",
"390 430 LINE",
"378 449 LINE",
"358 462 LINE",
"345 462 LINE",
"341 462 LINE",
"334 444 LINE",
"331 415 LINE",
"328 378 LINE",
"327 359 LINE",
"325 314 LINE"
);
}
);
};
layerId = UUID0;
paths = (
{
closed = 1;
nodes = (
"477 -27 OFFCURVE",
"478 -27 OFFCURVE",
"478 -27 CURVE SMOOTH",
"478 -27 OFFCURVE",
"479 -27 OFFCURVE",
"481 -27 CURVE SMOOTH",
"482 -27 OFFCURVE",
"483 -26 OFFCURVE",
"484 -23 CURVE",
"484 -23 OFFCURVE",
"485 -23 OFFCURVE",
"488 -23 CURVE SMOOTH",
"490 -22 OFFCURVE",
"494 -22 OFFCURVE",
"498 -20 CURVE SMOOTH",
"502 -19 OFFCURVE",
"507 -18 OFFCURVE",
"512 -16 CURVE SMOOTH",
"522 -13 OFFCURVE",
"531 -10 OFFCURVE",
"538 -7 CURVE",
"542 -6 OFFCURVE",
"543 -5 OFFCURVE",
"544 -5 CURVE",
"556 -1 OFFCURVE",
"567 4 OFFCURVE",
"578 10 CURVE SMOOTH",
"589 16 OFFCURVE",
"598 21 OFFCURVE",
"608 26 CURVE",
"613 30 OFFCURVE",
"619 34 OFFCURVE",
"626 38 CURVE SMOOTH",
"634 42 OFFCURVE",
"642 47 OFFCURVE",
"649 52 CURVE SMOOTH",
"663 62 OFFCURVE",
"674 71 OFFCURVE",
"674 82 CURVE SMOOTH",
"674 86 OFFCURVE",
"673 91 OFFCURVE",
"669 98 CURVE SMOOTH",
"662 112 OFFCURVE",
"650 128 OFFCURVE",
"636 146 CURVE SMOOTH",
"622 163 OFFCURVE",
"609 180 OFFCURVE",
"598 193 CURVE SMOOTH",
"593 200 OFFCURVE",
"589 204 OFFCURVE",
"586 208 CURVE",
"582 210 OFFCURVE",
"579 213 OFFCURVE",
"575 216 CURVE",
"571 219 OFFCURVE",
"567 222 OFFCURVE",
"564 226 CURVE",
"560 230 OFFCURVE",
"556 234 OFFCURVE",
"551 237 CURVE",
"568 245 OFFCURVE",
"583 255 OFFCURVE",
"597 269 CURVE SMOOTH",
"608 280 OFFCURVE",
"620 295 OFFCURVE",
"629 314 CURVE SMOOTH",
"637 333 OFFCURVE",
"642 354 OFFCURVE",
"642 382 CURVE SMOOTH",
"642 423 OFFCURVE",
"628 462 OFFCURVE",
"595 490 CURVE SMOOTH",
"562 520 OFFCURVE",
"511 539 OFFCURVE",
"439 542 CURVE SMOOTH",
"411 542 OFFCURVE",
"382 543 OFFCURVE",
"350 544 CURVE SMOOTH",
"319 545 OFFCURVE",
"288 546 OFFCURVE",
"257 546 CURVE SMOOTH",
"194 548 OFFCURVE",
"131 549 OFFCURVE",
"73 549 CURVE SMOOTH",
"61 549 OFFCURVE",
"53 537 OFFCURVE",
"49 520 CURVE SMOOTH",
"44 502 OFFCURVE",
"43 478 OFFCURVE",
"43 454 CURVE SMOOTH",
"43 435 OFFCURVE",
"44 418 OFFCURVE",
"46 403 CURVE SMOOTH",
"47 387 OFFCURVE",
"48 371 OFFCURVE",
"48 354 CURVE SMOOTH",
"48 352 OFFCURVE",
"48 350 OFFCURVE",
"47 345 CURVE SMOOTH",
"47 340 OFFCURVE",
"46 335 OFFCURVE",
"46 330 CURVE SMOOTH",
"46 325 OFFCURVE",
"46 320 OFFCURVE",
"45 315 CURVE SMOOTH",
"45 310 OFFCURVE",
"44 307 OFFCURVE",
"44 306 CURVE SMOOTH",
"44 286 OFFCURVE",
"45 266 OFFCURVE",
"46 245 CURVE SMOOTH",
"48 223 OFFCURVE",
"50 202 OFFCURVE",
"50 182 CURVE SMOOTH",
"51 174 OFFCURVE",
"52 165 OFFCURVE",
"53 153 CURVE SMOOTH",
"54 130 OFFCURVE",
"56 106 OFFCURVE",
"58 81 CURVE SMOOTH",
"60 56 OFFCURVE",
"62 37 OFFCURVE",
"63 25 CURVE",
"63 18 OFFCURVE",
"64 15 OFFCURVE",
"64 15 CURVE",
"66 9 LINE",
"95 -1 LINE",
"96 -1 OFFCURVE",
"98 -1 OFFCURVE",
"102 -1 CURVE",
"106 -1 OFFCURVE",
"111 -1 OFFCURVE",
"117 -1 CURVE SMOOTH",
"122 -1 OFFCURVE",
"127 -1 OFFCURVE",
"134 -1 CURVE",
"139 -2 OFFCURVE",
"143 -2 OFFCURVE",
"147 -2 CURVE SMOOTH",
"175 -2 OFFCURVE",
"203 -1 OFFCURVE",
"230 1 CURVE SMOOTH",
"258 2 OFFCURVE",
"286 4 OFFCURVE",
"314 6 CURVE",
"314 6 OFFCURVE",
"316 6 OFFCURVE",
"318 5 CURVE SMOOTH",
"319 5 OFFCURVE",
"322 5 OFFCURVE",
"323 5 CURVE SMOOTH",
"326 5 OFFCURVE",
"329 8 OFFCURVE",
"330 15 CURVE SMOOTH",
"333 28 OFFCURVE",
"334 49 OFFCURVE",
"334 72 CURVE SMOOTH",
"334 95 OFFCURVE",
"335 116 OFFCURVE",
"337 130 CURVE SMOOTH",
"338 136 OFFCURVE",
"339 139 OFFCURVE",
"342 139 CURVE SMOOTH",
"343 139 OFFCURVE",
"346 138 OFFCURVE",
"349 134 CURVE",
"351 130 OFFCURVE",
"354 126 OFFCURVE",
"358 122 CURVE",
"364 114 OFFCURVE",
"370 103 OFFCURVE",
"372 100 CURVE",
"440 -1 LINE",
"442 -2 OFFCURVE",
"442 -3 OFFCURVE",
"443 -4 CURVE",
"444 -4 OFFCURVE",
"445 -5 OFFCURVE",
"445 -5 CURVE SMOOTH",
"446 -5 OFFCURVE",
"446 -5 OFFCURVE",
"447 -6 CURVE SMOOTH",
"448 -6 OFFCURVE",
"449 -8 OFFCURVE",
"450 -10 CURVE",
"459 -20 OFFCURVE",
"466 -24 OFFCURVE",
"470 -26 CURVE",
"473 -27 OFFCURVE",
"474 -27 OFFCURVE",
"476 -27 CURVE SMOOTH"
);
},
{
closed = 1;
nodes = (
"330 255 OFFCURVE",
"328 256 OFFCURVE",
"327 256 CURVE SMOOTH",
"326 257 OFFCURVE",
"325 257 OFFCURVE",
"325 258 CURVE",
"325 295 OFFCURVE",
"326 330 OFFCURVE",
"327 359 CURVE SMOOTH",
"327 372 OFFCURVE",
"328 385 OFFCURVE",
"330 397 CURVE SMOOTH",
"331 422 OFFCURVE",
"334 442 OFFCURVE",
"338 453 CURVE SMOOTH",
"340 459 OFFCURVE",
"342 462 OFFCURVE",
"345 462 CURVE SMOOTH",
"354 462 OFFCURVE",
"362 460 OFFCURVE",
"368 455 CURVE SMOOTH",
"382 447 OFFCURVE",
"390 434 OFFCURVE",
"394 418 CURVE SMOOTH",
"399 403 OFFCURVE",
"401 389 OFFCURVE",
"401 380 CURVE",
"401 374 OFFCURVE",
"401 372 OFFCURVE",
"401 371 CURVE SMOOTH",
"401 363 OFFCURVE",
"401 348 OFFCURVE",
"399 331 CURVE SMOOTH",
"398 314 OFFCURVE",
"393 294 OFFCURVE",
"384 280 CURVE SMOOTH",
"376 266 OFFCURVE",
"363 255 OFFCURVE",
"345 255 CURVE SMOOTH",
"339 255 OFFCURVE",
"335 255 OFFCURVE",
"333 255 CURVE"
);
}
);
width = 698;
}
);
leftKerningGroup = H;
rightKerningGroup = R;
unicode = 0052;
},
{
glyphname = S;
lastChange = "2016-07-08 08:24:15 +0000";
layers = (
{
anchors = (
{
name = bottom;
position = "{273, 0}";
},
{
name = top;
position = "{289, 541}";
}
);
background = {
paths = (
{
closed = 1;
nodes = (
"536 161 LINE",
"533 129 LINE",
"508 77 LINE",
"470 37 LINE",
"420 8 LINE",
"363 -10 LINE",
"300 -19 LINE",
"269 -19 LINE",
"239 -19 LINE",
"182 -13 LINE",
"128 0 LINE",
"80 18 LINE",
"61 30 LINE",
"50 63 LINE",
"39 134 LINE",
"34 170 LINE",
"34 173 LINE",
"35 177 LINE",
"40 185 LINE",
"45 187 LINE",
"74 169 LINE",
"130 150 LINE",
"165 150 LINE",
"172 150 LINE",
"197 149 LINE",
"222 151 LINE",
"245 160 LINE",
"249 170 LINE",
"228 181 LINE",
"182 202 LINE",
"138 226 LINE",
"99 255 LINE",
"69 293 LINE",
"51 339 LINE",
"51 370 LINE",
"51 408 LINE",
"74 466 LINE",
"115 507 LINE",
"169 534 LINE",
"230 550 LINE",
"294 556 LINE",
"324 556 LINE",
"356 556 LINE",
"410 550 LINE",
"458 543 LINE",
"499 535 LINE",
"518 534 LINE",
"519 534 LINE",
"523 530 LINE",
"526 526 LINE",
"530 522 LINE",
"531 522 LINE",
"532 522 LINE",
"532 522 LINE",
"533 522 LINE",
"534 501 LINE",
"539 458 LINE",
"539 437 LINE",
"539 430 LINE",
"538 415 LINE",
"534 401 LINE",
"528 389 LINE",
"522 385 LINE",
"448 394 LINE",
"445 394 LINE",
"435 394 LINE",
"429 394 LINE",
"416 394 LINE",
"382 391 LINE",
"350 386 LINE",
"330 382 LINE",
"330 380 LINE",
"330 368 LINE",
"345 350 LINE",
"366 338 LINE",
"387 330 LINE",
"394 327 LINE",
"424 318 LINE",
"478 288 LINE",
"517 250 LINE",
"539 206 LINE",
"539 186 LINE",
"539 180 LINE",
"538 169 LINE"
);
}
);
};
layerId = UUID0;
paths = (
{
closed = 1;
nodes = (
"311 -19 OFFCURVE",
"354 -14 OFFCURVE",
"392 -1 CURVE SMOOTH",
"430 11 OFFCURVE",
"464 30 OFFCURVE",
"490 57 CURVE SMOOTH",
"514 83 OFFCURVE",
"532 118 OFFCURVE",
"536 161 CURVE",
"538 171 OFFCURVE",
"539 178 OFFCURVE",
"539 186 CURVE SMOOTH",
"539 213 OFFCURVE",
"523 243 OFFCURVE",
"497 269 CURVE SMOOTH",
"470 294 OFFCURVE",
"434 316 OFFCURVE",
"394 327 CURVE",
"386 330 OFFCURVE",
"370 335 OFFCURVE",
"355 344 CURVE SMOOTH",
"342 353 OFFCURVE",
"330 365 OFFCURVE",
"330 380 CURVE SMOOTH",
"330 381 OFFCURVE",
"334 382 OFFCURVE",
"340 383 CURVE SMOOTH",
"347 385 OFFCURVE",
"356 386 OFFCURVE",
"366 389 CURVE SMOOTH",
"386 392 OFFCURVE",
"412 394 OFFCURVE",
"429 394 CURVE SMOOTH",
"434 394 OFFCURVE",
"437 394 OFFCURVE",
"440 394 CURVE SMOOTH",
"443 394 OFFCURVE",
"446 394 OFFCURVE",
"448 394 CURVE",
"522 385 LINE",
"530 390 OFFCURVE",
"534 398 OFFCURVE",
"537 408 CURVE SMOOTH",
"539 417 OFFCURVE",
"539 427 OFFCURVE",
"539 437 CURVE SMOOTH",
"539 451 OFFCURVE",
"538 466 OFFCURVE",
"537 480 CURVE SMOOTH",
"534 494 OFFCURVE",
"534 508 OFFCURVE",
"533 522 CURVE",
"533 522 OFFCURVE",
"532 522 OFFCURVE",
"532 522 CURVE SMOOTH",
"532 522 OFFCURVE",
"532 522 OFFCURVE",
"531 522 CURVE",
"529 522 OFFCURVE",
"526 525 OFFCURVE",
"525 528 CURVE",
"522 530 OFFCURVE",
"520 534 OFFCURVE",
"518 534 CURVE",
"505 534 OFFCURVE",
"492 537 OFFCURVE",
"478 539 CURVE SMOOTH",
"465 542 OFFCURVE",
"450 544 OFFCURVE",
"434 547 CURVE SMOOTH",
"402 551 OFFCURVE",
"366 556 OFFCURVE",
"324 556 CURVE SMOOTH",
"283 556 OFFCURVE",
"239 552 OFFCURVE",
"199 542 CURVE SMOOTH",
"158 532 OFFCURVE",
"122 514 OFFCURVE",
"95 486 CURVE SMOOTH",
"68 459 OFFCURVE",
"51 421 OFFCURVE",
"51 370 CURVE SMOOTH",
"51 350 OFFCURVE",
"54 332 OFFCURVE",
"60 316 CURVE SMOOTH",
"72 285 OFFCURVE",
"92 260 OFFCURVE",
"118 241 CURVE SMOOTH",
"146 222 OFFCURVE",
"175 206 OFFCURVE",
"206 191 CURVE SMOOTH",
"221 184 OFFCURVE",
"235 177 OFFCURVE",
"249 170 CURVE",
"246 163 OFFCURVE",
"242 158 OFFCURVE",
"234 155 CURVE SMOOTH",
"219 150 OFFCURVE",
"201 149 OFFCURVE",
"184 150 CURVE SMOOTH",
"176 150 OFFCURVE",
"170 150 OFFCURVE",
"165 150 CURVE SMOOTH",
"118 150 OFFCURVE",
"83 163 OFFCURVE",
"45 187 CURVE",
"38 184 OFFCURVE",
"35 178 OFFCURVE",
"34 173 CURVE",
"34 170 LINE",
"41 122 OFFCURVE",
"46 74 OFFCURVE",
"61 30 CURVE",
"86 14 OFFCURVE",
"118 2 OFFCURVE",
"154 -6 CURVE SMOOTH",
"190 -14 OFFCURVE",
"230 -19 OFFCURVE",
"269 -19 CURVE SMOOTH"
);
}
);
width = 577;
}
);
leftKerningGroup = S;
rightKerningGroup = S;
unicode = 0053;
},
{
glyphname = Germandbls;
lastChange = "2016-07-08 08:24:15 +0000";
layers = (
{
background = {
paths = (
{
closed = 1;
nodes = (
"357 175 LINE",
"378 179 LINE",
"421 183 LINE",
"443 187 LINE",
"454 189 LINE",
"463 205 LINE",
"463 213 LINE",
"463 221 LINE",
"450 224 LINE",
"427 238 LINE",
"386 250 LINE",
"364 250 LINE",
"365 346 LINE",
"369 349 LINE",
"379 354 LINE",
"388 359 LINE",
"395 362 LINE",
"396 362 LINE",
"400 364 LINE",
"412 367 LINE",
"422 375 LINE",
"429 389 LINE",
"429 400 LINE",
"429 408 LINE",
"409 417 LINE",
"382 421 LINE",
"354 422 LINE",
"347 422 LINE",
"334 422 LINE",
"321 414 LINE",
"314 398 LINE",
"313 378 LINE",
"313 366 LINE",
"313 366 LINE",
"313 356 LINE",
"313 342 LINE",
"314 325 LINE",
"314 310 LINE",
"314 300 LINE",
"312 253 LINE",
"312 250 LINE",
"313 233 LINE",
"314 213 LINE",
"315 195 LINE",
"315 193 LINE",
"315 152 LINE",
"315 136 LINE",
"314 108 LINE",
"313 82 LINE",
"312 54 LINE",
"312 37 LINE",
"311 34 LINE",
"308 24 LINE",
"303 16 LINE",
"298 10 LINE",
"294 10 LINE",
"283 7 LINE",
"268 6 LINE",
"255 4 LINE",
"242 4 LINE",
"232 4 LINE",
"179 4 LINE",
"108 4 LINE",
"66 7 LINE",
"47 14 LINE",
"47 20 LINE",
"47 25 LINE",
"48 49 LINE",
"48 78 LINE",
"49 112 LINE",
"50 141 LINE",
"50 163 LINE",
"50 166 LINE",
"50 185 LINE",
"48 219 LINE",
"45 254 LINE",
"43 288 LINE",
"43 306 LINE",
"43 369 LINE",
"62 455 LINE",
"97 510 LINE",
"145 541 LINE",
"202 554 LINE",
"268 557 LINE",
"302 557 LINE",
"314 557 LINE",
"326 557 LINE",
"332 556 LINE",
"336 556 LINE",
"342 555 LINE",
"354 555 LINE",
"366 555 LINE",
"388 552 LINE",
"441 545 LINE",
"494 532 LINE",
"544 512 LINE",
"582 481 LINE",
"605 436 LINE",
"605 405 LINE",
"605 375 LINE",
"582 334 LINE",
"558 318 LINE",
"550 315 LINE",
"534 310 LINE",
"530 306 LINE",
"533 302 LINE",
"570 295 LINE",
"622 270 LINE",
"655 231 LINE",
"672 175 LINE",
"675 137 LINE",
"676 133 LINE",
"677 125 LINE",
"677 120 LINE",
"677 105 LINE",
"665 73 LINE",
"636 44 LINE",
"589 19 LINE",
"518 1 LINE",
"422 -10 LINE",
"359 -10 LINE",
"357 -10 LINE"
);
}
);
};
layerId = UUID0;
paths = (
{
closed = 1;
nodes = (
"359 -10 LINE",
"443 -10 OFFCURVE",
"506 -2 OFFCURVE",
"554 10 CURVE SMOOTH",
"601 22 OFFCURVE",
"632 39 OFFCURVE",
"650 58 CURVE SMOOTH",
"669 78 OFFCURVE",
"677 100 OFFCURVE",
"677 120 CURVE SMOOTH",
"677 123 OFFCURVE",
"677 126 OFFCURVE",
"676 129 CURVE SMOOTH",
"676 131 OFFCURVE",
"676 134 OFFCURVE",
"675 137 CURVE",
"670 188 OFFCURVE",
"661 224 OFFCURVE",
"638 250 CURVE SMOOTH",
"617 277 OFFCURVE",
"583 293 OFFCURVE",
"533 302 CURVE",
"530 306 LINE",
"533 309 OFFCURVE",
"536 311 OFFCURVE",
"542 313 CURVE",
"547 314 OFFCURVE",
"552 317 OFFCURVE",
"558 318 CURVE",
"590 339 OFFCURVE",
"605 366 OFFCURVE",
"605 405 CURVE SMOOTH",
"605 446 OFFCURVE",
"588 476 OFFCURVE",
"563 497 CURVE SMOOTH",
"538 517 OFFCURVE",
"503 530 OFFCURVE",
"468 538 CURVE SMOOTH",
"432 546 OFFCURVE",
"395 550 OFFCURVE",
"366 555 CURVE",
"358 555 OFFCURVE",
"352 555 OFFCURVE",
"348 555 CURVE",
"344 555 OFFCURVE",
"341 555 OFFCURVE",
"339 556 CURVE",
"337 556 OFFCURVE",
"335 556 OFFCURVE",
"334 556 CURVE",
"333 556 OFFCURVE",
"331 556 OFFCURVE",
"329 557 CURVE",
"327 557 OFFCURVE",
"324 557 OFFCURVE",
"320 557 CURVE",
"316 557 OFFCURVE",
"310 557 OFFCURVE",
"302 557 CURVE SMOOTH",
"256 557 OFFCURVE",
"212 557 OFFCURVE",
"174 548 CURVE SMOOTH",
"134 538 OFFCURVE",
"102 520 OFFCURVE",
"80 483 CURVE SMOOTH",
"56 446 OFFCURVE",
"43 390 OFFCURVE",
"43 306 CURVE SMOOTH",
"43 282 OFFCURVE",
"45 260 OFFCURVE",
"46 237 CURVE SMOOTH",
"48 214 OFFCURVE",
"50 191 OFFCURVE",
"50 166 CURVE SMOOTH",
"50 164 OFFCURVE",
"50 159 OFFCURVE",
"50 152 CURVE",
"50 145 OFFCURVE",
"50 136 OFFCURVE",
"50 126 CURVE",
"49 117 OFFCURVE",
"49 106 OFFCURVE",
"49 95 CURVE SMOOTH",
"48 84 OFFCURVE",
"48 74 OFFCURVE",
"48 64 CURVE",
"48 54 OFFCURVE",
"48 45 OFFCURVE",
"48 37 CURVE",
"47 29 OFFCURVE",
"47 23 OFFCURVE",
"47 20 CURVE SMOOTH",
"47 16 OFFCURVE",
"50 13 OFFCURVE",
"56 10 CURVE",
"62 8 OFFCURVE",
"72 6 OFFCURVE",
"86 6 CURVE SMOOTH",
"101 5 OFFCURVE",
"120 4 OFFCURVE",
"144 4 CURVE SMOOTH",
"167 4 OFFCURVE",
"197 4 OFFCURVE",
"232 4 CURVE SMOOTH",
"238 4 OFFCURVE",
"244 4 OFFCURVE",
"249 4 CURVE SMOOTH",
"253 4 OFFCURVE",
"258 5 OFFCURVE",
"262 5 CURVE SMOOTH",
"270 6 OFFCURVE",
"279 6 OFFCURVE",
"294 10 CURVE",
"298 10 OFFCURVE",
"302 15 OFFCURVE",
"306 20 CURVE SMOOTH",
"309 26 OFFCURVE",
"310 33 OFFCURVE",
"312 37 CURVE",
"312 59 OFFCURVE",
"313 77 OFFCURVE",
"314 94 CURVE SMOOTH",
"314 112 OFFCURVE",
"315 130 OFFCURVE",
"315 152 CURVE SMOOTH",
"315 193 LINE SMOOTH",
"315 194 OFFCURVE",
"315 198 OFFCURVE",
"314 204 CURVE SMOOTH",
"314 210 OFFCURVE",
"314 216 OFFCURVE",
"314 222 CURVE SMOOTH",
"313 236 OFFCURVE",
"312 250 OFFCURVE",
"312 253 CURVE SMOOTH",
"314 300 LINE SMOOTH",
"314 300 OFFCURVE",
"314 302 OFFCURVE",
"314 306 CURVE SMOOTH",
"314 309 OFFCURVE",
"314 313 OFFCURVE",
"314 318 CURVE SMOOTH",
"314 322 OFFCURVE",
"314 327 OFFCURVE",
"314 334 CURVE",
"313 338 OFFCURVE",
"313 344 OFFCURVE",
"313 349 CURVE SMOOTH",
"313 354 OFFCURVE",
"313 358 OFFCURVE",
"313 361 CURVE SMOOTH",
"313 364 OFFCURVE",
"313 366 OFFCURVE",
"313 366 CURVE SMOOTH",
"313 381 OFFCURVE",
"313 395 OFFCURVE",
"318 406 CURVE SMOOTH",
"322 416 OFFCURVE",
"330 422 OFFCURVE",
"347 422 CURVE SMOOTH",
"356 422 OFFCURVE",
"377 422 OFFCURVE",
"395 418 CURVE SMOOTH",
"414 416 OFFCURVE",
"429 410 OFFCURVE",
"429 400 CURVE SMOOTH",
"429 393 OFFCURVE",
"428 386 OFFCURVE",
"426 382 CURVE",
"421 373 OFFCURVE",
"414 368 OFFCURVE",
"406 366 CURVE SMOOTH",
"402 365 OFFCURVE",
"399 364 OFFCURVE",
"396 362 CURVE",
"395 362 OFFCURVE",
"394 362 OFFCURVE",
"392 361 CURVE",
"390 360 OFFCURVE",
"386 358 OFFCURVE",
"383 357 CURVE",
"381 354 OFFCURVE",
"378 353 OFFCURVE",
"374 351 CURVE SMOOTH",
"370 350 OFFCURVE",
"367 348 OFFCURVE",
"365 346 CURVE",
"364 250 LINE",
"394 249 OFFCURVE",
"419 243 OFFCURVE",
"450 224 CURVE",
"458 222 OFFCURVE",
"463 218 OFFCURVE",
"463 213 CURVE SMOOTH",
"463 202 OFFCURVE",
"457 190 OFFCURVE",
"443 187 CURVE SMOOTH",
"429 185 OFFCURVE",
"414 183 OFFCURVE",
"400 182 CURVE SMOOTH",
"386 180 OFFCURVE",
"371 178 OFFCURVE",
"357 175 CURVE",
"357 -10 LINE"
);
}
);
width = 708;
}
);
leftKerningGroup = H;
rightKerningGroup = S;
unicode = 1E9E;
},
{
glyphname = Schwa;
lastChange = "2016-07-08 08:24:15 +0000";
layers = (
{
anchors = (
{
name = bottom;
position = "{344, 0}";
},
{
name = top;
position = "{344, 541}";
}
);
background = {
paths = (
{
closed = 1;
nodes = (
"1138 478 LINE",
"1078 518 LINE",
"1013 541 LINE",
"947 550 LINE",
"784 550 LINE",
"636 529 LINE",
"622 510 LINE",
"622 394 LINE",
"635 380 LINE",
"737 398 LINE",
"806 402 LINE",
"827 402 LINE",
"892 388 LINE",
"929 358 LINE",
"934 341 LINE",
"938 309 LINE",
"939 284 LINE",
"906 282 LINE",
"809 281 LINE",
"612 282 LINE",
"597 266 LINE",
"597 188 LINE",
"622 100 LINE",
"666 40 LINE",
"726 5 LINE",
"794 -14 LINE",
"871 -19 LINE",
"955 -19 LINE",
"1034 -10 LINE",
"1102 15 LINE",
"1154 58 LINE",
"1192 126 LINE",
"1211 220 LINE",
"1211 334 LINE",
"1184 418 LINE"
);
},
{
closed = 1;
nodes = (
"934 119 LINE",
"926 82 LINE",
"913 58 LINE",
"894 58 LINE",
"882 78 LINE",
"874 113 LINE",
"870 144 LINE",
"868 166 LINE",
"868 190 LINE",
"895 189 LINE",
"941 192 LINE",
"941 180 LINE",
"938 155 LINE"
);
},
{
closed = 1;
nodes = (
"382 193 LINE",
"382 179 OFFCURVE",
"381 165 OFFCURVE",
"378 151 CURVE SMOOTH",
"372 117 OFFCURVE",
"370 88 OFFCURVE",
"361 70 CURVE SMOOTH",
"356 62 OFFCURVE",
"351 58 OFFCURVE",
"344 58 CURVE SMOOTH",
"331 58 OFFCURVE",
"322 74 OFFCURVE",
"317 100 CURVE SMOOTH",
"312 125 OFFCURVE",
"308 157 OFFCURVE",
"307 187 CURVE"
);
}
);
};
layerId = UUID0;
paths = (
{
closed = 1;
nodes = (
"458 -11 LINE SMOOTH",
"570 2 OFFCURVE",
"652 123 OFFCURVE",
"651 244 CURVE SMOOTH",
"650 310 LINE SMOOTH",
"650 430 OFFCURVE",
"555 528 OFFCURVE",
"436 541 CURVE SMOOTH",
"363 549 LINE",
"257 550 LINE SMOOTH",
"206 550 OFFCURVE",
"118 539 OFFCURVE",
"76 529 CURVE",
"62 510 LINE",
"62 394 LINE",
"75 380 LINE",
"109 386 OFFCURVE",
"154 397 OFFCURVE",
"189 398 CURVE SMOOTH",
"246 402 LINE",
"263 402 LINE",
"289 397 OFFCURVE",
"310 395 OFFCURVE",
"330 386 CURVE SMOOTH",
"358 375 OFFCURVE",
"370 362 OFFCURVE",
"374 341 CURVE",
"378 309 LINE",
"379 284 LINE",
"346 282 LINE",
"249 281 LINE",
"52 282 LINE",
"37 266 LINE",
"37 188 LINE SMOOTH",
"37 74 OFFCURVE",
"133 -13 OFFCURVE",
"294 -17 CURVE SMOOTH",
"395 -19 LINE"
);
},
{
closed = 1;
nodes = (
"331 58 OFFCURVE",
"322 74 OFFCURVE",
"317 100 CURVE SMOOTH",
"312 125 OFFCURVE",
"308 157 OFFCURVE",
"307 187 CURVE",
"382 193 LINE",
"382 179 OFFCURVE",
"381 165 OFFCURVE",
"378 151 CURVE SMOOTH",
"372 117 OFFCURVE",
"370 88 OFFCURVE",
"361 70 CURVE SMOOTH",
"356 62 OFFCURVE",
"351 58 OFFCURVE",
"344 58 CURVE SMOOTH"
);
}
);
width = 687;
}
);
leftKerningGroup = O;
leftMetricsKey = O;
rightKerningGroup = O;
rightMetricsKey = O;
unicode = 018F;
},
{
glyphname = T;
lastChange = "2016-07-08 08:24:15 +0000";
layers = (
{
anchors = (
{
name = bottom;
position = "{289, 0}";
},
{
name = center;
position = "{289, 270}";
},
{
name = top;
position = "{289, 541}";
}
);
background = {
paths = (
{
closed = 1;
nodes = (
"151 359 LINE",
"151 360 LINE",
"149 362 LINE",
"60 362 LINE",
"49 362 LINE",
"37 388 LINE",
"31 425 LINE",
"30 462 LINE",
"30 475 LINE",
"30 478 LINE",
"30 492 LINE",
"31 506 LINE",
"31 517 LINE",
"31 518 LINE",
"31 523 LINE",
"40 530 LINE",
"53 534 LINE",
"66 534 LINE",
"71 534 LINE",
"101 534 LINE",
"162 533 LINE",
"192 533 LINE",
"480 533 LINE",
"506 533 LINE",
"535 530 LINE",
"549 525 LINE",
"550 516 LINE",
"550 510 LINE",
"550 378 LINE",
"550 373 LINE",
"546 368 LINE",
"539 366 LINE",
"532 365 LINE",
"530 365 LINE",
"518 365 LINE",
"492 365 LINE",
"464 365 LINE",
"437 366 LINE",
"426 366 LINE",
"422 366 LINE",
"419 365 LINE",
"417 362 LINE",
"417 354 LINE",
"417 346 LINE",
"417 341 LINE",
"416 298 LINE",
"414 228 LINE",
"410 154 LINE",
"408 118 LINE",
"408 42 LINE",
"408 26 LINE",
"402 11 LINE",
"390 4 LINE",
"373 2 LINE",
"362 2 LINE",
"337 2 LINE",
"298 1 LINE",
"258 0 LINE",
"210 -1 LINE",
"177 -1 LINE",
"166 -1 LINE",
"154 27 LINE",
"148 76 LINE",
"148 143 LINE",
"150 221 LINE",
"151 315 LINE"
);
}
);
};
layerId = UUID0;
paths = (
{
closed = 1;
nodes = (
"198 -1 OFFCURVE",
"218 -1 OFFCURVE",
"234 0 CURVE SMOOTH",
"266 0 OFFCURVE",
"292 1 OFFCURVE",
"318 1 CURVE SMOOTH",
"331 2 OFFCURVE",
"346 2 OFFCURVE",
"362 2 CURVE",
"369 2 OFFCURVE",
"376 3 OFFCURVE",
"382 3 CURVE SMOOTH",
"388 4 OFFCURVE",
"393 6 OFFCURVE",
"397 8 CURVE SMOOTH",
"404 13 OFFCURVE",
"408 22 OFFCURVE",
"408 42 CURVE SMOOTH",
"408 118 LINE",
"410 142 OFFCURVE",
"411 166 OFFCURVE",
"413 191 CURVE SMOOTH",
"415 240 OFFCURVE",
"416 282 OFFCURVE",
"417 311 CURVE SMOOTH",
"417 326 OFFCURVE",
"417 334 OFFCURVE",
"417 338 CURVE SMOOTH",
"417 343 OFFCURVE",
"417 347 OFFCURVE",
"417 350 CURVE SMOOTH",
"417 352 OFFCURVE",
"418 354 OFFCURVE",
"418 355 CURVE",
"419 358 OFFCURVE",
"422 358 OFFCURVE",
"426 358 CURVE SMOOTH",
"434 358 OFFCURVE",
"442 358 OFFCURVE",
"450 358 CURVE",
"460 357 OFFCURVE",
"469 357 OFFCURVE",
"478 357 CURVE SMOOTH",
"487 357 OFFCURVE",
"496 357 OFFCURVE",
"505 357 CURVE SMOOTH",
"514 357 OFFCURVE",
"522 357 OFFCURVE",
"530 357 CURVE SMOOTH",
"533 357 OFFCURVE",
"538 357 OFFCURVE",
"543 358 CURVE SMOOTH",
"547 360 OFFCURVE",
"550 363 OFFCURVE",
"550 370 CURVE SMOOTH",
"550 502 LINE SMOOTH",
"550 510 OFFCURVE",
"550 516 OFFCURVE",
"542 519 CURVE SMOOTH",
"538 522 OFFCURVE",
"530 522 OFFCURVE",
"521 524 CURVE",
"511 525 OFFCURVE",
"498 525 OFFCURVE",
"480 525 CURVE SMOOTH",
"192 525 LINE SMOOTH",
"172 525 OFFCURVE",
"152 526 OFFCURVE",
"132 526 CURVE SMOOTH",
"111 526 OFFCURVE",
"91 526 OFFCURVE",
"71 526 CURVE SMOOTH",
"66 526 OFFCURVE",
"55 526 OFFCURVE",
"47 524 CURVE SMOOTH",
"38 522 OFFCURVE",
"31 517 OFFCURVE",
"31 510 CURVE SMOOTH",
"31 509 OFFCURVE",
"31 507 OFFCURVE",
"31 503 CURVE",
"31 500 OFFCURVE",
"31 496 OFFCURVE",
"31 491 CURVE",
"30 486 OFFCURVE",
"30 482 OFFCURVE",
"30 478 CURVE",
"30 473 OFFCURVE",
"30 469 OFFCURVE",
"30 467 CURVE SMOOTH",
"30 450 OFFCURVE",
"30 422 OFFCURVE",
"34 398 CURVE SMOOTH",
"38 374 OFFCURVE",
"45 354 OFFCURVE",
"60 354 CURVE SMOOTH",
"149 354 LINE",
"150 352 OFFCURVE",
"151 351 OFFCURVE",
"151 351 CURVE SMOOTH",
"151 322 OFFCURVE",
"151 293 OFFCURVE",
"150 265 CURVE SMOOTH",
"149 206 OFFCURVE",
"148 154 OFFCURVE",
"148 110 CURVE SMOOTH",
"148 66 OFFCURVE",
"152 32 OFFCURVE",
"160 14 CURVE SMOOTH",
"164 4 OFFCURVE",
"169 -1 OFFCURVE",
"177 -1 CURVE SMOOTH"
);
}
);
width = 578;
}
);
leftKerningGroup = T;
rightKerningGroup = T;
unicode = 0054;
},
{
glyphname = Tbar;
lastChange = "2016-07-08 08:24:15 +0000";
layers = (
{
background = {
paths = (
{
closed = 1;
nodes = (
"151 351 LINE",
"151 352 LINE",
"149 354 LINE",
"60 354 LINE",
"49 354 LINE",
"37 380 LINE",
"31 417 LINE",
"30 454 LINE",
"30 467 LINE",
"30 470 LINE",
"30 484 LINE",
"31 498 LINE",
"31 509 LINE",
"31 510 LINE",
"31 515 LINE",
"40 522 LINE",
"53 526 LINE",
"66 526 LINE",
"71 526 LINE",
"101 526 LINE",
"162 525 LINE",
"192 525 LINE",
"480 525 LINE",
"506 525 LINE",
"535 522 LINE",
"549 517 LINE",
"550 508 LINE",
"550 502 LINE",
"550 370 LINE",
"550 365 LINE",
"546 360 LINE",
"539 358 LINE",
"532 357 LINE",
"530 357 LINE",
"478 357 LINE",
"464 357 LINE",
"437 358 LINE",
"426 358 LINE",
"422 358 LINE",
"419 357 LINE",
"417 354 LINE",
"417 346 LINE",
"417 338 LINE",
"417 333 LINE",
"416 290 LINE",
"415 259 LINE",
"431 259 LINE",
"439 259 LINE",
"458 258 LINE",
"474 255 LINE",
"484 250 LINE",
"484 244 LINE",
"484 235 LINE",
"485 224 LINE",
"485 217 LINE",
"486 210 LINE",
"486 203 LINE",
"486 193 LINE",
"486 184 LINE",
"486 178 LINE",
"486 166 LINE",
"481 157 LINE",
"471 150 LINE",
"463 150 LINE",
"444 150 LINE",
"430 150 LINE",
"419 150 LINE",
"410 151 LINE",
"408 118 LINE",
"408 42 LINE",
"408 26 LINE",
"402 11 LINE",
"390 4 LINE",
"373 2 LINE",
"362 2 LINE",
"337 2 LINE",
"298 1 LINE",
"258 0 LINE",
"210 -1 LINE",
"177 -1 LINE",
"166 -1 LINE",
"154 27 LINE",
"148 76 LINE",
"148 110 LINE",
"148 130 LINE",
"148 153 LINE",
"135 153 LINE",
"123 153 LINE",
"110 153 LINE",
"89 155 LINE",
"75 162 LINE",
"75 169 LINE",
"75 182 LINE",
"75 200 LINE",
"75 217 LINE",
"74 235 LINE",
"74 248 LINE",
"74 250 LINE",
"79 255 LINE",
"86 259 LINE",
"94 262 LINE",
"98 262 LINE",
"150 262 LINE",
"150 264 LINE",
"151 307 LINE"
);
}
);
};
layerId = UUID0;
paths = (
{
closed = 1;
nodes = (
"198 -1 OFFCURVE",
"218 -1 OFFCURVE",
"234 0 CURVE SMOOTH",
"266 0 OFFCURVE",
"292 1 OFFCURVE",
"318 1 CURVE SMOOTH",
"331 2 OFFCURVE",
"346 2 OFFCURVE",
"362 2 CURVE",
"369 2 OFFCURVE",
"376 3 OFFCURVE",
"382 3 CURVE SMOOTH",
"388 4 OFFCURVE",
"393 6 OFFCURVE",
"397 8 CURVE SMOOTH",
"404 13 OFFCURVE",
"408 22 OFFCURVE",
"408 42 CURVE SMOOTH",
"408 118 LINE",
"410 151 LINE",
"422 150 OFFCURVE",
"438 150 OFFCURVE",
"463 150 CURVE SMOOTH",
"474 150 OFFCURVE",
"480 155 OFFCURVE",
"483 162 CURVE SMOOTH",
"486 168 OFFCURVE",
"486 177 OFFCURVE",
"486 184 CURVE SMOOTH",
"486 190 OFFCURVE",
"486 194 OFFCURVE",
"486 198 CURVE SMOOTH",
"486 202 OFFCURVE",
"486 204 OFFCURVE",
"486 207 CURVE",
"486 210 OFFCURVE",
"486 212 OFFCURVE",
"486 214 CURVE",
"485 216 OFFCURVE",
"485 218 OFFCURVE",
"485 220 CURVE",
"485 226 OFFCURVE",
"484 232 OFFCURVE",
"484 244 CURVE SMOOTH",
"484 251 OFFCURVE",
"477 255 OFFCURVE",
"466 257 CURVE SMOOTH",
"455 259 OFFCURVE",
"442 259 OFFCURVE",
"431 259 CURVE SMOOTH",
"415 259 LINE",
"416 279 OFFCURVE",
"416 297 OFFCURVE",
"417 311 CURVE SMOOTH",
"417 326 OFFCURVE",
"417 334 OFFCURVE",
"417 338 CURVE SMOOTH",
"417 343 OFFCURVE",
"417 347 OFFCURVE",
"417 350 CURVE SMOOTH",
"417 352 OFFCURVE",
"418 354 OFFCURVE",
"418 355 CURVE",
"419 358 OFFCURVE",
"422 358 OFFCURVE",
"426 358 CURVE SMOOTH",
"434 358 OFFCURVE",
"442 358 OFFCURVE",
"450 358 CURVE",
"460 357 OFFCURVE",
"469 357 OFFCURVE",
"478 357 CURVE SMOOTH",
"530 357 LINE SMOOTH",
"533 357 OFFCURVE",
"538 357 OFFCURVE",
"543 358 CURVE SMOOTH",
"547 360 OFFCURVE",
"550 363 OFFCURVE",
"550 370 CURVE SMOOTH",
"550 502 LINE SMOOTH",
"550 510 OFFCURVE",
"550 516 OFFCURVE",
"542 519 CURVE SMOOTH",
"538 522 OFFCURVE",
"530 522 OFFCURVE",
"521 524 CURVE",
"511 525 OFFCURVE",
"498 525 OFFCURVE",
"480 525 CURVE SMOOTH",
"192 525 LINE SMOOTH",
"172 525 OFFCURVE",
"152 526 OFFCURVE",
"132 526 CURVE SMOOTH",
"111 526 OFFCURVE",
"91 526 OFFCURVE",
"71 526 CURVE SMOOTH",
"66 526 OFFCURVE",
"55 526 OFFCURVE",
"47 524 CURVE SMOOTH",
"38 522 OFFCURVE",
"31 517 OFFCURVE",
"31 510 CURVE SMOOTH",
"31 509 OFFCURVE",
"31 507 OFFCURVE",
"31 503 CURVE",
"31 500 OFFCURVE",
"31 496 OFFCURVE",
"31 491 CURVE",
"30 486 OFFCURVE",
"30 482 OFFCURVE",
"30 478 CURVE",
"30 473 OFFCURVE",
"30 469 OFFCURVE",
"30 467 CURVE SMOOTH",
"30 450 OFFCURVE",
"30 422 OFFCURVE",
"34 398 CURVE SMOOTH",
"38 374 OFFCURVE",
"45 354 OFFCURVE",
"60 354 CURVE SMOOTH",
"149 354 LINE",
"150 352 OFFCURVE",
"151 351 OFFCURVE",
"151 351 CURVE SMOOTH",
"151 322 OFFCURVE",
"151 293 OFFCURVE",
"150 264 CURVE SMOOTH",
"150 262 LINE",
"98 262 LINE SMOOTH",
"93 262 OFFCURVE",
"87 260 OFFCURVE",
"82 258 CURVE SMOOTH",
"78 254 OFFCURVE",
"74 251 OFFCURVE",
"74 248 CURVE SMOOTH",
"74 240 OFFCURVE",
"74 233 OFFCURVE",
"75 226 CURVE",
"75 220 OFFCURVE",
"75 214 OFFCURVE",
"75 209 CURVE SMOOTH",
"75 202 OFFCURVE",
"75 197 OFFCURVE",
"75 190 CURVE",
"75 184 OFFCURVE",
"75 177 OFFCURVE",
"75 169 CURVE SMOOTH",
"75 165 OFFCURVE",
"78 161 OFFCURVE",
"82 158 CURVE SMOOTH",
"91 154 OFFCURVE",
"106 153 OFFCURVE",
"123 153 CURVE",
"132 153 OFFCURVE",
"139 153 OFFCURVE",
"148 153 CURVE",
"148 138 OFFCURVE",
"148 123 OFFCURVE",
"148 110 CURVE SMOOTH",
"148 66 OFFCURVE",
"152 32 OFFCURVE",
"160 14 CURVE SMOOTH",
"164 4 OFFCURVE",
"169 -1 OFFCURVE",
"177 -1 CURVE SMOOTH"
);
}
);
width = 578;
}
);
leftKerningGroup = T;
rightKerningGroup = T;
unicode = 0166;
},
{
glyphname = U;
lastChange = "2016-07-08 08:24:15 +0000";
layers = (
{
anchors = (
{
name = bottom;
position = "{354, 0}";
},
{
name = ogonek;
position = "{637, 8}";
},
{
name = top;
position = "{354, 541}";
},
{
name = topright;
position = "{553, 537}";
}
);
background = {
paths = (
{
closed = 1;
nodes = (
"402 28 LINE",
"382 18 LINE",
"335 1 LINE",
"287 -12 LINE",
"237 -18 LINE",
"212 -18 LINE",
"172 -18 LINE",
"116 0 LINE",
"78 34 LINE",
"57 79 LINE",
"46 134 LINE",
"44 196 LINE",
"44 229 LINE",
"44 261 LINE",
"47 325 LINE",
"51 390 LINE",
"54 458 LINE",
"54 492 LINE",
"54 501 LINE",
"51 517 LINE",
"51 526 LINE",
"51 534 LINE",
"68 539 LINE",
"78 539 LINE",
"102 539 LINE",
"150 540 LINE",
"199 538 LINE",
"250 534 LINE",
"275 529 LINE",
"286 526 LINE",
"300 518 LINE",
"307 506 LINE",
"310 486 LINE",
"310 471 LINE",
"310 439 LINE",
"308 372 LINE",
"306 298 LINE",
"304 212 LINE",
"304 162 LINE",
"304 133 LINE",
"309 106 LINE",
"319 106 LINE",
"332 106 LINE",
"356 113 LINE",
"366 117 LINE",
"378 122 LINE",
"389 129 LINE",
"389 450 LINE",
"387 459 LINE",
"386 478 LINE",
"385 494 LINE",
"385 506 LINE",
"385 507 LINE",
"385 514 LINE",
"387 524 LINE",
"394 530 LINE",
"406 532 LINE",
"417 532 LINE",
"426 532 LINE",
"458 534 LINE",
"495 535 LINE",
"528 537 LINE",
"535 538 LINE",
"537 538 LINE",
"553 537 LINE",
"562 536 LINE",
"573 535 LINE",
"586 535 LINE",
"614 532 LINE",
"645 526 LINE",
"660 519 LINE",
"664 513 LINE",
"664 509 LINE",
"664 449 LINE",
"661 330 LINE",
"657 213 LINE",
"654 94 LINE",
"654 34 LINE",
"654 18 LINE",
"640 2 LINE",
"624 2 LINE",
"618 2 LINE",
"597 2 LINE",
"570 1 LINE",
"539 0 LINE",
"525 -1 LINE",
"490 -2 LINE",
"450 -4 LINE",
"430 -4 LINE",
"406 11 LINE"
);
}
);
};
layerId = UUID0;
paths = (
{
closed = 1;
nodes = (
"245 -18 OFFCURVE",
"279 -14 OFFCURVE",
"311 -6 CURVE SMOOTH",
"344 2 OFFCURVE",
"375 14 OFFCURVE",
"402 28 CURVE",
"408 5 OFFCURVE",
"422 -4 OFFCURVE",
"450 -4 CURVE",
"476 -2 OFFCURVE",
"501 -2 OFFCURVE",
"525 -1 CURVE SMOOTH",
"545 0 OFFCURVE",
"566 1 OFFCURVE",
"583 2 CURVE SMOOTH",
"602 2 OFFCURVE",
"617 2 OFFCURVE",
"624 2 CURVE SMOOTH",
"645 2 OFFCURVE",
"654 13 OFFCURVE",
"654 34 CURVE SMOOTH",
"654 114 OFFCURVE",
"657 193 OFFCURVE",
"659 271 CURVE SMOOTH",
"662 350 OFFCURVE",
"664 428 OFFCURVE",
"664 509 CURVE SMOOTH",
"664 514 OFFCURVE",
"663 518 OFFCURVE",
"653 522 CURVE SMOOTH",
"648 524 OFFCURVE",
"640 526 OFFCURVE",
"630 529 CURVE",
"619 531 OFFCURVE",
"605 534 OFFCURVE",
"586 535 CURVE",
"578 535 OFFCURVE",
"570 536 OFFCURVE",
"562 536 CURVE SMOOTH",
"556 537 OFFCURVE",
"550 537 OFFCURVE",
"546 537 CURVE SMOOTH",
"540 538 OFFCURVE",
"537 538 OFFCURVE",
"535 538 CURVE",
"530 537 OFFCURVE",
"522 536 OFFCURVE",
"512 536 CURVE SMOOTH",
"501 535 OFFCURVE",
"489 534 OFFCURVE",
"477 534 CURVE SMOOTH",
"452 533 OFFCURVE",
"428 532 OFFCURVE",
"417 532 CURVE SMOOTH",
"402 532 OFFCURVE",
"395 531 OFFCURVE",
"390 527 CURVE",
"386 523 OFFCURVE",
"385 517 OFFCURVE",
"385 507 CURVE SMOOTH",
"385 506 OFFCURVE",
"385 503 OFFCURVE",
"385 500 CURVE SMOOTH",
"385 496 OFFCURVE",
"385 491 OFFCURVE",
"386 486 CURVE",
"386 475 OFFCURVE",
"387 462 OFFCURVE",
"389 450 CURVE",
"389 129 LINE",
"382 125 OFFCURVE",
"374 121 OFFCURVE",
"366 117 CURVE SMOOTH",
"353 111 OFFCURVE",
"336 106 OFFCURVE",
"319 106 CURVE SMOOTH",
"312 106 OFFCURVE",
"308 110 OFFCURVE",
"306 119 CURVE",
"305 128 OFFCURVE",
"304 142 OFFCURVE",
"304 162 CURVE SMOOTH",
"304 229 OFFCURVE",
"306 285 OFFCURVE",
"307 334 CURVE SMOOTH",
"309 385 OFFCURVE",
"310 429 OFFCURVE",
"310 471 CURVE SMOOTH",
"310 491 OFFCURVE",
"309 504 OFFCURVE",
"304 513 CURVE",
"299 520 OFFCURVE",
"290 525 OFFCURVE",
"275 529 CURVE",
"258 533 OFFCURVE",
"242 534 OFFCURVE",
"225 536 CURVE SMOOTH",
"191 539 OFFCURVE",
"158 540 OFFCURVE",
"126 539 CURVE SMOOTH",
"110 539 OFFCURVE",
"94 539 OFFCURVE",
"78 539 CURVE SMOOTH",
"65 539 OFFCURVE",
"51 537 OFFCURVE",
"51 526 CURVE SMOOTH",
"51 520 OFFCURVE",
"52 514 OFFCURVE",
"53 509 CURVE SMOOTH",
"54 504 OFFCURVE",
"54 498 OFFCURVE",
"54 492 CURVE SMOOTH",
"54 446 OFFCURVE",
"52 402 OFFCURVE",
"50 358 CURVE SMOOTH",
"46 314 OFFCURVE",
"44 271 OFFCURVE",
"44 229 CURVE SMOOTH",
"44 185 OFFCURVE",
"45 143 OFFCURVE",
"52 106 CURVE SMOOTH",
"59 70 OFFCURVE",
"72 38 OFFCURVE",
"97 17 CURVE SMOOTH",
"122 -6 OFFCURVE",
"158 -18 OFFCURVE",
"212 -18 CURVE SMOOTH"
);
}
);
width = 708;
}
);
leftKerningGroup = U;
rightKerningGroup = U;
unicode = 0055;
},
{
glyphname = Uhorn;
lastChange = "2016-07-08 08:24:15 +0000";
layers = (
{
anchors = (
{
name = bottom;
position = "{354, 0}";
},
{
name = top;
position = "{354, 541}";
}
);
background = {
paths = (
{
closed = 1;
nodes = (
"735 644 LINE",
"739 629 LINE",
"742 596 LINE",
"742 578 LINE",
"742 544 LINE",
"722 482 LINE",
"699 448 LINE",
"674 419 LINE",
"638 403 LINE",
"598 391 LINE",
"553 422 LINE",
"553 537 LINE",
"565 537 LINE",
"586 546 LINE",
"603 563 LINE",
"612 586 LINE",
"612 599 LINE",
"612 606 LINE",
"610 633 LINE",
"606 647 LINE"
);
},
{
closed = 1;
nodes = (
"402 28 LINE",
"382 18 LINE",
"335 1 LINE",
"287 -12 LINE",
"237 -18 LINE",
"212 -18 LINE",
"172 -18 LINE",
"116 0 LINE",
"78 34 LINE",
"57 79 LINE",
"46 134 LINE",
"44 196 LINE",
"44 229 LINE",
"44 261 LINE",
"47 325 LINE",
"51 390 LINE",
"54 458 LINE",
"54 492 LINE",
"54 501 LINE",
"51 517 LINE",
"51 526 LINE",
"51 534 LINE",
"68 539 LINE",
"78 539 LINE",
"102 539 LINE",
"150 540 LINE",
"199 538 LINE",
"250 534 LINE",
"275 529 LINE",
"286 526 LINE",
"300 518 LINE",
"307 506 LINE",
"310 486 LINE",
"310 471 LINE",
"310 439 LINE",
"308 372 LINE",
"306 298 LINE",
"304 212 LINE",
"304 162 LINE",
"304 133 LINE",
"309 106 LINE",
"319 106 LINE",
"332 106 LINE",
"356 113 LINE",
"366 117 LINE",
"378 122 LINE",
"389 129 LINE",
"389 450 LINE",
"387 459 LINE",
"386 478 LINE",
"385 494 LINE",
"385 506 LINE",
"385 507 LINE",
"385 514 LINE",
"387 524 LINE",
"394 530 LINE",
"406 532 LINE",
"417 532 LINE",
"426 532 LINE",
"458 534 LINE",
"495 535 LINE",
"528 537 LINE",
"535 538 LINE",
"537 538 LINE",
"553 537 LINE",
"562 536 LINE",
"573 535 LINE",
"586 535 LINE",
"614 532 LINE",
"645 526 LINE",
"660 519 LINE",
"664 513 LINE",
"664 509 LINE",
"664 449 LINE",
"661 330 LINE",
"657 213 LINE",
"654 94 LINE",
"654 34 LINE",
"654 18 LINE",
"640 2 LINE",
"624 2 LINE",
"618 2 LINE",
"597 2 LINE",
"570 1 LINE",
"539 0 LINE",
"525 -1 LINE",
"490 -2 LINE",
"450 -4 LINE",
"430 -4 LINE",
"406 11 LINE"
);
}
);
};
layerId = UUID0;
paths = (
{
closed = 1;
nodes = (
"245 -18 OFFCURVE",
"279 -14 OFFCURVE",
"311 -6 CURVE SMOOTH",
"344 2 OFFCURVE",
"375 14 OFFCURVE",
"402 28 CURVE",
"408 5 OFFCURVE",
"422 -4 OFFCURVE",
"450 -4 CURVE",
"476 -2 OFFCURVE",
"501 -2 OFFCURVE",
"525 -1 CURVE SMOOTH",
"583 2 LINE SMOOTH",
"602 2 OFFCURVE",
"617 2 OFFCURVE",
"624 2 CURVE SMOOTH",
"645 2 OFFCURVE",
"654 13 OFFCURVE",
"654 34 CURVE SMOOTH",
"654 114 OFFCURVE",
"657 193 OFFCURVE",
"659 271 CURVE SMOOTH",
"661 319 OFFCURVE",
"662 366 OFFCURVE",
"663 414 CURVE",
"682 429 LINE",
"699 448 LINE",
"718 478 LINE SMOOTH",
"730 498 OFFCURVE",
"735 523 OFFCURVE",
"741 560 CURVE",
"742 596 LINE",
"739 629 LINE",
"735 644 LINE",
"606 647 LINE",
"610 633 LINE",
"612 606 LINE",
"611 586 LINE",
"604 566 LINE SMOOTH",
"598 551 OFFCURVE",
"580 537 OFFCURVE",
"565 537 CURVE SMOOTH",
"553 537 LINE",
"539 538 LINE",
"538 538 LINE",
"535 538 LINE",
"528 537 LINE",
"524 536 OFFCURVE",
"518 536 OFFCURVE",
"512 536 CURVE",
"501 535 OFFCURVE",
"489 534 OFFCURVE",
"477 534 CURVE",
"452 533 OFFCURVE",
"428 532 OFFCURVE",
"417 532 CURVE SMOOTH",
"402 532 OFFCURVE",
"395 531 OFFCURVE",
"390 527 CURVE SMOOTH",
"386 523 OFFCURVE",
"385 517 OFFCURVE",
"385 507 CURVE SMOOTH",
"385 500 LINE SMOOTH",
"385 496 OFFCURVE",
"385 491 OFFCURVE",
"386 486 CURVE",
"386 475 OFFCURVE",
"387 462 OFFCURVE",
"389 450 CURVE",
"389 129 LINE",
"382 125 OFFCURVE",
"374 121 OFFCURVE",
"366 117 CURVE",
"353 111 OFFCURVE",
"336 106 OFFCURVE",
"319 106 CURVE SMOOTH",
"312 106 OFFCURVE",
"308 110 OFFCURVE",
"306 119 CURVE SMOOTH",
"305 128 OFFCURVE",
"304 142 OFFCURVE",
"304 162 CURVE SMOOTH",
"304 229 OFFCURVE",
"306 285 OFFCURVE",
"307 334 CURVE SMOOTH",
"309 385 OFFCURVE",
"310 429 OFFCURVE",
"310 471 CURVE SMOOTH",
"310 491 OFFCURVE",
"309 504 OFFCURVE",
"304 513 CURVE",
"299 520 OFFCURVE",
"290 525 OFFCURVE",
"275 529 CURVE",
"258 533 OFFCURVE",
"242 534 OFFCURVE",
"225 536 CURVE SMOOTH",
"191 539 OFFCURVE",
"158 540 OFFCURVE",
"126 539 CURVE SMOOTH",
"78 539 LINE SMOOTH",
"65 539 OFFCURVE",
"51 537 OFFCURVE",
"51 526 CURVE SMOOTH",
"51 520 OFFCURVE",
"52 514 OFFCURVE",
"53 509 CURVE",
"54 504 OFFCURVE",
"54 498 OFFCURVE",
"54 492 CURVE SMOOTH",
"54 446 OFFCURVE",
"52 402 OFFCURVE",
"50 358 CURVE SMOOTH",
"46 314 OFFCURVE",
"44 271 OFFCURVE",
"44 229 CURVE SMOOTH",
"44 185 OFFCURVE",
"45 143 OFFCURVE",
"52 106 CURVE SMOOTH",
"59 70 OFFCURVE",
"72 38 OFFCURVE",
"97 17 CURVE SMOOTH",
"122 -6 OFFCURVE",
"158 -18 OFFCURVE",
"212 -18 CURVE SMOOTH"
);
}
);
width = 708;
}
);
leftKerningGroup = Uhorn;
rightKerningGroup = Uhorn;
unicode = 01AF;
},
{
glyphname = V;
lastChange = "2016-07-08 08:24:15 +0000";
layers = (
{
anchors = (
{
name = bottom;
position = "{367, 0}";
},
{
name = top;
position = "{367, 541}";
}
);
background = {
paths = (
{
closed = 1;
nodes = (
"503 4 LINE",
"429 1 LINE",
"281 0 LINE",
"212 0 LINE",
"201 0 LINE",
"179 5 LINE",
"169 5 LINE",
"166 5 LINE",
"164 4 LINE",
"162 4 LINE",
"159 5 LINE",
"154 11 LINE",
"154 13 LINE",
"98 266 LINE",
"85 314 LINE",
"62 416 LINE",
"51 464 LINE",
"50 470 LINE",
"45 494 LINE",
"43 518 LINE",
"48 538 LINE",
"58 538 LINE",
"61 538 LINE",
"76 538 LINE",
"96 537 LINE",
"118 537 LINE",
"137 536 LINE",
"149 536 LINE",
"150 536 LINE",
"224 536 LINE",
"224 535 LINE",
"228 534 LINE",
"230 534 LINE",
"232 533 LINE",
"235 533 LINE",
"238 536 LINE",
"243 536 LINE",
"246 536 LINE",
"246 536 LINE",
"262 534 LINE",
"285 534 LINE",
"311 533 LINE",
"322 533 LINE",
"326 526 LINE",
"334 495 LINE",
"342 454 LINE",
"351 404 LINE",
"358 378 LINE",
"358 377 LINE",
"362 353 LINE",
"369 318 LINE",
"377 278 LINE",
"384 243 LINE",
"389 220 LINE",
"389 218 LINE",
"389 217 LINE",
"390 215 LINE",
"390 210 LINE",
"391 208 LINE",
"392 210 LINE",
"392 215 LINE",
"393 217 LINE",
"393 218 LINE",
"394 220 LINE",
"398 243 LINE",
"405 278 LINE",
"413 318 LINE",
"420 353 LINE",
"425 377 LINE",
"425 378 LINE",
"430 404 LINE",
"440 454 LINE",
"449 495 LINE",
"456 526 LINE",
"461 533 LINE",
"468 533 LINE",
"489 534 LINE",
"507 534 LINE",
"520 536 LINE",
"521 536 LINE",
"523 536 LINE",
"524 536 LINE",
"526 533 LINE",
"526 533 LINE",
"533 533 LINE",
"534 535 LINE",
"534 536 LINE",
"585 536 LINE",
"598 536 LINE",
"617 537 LINE",
"638 537 LINE",
"658 538 LINE",
"674 538 LINE",
"677 538 LINE",
"686 538 LINE",
"691 518 LINE",
"690 494 LINE",
"684 470 LINE",
"683 464 LINE",
"673 416 LINE",
"650 314 LINE",
"637 266 LINE",
"581 13 LINE",
"581 11 LINE",
"575 5 LINE",
"573 4 LINE",
"570 4 LINE",
"568 5 LINE",
"566 5 LINE",
"561 5 LINE",
"551 0 LINE",
"546 0 LINE",
"535 0 LINE",
"514 4 LINE"
);
}
);
};
layerId = UUID0;
paths = (
{
closed = 1;
nodes = (
"304 0 OFFCURVE",
"404 0 OFFCURVE",
"503 4 CURVE",
"510 4 OFFCURVE",
"518 3 OFFCURVE",
"525 2 CURVE SMOOTH",
"532 1 OFFCURVE",
"539 0 OFFCURVE",
"546 0 CURVE SMOOTH",
"550 0 OFFCURVE",
"553 1 OFFCURVE",
"556 2 CURVE SMOOTH",
"559 4 OFFCURVE",
"562 5 OFFCURVE",
"566 5 CURVE SMOOTH",
"567 5 OFFCURVE",
"568 5 OFFCURVE",
"570 4 CURVE",
"570 4 OFFCURVE",
"571 4 OFFCURVE",
"573 4 CURVE",
"576 6 OFFCURVE",
"581 10 OFFCURVE",
"581 13 CURVE",
"637 266 LINE",
"654 330 OFFCURVE",
"670 400 OFFCURVE",
"683 464 CURVE SMOOTH",
"684 467 OFFCURVE",
"685 474 OFFCURVE",
"687 482 CURVE SMOOTH",
"689 490 OFFCURVE",
"690 498 OFFCURVE",
"690 506 CURVE SMOOTH",
"692 523 OFFCURVE",
"690 538 OFFCURVE",
"677 538 CURVE SMOOTH",
"674 538 OFFCURVE",
"671 538 OFFCURVE",
"666 538 CURVE SMOOTH",
"661 538 OFFCURVE",
"654 538 OFFCURVE",
"648 538 CURVE",
"642 537 OFFCURVE",
"634 537 OFFCURVE",
"627 537 CURVE",
"620 537 OFFCURVE",
"614 537 OFFCURVE",
"607 537 CURVE",
"601 536 OFFCURVE",
"596 536 OFFCURVE",
"591 536 CURVE SMOOTH",
"587 536 OFFCURVE",
"585 536 OFFCURVE",
"585 536 CURVE",
"534 536 LINE",
"534 535 OFFCURVE",
"534 534 OFFCURVE",
"534 534 CURVE",
"533 534 OFFCURVE",
"530 533 OFFCURVE",
"526 533 CURVE SMOOTH",
"526 533 OFFCURVE",
"526 534 OFFCURVE",
"525 534 CURVE SMOOTH",
"525 535 OFFCURVE",
"524 536 OFFCURVE",
"523 536 CURVE SMOOTH",
"521 536 LINE SMOOTH",
"520 536 OFFCURVE",
"518 536 OFFCURVE",
"514 535 CURVE SMOOTH",
"510 535 OFFCURVE",
"504 534 OFFCURVE",
"498 534 CURVE SMOOTH",
"486 534 OFFCURVE",
"471 533 OFFCURVE",
"461 533 CURVE",
"458 528 OFFCURVE",
"455 521 OFFCURVE",
"452 510 CURVE SMOOTH",
"447 490 OFFCURVE",
"442 462 OFFCURVE",
"435 429 CURVE SMOOTH",
"432 412 OFFCURVE",
"429 395 OFFCURVE",
"425 378 CURVE",
"425 378 OFFCURVE",
"424 373 OFFCURVE",
"422 366 CURVE SMOOTH",
"421 357 OFFCURVE",
"418 347 OFFCURVE",
"417 336 CURVE SMOOTH",
"414 324 OFFCURVE",
"412 312 OFFCURVE",
"409 298 CURVE SMOOTH",
"404 271 OFFCURVE",
"399 247 OFFCURVE",
"396 232 CURVE SMOOTH",
"394 224 OFFCURVE",
"394 220 OFFCURVE",
"394 220 CURVE",
"393 218 OFFCURVE",
"392 216 OFFCURVE",
"392 213 CURVE",
"392 211 OFFCURVE",
"391 210 OFFCURVE",
"391 208 CURVE",
"390 210 OFFCURVE",
"390 211 OFFCURVE",
"390 213 CURVE SMOOTH",
"390 214 OFFCURVE",
"390 216 OFFCURVE",
"389 217 CURVE SMOOTH",
"389 218 OFFCURVE",
"389 218 OFFCURVE",
"389 220 CURVE SMOOTH",
"389 220 OFFCURVE",
"388 224 OFFCURVE",
"386 232 CURVE SMOOTH",
"383 247 OFFCURVE",
"378 271 OFFCURVE",
"373 298 CURVE SMOOTH",
"370 312 OFFCURVE",
"368 324 OFFCURVE",
"366 336 CURVE SMOOTH",
"363 347 OFFCURVE",
"362 357 OFFCURVE",
"360 366 CURVE SMOOTH",
"358 373 OFFCURVE",
"358 378 OFFCURVE",
"358 378 CURVE",
"354 395 OFFCURVE",
"350 412 OFFCURVE",
"347 429 CURVE SMOOTH",
"344 446 OFFCURVE",
"341 461 OFFCURVE",
"338 474 CURVE SMOOTH",
"332 502 OFFCURVE",
"327 523 OFFCURVE",
"322 533 CURVE",
"315 533 OFFCURVE",
"307 533 OFFCURVE",
"298 534 CURVE SMOOTH",
"281 534 OFFCURVE",
"265 534 OFFCURVE",
"254 535 CURVE SMOOTH",
"249 536 OFFCURVE",
"246 536 OFFCURVE",
"246 536 CURVE SMOOTH",
"243 536 LINE SMOOTH",
"240 536 OFFCURVE",
"238 535 OFFCURVE",
"237 534 CURVE SMOOTH",
"235 534 OFFCURVE",
"234 533 OFFCURVE",
"232 533 CURVE",
"229 534 OFFCURVE",
"224 535 OFFCURVE",
"224 536 CURVE",
"150 536 LINE SMOOTH",
"150 536 OFFCURVE",
"147 536 OFFCURVE",
"143 536 CURVE",
"134 536 OFFCURVE",
"122 537 OFFCURVE",
"107 537 CURVE SMOOTH",
"100 537 OFFCURVE",
"93 537 OFFCURVE",
"86 538 CURVE",
"80 538 OFFCURVE",
"74 538 OFFCURVE",
"68 538 CURVE SMOOTH",
"63 538 OFFCURVE",
"59 538 OFFCURVE",
"58 538 CURVE SMOOTH",
"51 538 OFFCURVE",
"47 534 OFFCURVE",
"46 528 CURVE SMOOTH",
"42 516 OFFCURVE",
"44 498 OFFCURVE",
"48 482 CURVE SMOOTH",
"50 474 OFFCURVE",
"50 467 OFFCURVE",
"51 464 CURVE",
"65 400 OFFCURVE",
"81 330 OFFCURVE",
"98 266 CURVE",
"154 13 LINE",
"154 10 OFFCURVE",
"158 6 OFFCURVE",
"162 4 CURVE",
"163 4 OFFCURVE",
"164 4 OFFCURVE",
"166 4 CURVE",
"166 5 OFFCURVE",
"167 5 OFFCURVE",
"169 5 CURVE SMOOTH",
"175 5 OFFCURVE",
"182 4 OFFCURVE",
"190 2 CURVE SMOOTH",
"198 1 OFFCURVE",
"205 0 OFFCURVE",
"212 0 CURVE SMOOTH"
);
}
);
width = 734;
}
);
leftKerningGroup = V;
rightKerningGroup = V;
unicode = 0056;
},
